<svg width="235" height="326" viewBox="0 0 235 326" fill="none" xmlns="http://www.w3.org/2000/svg">
<path d="M19.3399 195.05C20.2857 177.984 15.9961 161.867 6.92932 148.425C-2.13749 134.983 -15.5101 124.914 -31.742 119.434C-58.1462 110.489 -73.972 88.072 -73.5253 60.6245L-87.358 59.8632C-88.0463 93.3409 -68.2312 121.673 -36.2178 132.545C-8.85756 141.863 7.10001 165.521 5.45324 194.325C3.49229 229.052 23.5481 258.786 56.4813 269.977C83.8416 279.295 99.7991 302.953 98.1524 331.757C96.2408 365.512 115.087 394.498 146.385 406.401L150.86 393.29C125.208 383.368 110.388 360.351 111.985 332.519C113.946 297.791 93.8903 268.057 60.9571 256.867C47.322 252.217 36.4431 243.987 29.2259 233.287C22.0988 222.604 18.5258 209.525 19.3399 195.05Z" fill="#9AE3AC"/>
<path d="M51.4132 173.417C52.3591 156.35 48.0695 140.233 39.0027 126.791C29.9359 113.349 16.5633 103.281 0.331334 97.8007C-26.0728 88.8555 -41.8986 66.4382 -41.4519 38.9907L-55.2846 38.2294C-55.973 71.7072 -36.1578 100.039 -4.14445 110.911C23.2158 120.229 39.1734 143.887 37.5266 172.691C35.5657 207.419 55.6215 237.153 88.5547 248.344C115.915 257.661 131.872 281.319 130.226 310.123C128.314 343.879 147.16 372.864 178.458 384.767L182.934 371.656C157.281 361.735 142.461 338.717 144.059 310.885C146.019 276.158 125.964 246.424 93.0305 235.233C79.3954 230.583 68.5164 222.353 61.2993 211.653C54.1722 200.97 50.5992 187.891 51.4132 173.417Z" fill="#9AE3AC"/>
<path d="M83.4866 151.783C84.4324 134.716 80.1429 118.6 71.0761 105.157C62.0092 91.7153 48.6367 81.6468 32.4047 76.1669C6.00056 67.2217 -9.82525 44.8044 -9.37854 17.357L-23.2113 16.5956C-23.8996 50.0734 -4.08444 78.4051 27.9289 89.2777C55.2892 98.595 71.2467 122.253 69.6 151.058C67.639 185.785 87.6948 215.519 120.628 226.71C147.988 236.027 163.946 259.685 162.299 288.49C160.388 322.245 179.233 351.23 210.531 363.133L215.007 350.022C189.355 340.101 174.535 317.084 176.132 289.251C178.093 254.524 158.037 224.79 125.104 213.599C111.469 208.949 100.59 200.719 93.3726 190.019C86.2455 179.337 82.6725 166.257 83.4866 151.783Z" fill="#9AE3AC"/>
</svg>
