<svg width="234" height="327" viewBox="0 0 234 327" fill="none" xmlns="http://www.w3.org/2000/svg">
<path d="M118.901 107.472C119.847 90.4057 115.557 74.289 106.49 60.8469C97.4233 47.4048 84.0507 37.3362 67.8188 31.8563C41.4146 22.9111 25.5888 0.493881 26.0356 -26.9536L12.2028 -27.715C11.5145 5.76282 31.3297 34.0946 63.343 44.9672C90.7033 54.2845 106.661 77.9425 105.014 106.747C103.053 141.474 123.109 171.208 156.042 182.399C183.402 191.717 199.36 215.375 197.713 244.179C195.802 277.934 214.647 306.92 245.945 318.823L250.421 305.712C224.769 295.79 209.949 272.773 211.546 244.941C213.507 210.213 193.451 180.479 160.518 169.288C146.883 164.639 136.004 156.408 128.787 145.709C121.66 135.026 118.087 121.946 118.901 107.472Z" fill="#9AE3AC"/>
<path d="M150.974 85.8389C151.92 68.7724 147.63 52.6557 138.563 39.2136C129.497 25.7715 116.124 15.7029 99.8921 10.223C73.488 1.27783 57.6622 -21.1394 58.1089 -48.5869L44.2762 -49.3483C43.5878 -15.8705 63.403 12.4613 95.4163 23.3339C122.777 32.6512 138.734 56.3092 137.087 85.1137C135.126 119.841 155.182 149.575 188.115 160.766C215.476 170.083 231.433 193.741 229.787 222.546C227.875 256.301 246.721 285.287 278.019 297.189L282.495 284.078C256.842 274.157 242.022 251.14 243.619 223.307C245.58 188.58 225.524 158.846 192.591 147.655C178.956 143.005 168.077 134.775 160.86 124.075C153.733 113.393 150.16 100.313 150.974 85.8389Z" fill="#9AE3AC"/>
<path d="M183.047 64.2051C183.993 47.1386 179.704 31.0219 170.637 17.5798C161.57 4.13767 148.197 -5.93086 131.965 -11.4108C105.561 -20.356 89.7355 -42.7732 90.1822 -70.2207L76.3495 -70.9821C75.6611 -37.5043 95.4763 -9.17253 127.49 1.70007C154.85 11.0174 170.807 34.6754 169.161 63.4799C167.2 98.2073 187.256 127.941 220.189 139.132C247.549 148.449 263.507 172.107 261.86 200.912C259.948 234.667 278.794 263.653 310.092 275.556L314.568 262.445C288.915 252.523 274.095 229.506 275.693 201.674C277.654 166.946 257.598 137.212 224.665 126.021C211.03 121.371 200.151 113.141 192.933 102.441C185.806 91.759 182.233 78.6793 183.047 64.2051Z" fill="#9AE3AC"/>
</svg>
