<svg width="499" height="400" viewBox="0 0 499 400" fill="none" xmlns="http://www.w3.org/2000/svg">
<path d="M462.22 172.556H425.442V217.226H415.976V191.934H369.199V231.978H363.009V138H322.359V163.802H301.523V195.891H295.216V175.704H258.257V235.945H247.451V186.967H213.65V149.784H190.666V128.608H164.087V222.544H155.153V183.34H111.355V239.455H105.303V193.657H60.8878V152.39H36V344.58H462.22V172.556Z" fill="#EBEBEB"/>
<path d="M451.489 186.712H457.711V178.171H451.489V186.712Z" fill="white"/>
<path d="M440.704 186.712H446.926V178.171H440.704V186.712Z" fill="white"/>
<path d="M429.909 186.712H436.131V178.171H429.909V186.712Z" fill="white"/>
<path d="M451.489 199.56H457.711V191.019H451.489V199.56Z" fill="white"/>
<path d="M440.704 199.56H446.926V191.019H440.704V199.56Z" fill="white"/>
<path d="M429.909 199.56H436.131V191.019H429.909V199.56Z" fill="white"/>
<path d="M451.489 212.408H457.711V203.868H451.489V212.408Z" fill="white"/>
<path d="M440.704 212.408H446.926V203.868H440.704V212.408Z" fill="white"/>
<path d="M429.909 212.408H436.131V203.868H429.909V212.408Z" fill="white"/>
<path d="M451.489 225.267H457.711V216.726H451.489V225.267Z" fill="white"/>
<path d="M440.704 225.267H446.926V216.726H440.704V225.267Z" fill="white"/>
<path d="M429.909 225.267H436.131V216.726H429.909V225.267Z" fill="white"/>
<path d="M236.039 200.209H242.261V193.083H236.039V200.209Z" fill="white"/>
<path d="M225.254 200.209H231.476V193.083H225.254V200.209Z" fill="white"/>
<path d="M214.459 200.209H220.681V193.083H214.459V200.209Z" fill="white"/>
<path d="M236.039 210.919H242.261V203.793H236.039V210.919Z" fill="white"/>
<path d="M225.254 210.919H231.476V203.793H225.254V210.919Z" fill="white"/>
<path d="M214.459 210.919H220.681V203.793H214.459V210.919Z" fill="white"/>
<path d="M236.039 221.64H242.261V214.514H236.039V221.64Z" fill="white"/>
<path d="M225.254 221.64H231.476V214.514H225.254V221.64Z" fill="white"/>
<path d="M214.459 221.64H220.681V214.514H214.459V221.64Z" fill="white"/>
<path d="M236.039 232.361H242.261V225.235H236.039V232.361Z" fill="white"/>
<path d="M225.254 232.361H231.476V225.235H225.254V232.361Z" fill="white"/>
<path d="M214.459 232.361H220.681V225.235H214.459V232.361Z" fill="white"/>
<path d="M236.039 243.348H242.261V236.222H236.039V243.348Z" fill="white"/>
<path d="M225.254 243.348H231.476V236.222H225.254V243.348Z" fill="white"/>
<path d="M214.459 243.348H220.681V236.222H214.459V243.348Z" fill="white"/>
<path d="M236.039 254.335H242.261V247.209H236.039V254.335Z" fill="white"/>
<path d="M225.254 254.335H231.476V247.209H225.254V254.335Z" fill="white"/>
<path d="M214.459 254.335H220.681V247.209H214.459V254.335Z" fill="white"/>
<path d="M236.039 265.311H242.261V258.185H236.039V265.311Z" fill="white"/>
<path d="M225.254 265.311H231.476V258.185H225.254V265.311Z" fill="white"/>
<path d="M214.459 265.311H220.681V258.185H214.459V265.311Z" fill="white"/>
<path d="M236.039 276.298H242.261V269.172H236.039V276.298Z" fill="white"/>
<path d="M225.254 276.298H231.476V269.172H225.254V276.298Z" fill="white"/>
<path d="M214.459 276.298H220.681V269.172H214.459V276.298Z" fill="white"/>
<path d="M374.837 202.751H410.658V197.412H374.837V202.751Z" fill="white"/>
<path d="M374.837 213.121H410.658V207.782H374.837V213.121Z" fill="white"/>
<path d="M374.837 223.48H410.658V218.141H374.837V223.48Z" fill="white"/>
<path d="M374.837 233.839H410.658V228.5H374.837V233.839Z" fill="white"/>
<path d="M374.837 244.209H410.658V238.87H374.837V244.209Z" fill="white"/>
<path d="M374.837 254.569H410.658V249.229H374.837V254.569Z" fill="white"/>
<path d="M374.837 264.938H410.658V259.599H374.837V264.938Z" fill="white"/>
<path d="M374.837 275.287H410.658V269.948H374.837V275.287Z" fill="white"/>
<path d="M116.907 193.657H149.846V188.318H116.907V193.657Z" fill="white"/>
<path d="M116.907 204.027H149.846V198.688H116.907V204.027Z" fill="white"/>
<path d="M116.907 214.397H149.846V209.058H116.907V214.397Z" fill="white"/>
<path d="M116.907 224.756H149.846V219.417H116.907V224.756Z" fill="white"/>
<path d="M116.907 235.116H149.846V229.776H116.907V235.116Z" fill="white"/>
<path d="M116.907 245.486H149.846V240.146H116.907V245.486Z" fill="white"/>
<path d="M116.907 255.845H149.846V250.506H116.907V255.845Z" fill="white"/>
<path d="M116.907 266.215H149.846V260.876H116.907V266.215Z" fill="white"/>
<path d="M116.907 276.053H149.846V270.714H116.907V276.053Z" fill="white"/>
<path d="M116.907 285.902H149.846V280.562H116.907V285.902Z" fill="white"/>
<path d="M116.907 295.75H149.846V290.411H116.907V295.75Z" fill="white"/>
<path d="M116.907 305.589H149.846V300.249H116.907V305.589Z" fill="white"/>
<path d="M116.907 315.437H149.846V310.098H116.907V315.437Z" fill="white"/>
<path d="M63.6633 206.176H98.4531V200.836H63.6633V206.176Z" fill="white"/>
<path d="M63.6633 216.545H98.4531V211.206H63.6633V216.545Z" fill="white"/>
<path d="M63.6633 226.915H98.4531V221.576H63.6633V226.915Z" fill="white"/>
<path d="M63.6633 237.275H98.4531V231.936H63.6633V237.275Z" fill="white"/>
<path d="M63.6633 247.634H98.4531V242.295H63.6633V247.634Z" fill="white"/>
<path d="M63.6633 258.004H98.4531V252.665H63.6633V258.004Z" fill="white"/>
<path d="M63.6633 268.363H98.4531V263.024H63.6633V268.363Z" fill="white"/>
<path d="M63.6633 278.733H98.4531V273.394H63.6633V278.733Z" fill="white"/>
<path d="M63.6633 288.008H98.4531V282.668H63.6633V288.008Z" fill="white"/>
<path d="M63.6633 297.282H98.4531V291.943H63.6633V297.282Z" fill="white"/>
<path d="M63.6633 306.556H98.4531V301.217H63.6633V306.556Z" fill="white"/>
<path d="M273.338 185.702H284.399V180.543H273.338V185.702Z" fill="white"/>
<path d="M273.338 195.71H284.399V190.552H273.338V195.71Z" fill="white"/>
<path d="M273.338 205.718H284.399V200.56H273.338V205.718Z" fill="white"/>
<path d="M273.338 215.727H284.399V210.568H273.338V215.727Z" fill="white"/>
<path d="M273.338 225.735H284.399V220.576H273.338V225.735Z" fill="white"/>
<path d="M273.338 235.743H284.399V230.585H273.338V235.743Z" fill="white"/>
<path d="M273.338 245.751H284.399V240.593H273.338V245.751Z" fill="white"/>
<path d="M273.338 255.76H284.399V250.601H273.338V255.76Z" fill="white"/>
<path d="M258.289 185.702H269.351V180.543H258.289V185.702Z" fill="white"/>
<path d="M258.289 195.71H269.351V190.552H258.289V195.71Z" fill="white"/>
<path d="M258.289 205.718H269.351V200.56H258.289V205.718Z" fill="white"/>
<path d="M258.289 215.727H269.351V210.568H258.289V215.727Z" fill="white"/>
<path d="M258.289 225.735H269.351V220.576H258.289V225.735Z" fill="white"/>
<path d="M258.289 235.743H269.351V230.585H258.289V235.743Z" fill="white"/>
<path d="M258.289 245.751H269.351V240.593H258.289V245.751Z" fill="white"/>
<path d="M258.289 255.76H269.351V250.601H258.289V255.76Z" fill="white"/>
<path d="M345.312 151.55H356.841V143.414H345.312V151.55Z" fill="white"/>
<path d="M328.135 151.55H339.664V143.414H328.135V151.55Z" fill="white"/>
<path d="M345.312 163.494H356.841V155.358H345.312V163.494Z" fill="white"/>
<path d="M328.135 163.494H339.664V155.358H328.135V163.494Z" fill="white"/>
<path d="M345.312 175.449H356.841V167.312H345.312V175.449Z" fill="white"/>
<path d="M328.135 175.449H339.664V167.312H328.135V175.449Z" fill="white"/>
<path d="M345.312 187.393H356.841V179.256H345.312V187.393Z" fill="white"/>
<path d="M328.135 187.393H339.664V179.256H328.135V187.393Z" fill="white"/>
<path d="M345.312 199.347H356.841V191.211H345.312V199.347Z" fill="white"/>
<path d="M328.135 199.347H339.664V191.211H328.135V199.347Z" fill="white"/>
<path d="M345.312 211.302H356.841V203.166H345.312V211.302Z" fill="white"/>
<path d="M328.135 211.302H339.664V203.166H328.135V211.302Z" fill="white"/>
<path d="M345.312 223.246H356.841V215.11H345.312V223.246Z" fill="white"/>
<path d="M328.135 223.246H339.664V215.11H328.135V223.246Z" fill="white"/>
<path d="M345.312 235.201H356.841V227.064H345.312V235.201Z" fill="white"/>
<path d="M328.135 235.201H339.664V227.064H328.135V235.201Z" fill="white"/>
<path d="M306.831 175.449H318.36V167.312H306.831V175.449Z" fill="white"/>
<path d="M306.831 187.393H318.36V179.256H306.831V187.393Z" fill="white"/>
<path d="M306.831 199.347H318.36V191.211H306.831V199.347Z" fill="white"/>
<path d="M306.831 211.302H318.36V203.166H306.831V211.302Z" fill="white"/>
<path d="M306.831 223.246H318.36V215.11H306.831V223.246Z" fill="white"/>
<path d="M306.831 235.201H318.36V227.064H306.831V235.201Z" fill="white"/>
<path d="M345.312 247.006H356.841V238.87H345.312V247.006Z" fill="white"/>
<path d="M328.135 247.006H339.664V238.87H328.135V247.006Z" fill="white"/>
<path d="M306.831 247.006H318.36V238.87H306.831V247.006Z" fill="white"/>
<path d="M345.312 258.802H356.841V250.665H345.312V258.802Z" fill="white"/>
<path d="M328.135 258.802H339.664V250.665H328.135V258.802Z" fill="white"/>
<path d="M306.831 258.802H318.36V250.665H306.831V258.802Z" fill="white"/>
<path d="M345.312 270.607H356.841V262.471H345.312V270.607Z" fill="white"/>
<path d="M328.135 270.607H339.664V262.471H328.135V270.607Z" fill="white"/>
<path d="M306.831 270.607H318.36V262.471H306.831V270.607Z" fill="white"/>
<path d="M345.312 282.413H356.841V274.277H345.312V282.413Z" fill="white"/>
<path d="M328.135 282.413H339.664V274.277H328.135V282.413Z" fill="white"/>
<path d="M306.831 282.413H318.36V274.277H306.831V282.413Z" fill="white"/>
<path d="M345.312 294.219H356.841V286.083H345.312V294.219Z" fill="white"/>
<path d="M328.135 294.219H339.664V286.083H328.135V294.219Z" fill="white"/>
<path d="M306.831 294.219H318.36V286.083H306.831V294.219Z" fill="white"/>
<path d="M202.738 162.143H208.96V155.017H202.738V162.143Z" fill="white"/>
<path d="M191.953 162.143H198.175V155.017H191.953V162.143Z" fill="white"/>
<path d="M202.738 172.864H208.96V165.738H202.738V172.864Z" fill="white"/>
<path d="M191.953 172.864H198.175V165.738H191.953V172.864Z" fill="white"/>
<path d="M202.738 183.585H208.96V176.459H202.738V183.585Z" fill="white"/>
<path d="M191.953 183.585H198.175V176.459H191.953V183.585Z" fill="white"/>
<path d="M202.738 194.317H208.96V187.191H202.738V194.317Z" fill="white"/>
<path d="M191.953 194.317H198.175V187.191H191.953V194.317Z" fill="white"/>
<path d="M202.738 205.303H208.96V198.177H202.738V205.303Z" fill="white"/>
<path d="M191.953 205.303H198.175V198.177H191.953V205.303Z" fill="white"/>
<path d="M202.738 216.28H208.96V209.154H202.738V216.28Z" fill="white"/>
<path d="M191.953 216.28H198.175V209.154H191.953V216.28Z" fill="white"/>
<path d="M202.738 227.266H208.96V220.14H202.738V227.266Z" fill="white"/>
<path d="M191.953 227.266H198.175V220.14H191.953V227.266Z" fill="white"/>
<path d="M202.738 238.253H208.96V231.127H202.738V238.253Z" fill="white"/>
<path d="M191.953 238.253H198.175V231.127H191.953V238.253Z" fill="white"/>
<path d="M202.738 249.357H208.96V242.231H202.738V249.357Z" fill="white"/>
<path d="M191.953 249.357H198.175V242.231H191.953V249.357Z" fill="white"/>
<path d="M202.738 260.45H208.96V253.324H202.738V260.45Z" fill="white"/>
<path d="M191.953 260.45H198.175V253.324H191.953V260.45Z" fill="white"/>
<path d="M202.738 271.554H208.96V264.428H202.738V271.554Z" fill="white"/>
<path d="M191.953 271.554H198.175V264.428H191.953V271.554Z" fill="white"/>
<path d="M202.738 282.668H208.96V275.542H202.738V282.668Z" fill="white"/>
<path d="M191.953 282.668H198.175V275.542H191.953V282.668Z" fill="white"/>
<path d="M50.7624 164.568H56.9844V156.177H50.7624V164.568Z" fill="white"/>
<path d="M39.988 164.568H46.21V156.176H39.988V164.568Z" fill="white"/>
<path d="M50.7624 177.204H56.9844V168.812H50.7624V177.204Z" fill="white"/>
<path d="M39.988 177.204H46.21V168.812H39.988V177.204Z" fill="white"/>
<path d="M50.7624 189.828H56.9844V181.437H50.7624V189.828Z" fill="white"/>
<path d="M39.988 189.828H46.21V181.437H39.988V189.828Z" fill="white"/>
<path d="M50.7624 202.464H56.9844V194.072H50.7624V202.464Z" fill="white"/>
<path d="M39.988 202.464H46.21V194.072H39.988V202.464Z" fill="white"/>
<path d="M50.7624 215.407H56.9844V207.016H50.7624V215.407Z" fill="white"/>
<path d="M39.988 215.407H46.21V207.016H39.988V215.407Z" fill="white"/>
<path d="M50.7624 228.351H56.9844V219.96H50.7624V228.351Z" fill="white"/>
<path d="M39.988 228.351H46.21V219.96H39.988V228.351Z" fill="white"/>
<path d="M50.7624 241.284H56.9844V232.893H50.7624V241.284Z" fill="white"/>
<path d="M39.988 241.284H46.21V232.893H39.988V241.284Z" fill="white"/>
<path d="M50.7624 254.239H56.9844V245.847H50.7624V254.239Z" fill="white"/>
<path d="M39.988 254.239H46.21V245.847H39.988V254.239Z" fill="white"/>
<path d="M50.7624 267.321H56.9844V258.929H50.7624V267.321Z" fill="white"/>
<path d="M39.988 267.321H46.21V258.929H39.988V267.321Z" fill="white"/>
<path d="M50.7624 280.392H56.9844V272.001H50.7624V280.392Z" fill="white"/>
<path d="M39.988 280.392H46.21V272.001H39.988V280.392Z" fill="white"/>
<path d="M50.7624 293.474H56.9844V285.083H50.7624V293.474Z" fill="white"/>
<path d="M39.988 293.474H46.21V285.083H39.988V293.474Z" fill="white"/>
<path d="M50.7624 306.556H56.9844V298.165H50.7624V306.556Z" fill="white"/>
<path d="M39.988 306.556H46.21V298.165H39.988V306.556Z" fill="white"/>
<path d="M179.658 162.143H185.88V155.017H179.658V162.143Z" fill="white"/>
<path d="M168.874 162.143H175.096V155.017H168.874V162.143Z" fill="white"/>
<path d="M179.658 151.156H185.88V144.03H179.658V151.156Z" fill="white"/>
<path d="M168.874 151.156H175.096V144.03H168.874V151.156Z" fill="white"/>
<path d="M179.658 140.17H185.88V133.044H179.658V140.17Z" fill="white"/>
<path d="M168.874 140.17H175.096V133.044H168.874V140.17Z" fill="white"/>
<path d="M179.658 172.864H185.88V165.738H179.658V172.864Z" fill="white"/>
<path d="M168.874 172.864H175.096V165.738H168.874V172.864Z" fill="white"/>
<path d="M179.658 183.585H185.88V176.459H179.658V183.585Z" fill="white"/>
<path d="M168.874 183.585H175.096V176.459H168.874V183.585Z" fill="white"/>
<path d="M179.658 194.317H185.88V187.191H179.658V194.317Z" fill="white"/>
<path d="M168.874 194.317H175.096V187.191H168.874V194.317Z" fill="white"/>
<path d="M179.658 205.303H185.88V198.177H179.658V205.303Z" fill="white"/>
<path d="M168.874 205.303H175.096V198.177H168.874V205.303Z" fill="white"/>
<path d="M179.658 216.28H185.88V209.154H179.658V216.28Z" fill="white"/>
<path d="M168.874 216.28H175.096V209.154H168.874V216.28Z" fill="white"/>
<path d="M179.658 227.266H185.88V220.14H179.658V227.266Z" fill="white"/>
<path d="M168.874 227.266H175.096V220.14H168.874V227.266Z" fill="white"/>
<path d="M179.658 238.253H185.88V231.127H179.658V238.253Z" fill="white"/>
<path d="M168.874 238.253H175.096V231.127H168.874V238.253Z" fill="white"/>
<path d="M179.658 249.357H185.88V242.231H179.658V249.357Z" fill="white"/>
<path d="M168.874 249.357H175.096V242.231H168.874V249.357Z" fill="white"/>
<path d="M179.658 260.45H185.88V253.324H179.658V260.45Z" fill="white"/>
<path d="M168.874 260.45H175.096V253.324H168.874V260.45Z" fill="white"/>
<path d="M179.658 271.554H185.88V264.428H179.658V271.554Z" fill="white"/>
<path d="M168.874 271.554H175.096V264.428H168.874V271.554Z" fill="white"/>
<path d="M179.658 282.668H185.88V275.542H179.658V282.668Z" fill="white"/>
<path d="M168.874 282.668H175.096V275.542H168.874V282.668Z" fill="white"/>
<path d="M457.69 113.293H343.174C343.174 113.293 354.533 82.2788 372.008 82.2788C389.482 82.2788 394.949 103.689 394.949 103.689C394.949 103.689 406.744 92.0531 416.433 92.0531C426.123 92.0531 434.514 107.422 434.514 107.422C434.514 107.422 448.224 99.1578 457.69 113.293Z" fill="#EBEBEB"/>
<path d="M393.598 51.956H340.078C340.078 51.956 352.033 34.6302 361.456 34.6302C370.879 34.6302 373.666 46.1808 373.666 46.1808C373.666 46.1808 380.313 40.7884 386.429 41.7563C392.545 42.7241 393.598 51.956 393.598 51.956Z" fill="#EBEBEB"/>
<path d="M144.772 104.061H40.541C40.541 104.061 54.8143 72.1535 70.0874 70.1965C85.3604 68.2395 92.6566 93.8718 92.6566 93.8718C92.6566 93.8718 102.505 84.7994 110.248 84.7994C117.991 84.7994 123.979 96.7541 123.979 96.7541C123.979 96.7541 139.454 88.5645 144.772 104.061Z" fill="#EBEBEB"/>
<path d="M243.846 25.175H173.426C173.426 25.175 185.519 2.08462 198.643 1.77618C211.768 1.46774 218.66 19.2508 218.66 19.2508C218.66 19.2508 239.07 2.83977 243.846 25.175Z" fill="#EBEBEB"/>
<path d="M249.407 399.854C345.176 399.854 422.813 394.716 422.813 388.378C422.813 382.04 345.176 376.902 249.407 376.902C153.637 376.902 76 382.04 76 388.378C76 394.716 153.637 399.854 249.407 399.854Z" fill="#EBEBEB"/>
<path d="M498.48 344.58L436.165 344.835L373.86 344.931L249.24 345.101L124.62 344.931L62.3153 344.835L0 344.58L62.3153 344.314L124.62 344.218L249.24 344.048L373.86 344.218L436.165 344.314L498.48 344.58Z" fill="#263238"/>
<path d="M299.331 180.075C317.327 198.794 371.389 282.105 375.601 284.593C375.601 284.593 375.601 339.081 345.491 328.2C315.381 317.32 287.781 219.566 281.888 188.403C278.783 171.949 284.632 164.802 299.331 180.075Z" fill="#D3766A"/>
<path d="M294.747 244.486L349.926 238.211C349.926 238.211 315.7 192.806 298.012 176.597C279.57 159.708 270.529 162.079 279.08 194.072C287.674 226.256 294.747 244.486 294.747 244.486Z" fill="#78DA90"/>
<path d="M292.151 214.429C291.545 215.951 291.158 217.552 291.003 219.183C292.928 216.523 294.126 213.407 294.481 210.143C293.496 211.448 292.711 212.893 292.151 214.429ZM323.144 215.673C321.626 215.066 320.029 214.679 318.401 214.525C321.056 216.452 324.169 217.651 327.43 218.003C326.126 217.016 324.681 216.231 323.144 215.673ZM314.923 237.136C314.273 235.636 313.414 234.236 312.37 232.978C312.614 234.593 313.087 236.165 313.774 237.647C314.403 239.156 315.256 240.562 316.305 241.816C316.067 240.199 315.602 238.624 314.923 237.136ZM282.547 168.004C282.271 167.419 281.994 166.844 281.675 166.27C281.297 166.233 280.916 166.233 280.537 166.27C280.792 167.046 281.08 167.791 281.399 168.535C282.037 170.042 282.894 171.447 283.941 172.705C283.701 171.079 283.232 169.497 282.547 168.004ZM346.139 233.244L345.075 233.669C343.57 234.317 342.163 235.173 340.895 236.211C342.517 235.971 344.096 235.501 345.586 234.818C346.011 234.626 346.426 234.424 346.841 234.201L346.139 233.244ZM303.596 189.413C302.094 190.058 300.691 190.91 299.426 191.945C301.048 191.712 302.628 191.246 304.117 190.562C305.62 189.917 307.024 189.061 308.286 188.02C306.656 188.254 305.069 188.724 303.574 189.413H303.596ZM299.894 189.509C299.832 189.552 299.771 189.598 299.714 189.647H299.905C299.905 189.647 299.873 189.541 299.873 189.509H299.894Z" fill="white"/>
<path d="M297.396 234.563C298.683 234.265 300.033 234.148 301.342 233.967L305.404 233.403C308.138 233.02 310.882 232.68 313.626 232.34C319.114 231.701 324.602 231.031 330.101 230.489C331.611 230.34 333.132 230.191 334.642 230.074C336.153 229.957 337.833 229.957 339.428 229.84C339.524 229.84 339.524 229.978 339.428 229.989C338.078 230.191 336.738 230.5 335.387 230.712C334.036 230.925 332.6 231.117 331.207 231.287C328.474 231.638 325.719 231.957 322.975 232.265C317.572 232.85 312.158 233.467 306.734 233.946L302.203 234.329C300.618 234.467 299.012 234.701 297.417 234.69C297.405 234.686 297.394 234.678 297.385 234.668C297.377 234.658 297.371 234.645 297.369 234.633C297.367 234.62 297.368 234.606 297.373 234.594C297.378 234.582 297.385 234.571 297.396 234.563Z" fill="#263238"/>
<path opacity="0.1" d="M321.517 241.444L294.758 244.486C294.758 244.486 287.685 226.256 279.08 194.072C275.453 180.501 274.996 172.258 277.081 168.546L321.517 241.444Z" fill="black"/>
<path d="M310.052 357.97H226.125C225.434 355.269 224.764 352.652 224.093 349.993C223.328 346.983 222.573 344.048 221.849 341.187C221.69 340.549 221.52 339.91 221.36 339.283C220.807 337.092 220.265 334.965 219.733 332.901C219.414 331.636 219.095 330.391 218.786 329.158C218.478 327.924 218.148 326.669 217.84 325.467C217.755 325.148 217.68 324.829 217.595 324.52L217.34 323.457L217.021 322.212C216.904 321.776 216.797 321.351 216.691 320.925C216.478 320.117 216.276 319.319 216.085 318.543C215.787 317.394 215.5 316.267 215.223 315.171C215.106 314.693 214.979 314.214 214.862 313.746C214.66 312.981 214.468 312.236 214.287 311.502C214.16 311.013 214.043 310.534 213.926 310.066C213.429 308.138 212.968 306.33 212.543 304.642C212.426 304.195 212.32 303.759 212.203 303.334C212.022 302.6 211.841 301.898 211.671 301.207C211.55 300.781 211.444 300.366 211.352 299.962C210.98 298.516 210.639 297.197 210.352 296.038C210.267 295.729 210.192 295.431 210.118 295.144C209.927 294.378 209.746 293.698 209.597 293.092C209.533 292.847 209.48 292.613 209.416 292.4L209.246 291.73C209.246 291.581 209.171 291.432 209.14 291.305L208.991 290.73C208.991 290.638 208.969 290.553 208.927 290.475L208.735 289.72H290.429C290.429 289.72 293.12 298.994 297.428 313.948C298.3 316.99 299.246 320.33 300.257 323.765C303.118 333.742 306.457 345.377 310.052 357.97Z" fill="#37474F"/>
<path d="M239.866 357.97H237.739C234.633 345.115 231.623 332.235 228.709 319.33C228 316.189 227.291 313.048 226.582 309.907L226.391 309.024C226.387 308.993 226.395 308.963 226.412 308.937C226.429 308.912 226.455 308.893 226.485 308.886C226.515 308.878 226.546 308.881 226.574 308.895C226.602 308.909 226.623 308.932 226.635 308.96C226.635 309.056 226.688 309.152 226.72 309.247C227.663 312.622 228.603 316.001 229.539 319.383C233.134 332.21 236.576 345.072 239.866 357.97Z" fill="#263238"/>
<path d="M287.781 289.731L284.175 307.811L281.219 322.617L276.188 347.845L275.667 350.429L274.805 354.737L274.135 357.97H226.114C225.434 355.258 224.753 352.652 224.093 349.993C223.328 346.983 222.573 344.048 221.849 341.187C221.69 340.549 221.52 339.91 221.36 339.283C220.807 337.092 220.265 334.965 219.733 332.901C219.414 331.636 219.095 330.391 218.786 329.158C218.478 327.924 218.148 326.669 217.84 325.467C217.755 325.148 217.68 324.829 217.595 324.52L217.34 323.457L217.021 322.212C216.904 321.776 216.797 321.351 216.691 320.925C216.478 320.117 216.276 319.319 216.085 318.543C215.787 317.394 215.5 316.267 215.223 315.171C215.096 314.682 214.979 314.214 214.862 313.746C214.66 312.981 214.468 312.236 214.287 311.502C214.16 311.013 214.043 310.534 213.926 310.066C213.429 308.138 212.968 306.33 212.543 304.642C212.426 304.195 212.32 303.759 212.203 303.334C212.022 302.6 211.841 301.898 211.671 301.207C211.55 300.781 211.444 300.366 211.352 299.962C210.98 298.516 210.639 297.197 210.352 296.038C210.267 295.729 210.192 295.431 210.118 295.144C209.927 294.378 209.746 293.698 209.597 293.092C209.533 292.847 209.48 292.613 209.416 292.4L209.246 291.73C209.246 291.581 209.171 291.432 209.14 291.305L208.991 290.73C208.991 290.638 208.969 290.553 208.927 290.475L208.735 289.72L287.781 289.731Z" fill="#263238"/>
<path d="M287.791 289.699C287.791 290.145 287.451 295.017 286.664 302.462C286.441 304.589 286.175 307.014 285.866 309.566C285.388 313.597 284.803 318.075 284.058 322.744C282.803 330.944 281.165 339.889 279.038 348.632C278.283 351.823 277.453 354.896 276.57 357.949H171.116C172.361 341.878 173.499 327.339 174.403 315.884C175.668 299.76 176.53 289.667 176.53 289.667H272.189L287.791 289.699Z" fill="#37474F"/>
<path d="M287.568 299.388C287.451 303.164 287.291 306.929 287.046 310.683C286.791 314.757 286.419 318.82 285.887 322.882C285.887 323.031 285.887 323.18 285.834 323.329C285.338 327.137 284.767 330.934 284.122 334.72C283.515 338.251 283.058 342.059 281.505 345.356C280.915 346.62 280.076 347.753 279.038 348.685C278.088 349.554 276.924 350.156 275.666 350.429C275.46 350.481 275.25 350.517 275.039 350.536H274.858C274.897 350.558 274.928 350.591 274.949 350.63C274.97 350.67 274.979 350.714 274.975 350.759C274.975 352.025 274.975 353.312 274.826 354.567C274.826 354.62 274.826 354.673 274.826 354.726C274.698 355.79 274.496 356.906 274.294 357.991H272.486V357.927C272.805 356.736 273.071 355.534 273.369 354.333C273.667 353.131 274.092 351.908 274.379 350.663C274.395 350.617 274.425 350.576 274.464 350.546C273.317 350.601 272.179 350.304 271.206 349.693C270.232 349.083 269.469 348.189 269.019 347.132C268.565 345.515 268.536 343.808 268.934 342.176C269.263 340.049 269.582 337.858 269.912 335.699C270.529 331.731 271.327 327.807 272.039 323.861L272.358 322.064C273.773 314.033 275.251 306.003 277.027 298.048C277.091 297.718 277.166 297.388 277.24 297.059C277.315 296.729 277.644 296.899 277.623 297.112C277.57 297.644 277.517 298.175 277.453 298.718C277.141 301.774 276.786 304.816 276.389 307.843C275.879 311.406 275.528 314.991 275.028 318.554C274.858 319.766 274.688 320.979 274.507 322.191C273.688 328.051 272.837 333.891 271.837 339.751C271.369 342.463 269.71 347.324 273.581 348.164C274.476 348.362 275.411 348.246 276.23 347.834C277.954 346.795 279.242 345.167 279.857 343.25C280.814 340.058 281.508 336.792 281.931 333.486C282.569 329.941 283.136 326.364 283.632 322.755C284.27 318.281 284.937 313.81 285.632 309.343C285.979 307.067 286.334 304.791 286.695 302.515L287.206 299.324C287.217 299.101 287.568 299.165 287.568 299.388Z" fill="#263238"/>
<path d="M194.25 327.424C198.641 327.378 203.01 326.789 207.257 325.669C209.214 325.169 211.15 324.542 213.075 323.914C214.982 323.388 216.767 322.492 218.329 321.276C221.286 318.724 222.658 314.714 223.945 311.14C225.342 307.117 226.475 303.006 227.338 298.835C227.338 298.633 227.678 298.707 227.689 298.899C227.791 303.616 227.192 308.322 225.912 312.863C224.849 316.724 223.424 321.021 220.307 323.723C217.191 326.424 212.586 327.573 208.385 328.083C203.674 328.631 198.912 328.567 194.218 327.892C194.156 327.888 194.098 327.859 194.057 327.812C194.016 327.765 193.995 327.704 194 327.642C194.004 327.58 194.033 327.522 194.079 327.481C194.126 327.44 194.187 327.42 194.25 327.424Z" fill="#263238"/>
<path d="M186.921 298.963C186.687 304.862 186.438 310.768 186.176 316.682C185.573 330.445 184.91 344.207 184.187 357.97H182.209C183.117 344.179 184.07 330.395 185.07 316.618C185.503 310.726 185.949 304.837 186.41 298.952C186.412 298.884 186.44 298.82 186.489 298.773C186.538 298.726 186.603 298.7 186.671 298.702C186.738 298.703 186.803 298.732 186.85 298.78C186.897 298.829 186.922 298.895 186.921 298.963Z" fill="#263238"/>
<path d="M305.946 333.38L162.884 322.531C162.884 322.531 191.664 208.462 248.492 166.525C263.02 155.815 278.921 162.686 286.079 170.694C304.266 191.094 306.372 332.923 305.946 333.38Z" fill="#78DA90"/>
<path d="M255.107 171.715C254.507 173.236 254.121 174.832 253.959 176.459C254.938 175.16 255.726 173.727 256.299 172.205C256.899 170.684 257.285 169.088 257.447 167.461C256.472 168.763 255.684 170.195 255.107 171.715ZM239.579 233.254C238.967 234.774 238.584 236.376 238.441 238.009C240.357 235.344 241.551 232.23 241.908 228.968C240.932 230.279 240.147 231.722 239.579 233.254ZM188.463 259.642C187.858 261.164 187.471 262.765 187.315 264.396C189.239 261.736 190.438 258.62 190.792 255.356C189.824 256.671 189.041 258.114 188.463 259.642ZM229.72 298.516C229.102 300.031 228.715 301.63 228.571 303.259C230.487 300.595 231.681 297.481 232.038 294.219C231.063 295.532 230.282 296.979 229.72 298.516ZM292.152 214.408C291.545 215.93 291.159 217.531 291.003 219.162C292.928 216.502 294.127 213.386 294.481 210.121C293.495 211.433 292.71 212.885 292.152 214.429V214.408ZM266.69 291.783C266.071 293.299 265.681 294.897 265.53 296.527C266.508 295.229 267.293 293.796 267.86 292.273C268.465 290.754 268.852 289.157 269.008 287.529C268.034 288.828 267.253 290.261 266.69 291.783ZM215.138 211.515C214.531 213.033 214.145 214.631 213.989 216.258C215.917 213.601 217.113 210.483 217.456 207.218C216.477 208.529 215.696 209.976 215.138 211.515ZM272.295 191.094C270.778 190.481 269.18 190.094 267.551 189.945C268.852 190.917 270.284 191.698 271.806 192.264C273.325 192.879 274.927 193.266 276.56 193.413C275.257 192.438 273.821 191.657 272.295 191.094ZM288.504 242.369C286.986 241.759 285.389 241.372 283.76 241.221C285.058 242.197 286.491 242.978 288.015 243.539C289.531 244.153 291.129 244.543 292.758 244.698C291.459 243.734 290.026 242.963 288.504 242.412V242.369ZM292.854 303.653C291.335 303.046 289.738 302.66 288.11 302.504C289.407 303.484 290.841 304.268 292.365 304.833C293.884 305.437 295.481 305.824 297.108 305.982C295.804 305.025 294.372 304.255 292.854 303.695V303.653ZM191.016 298.611C189.498 298.004 187.9 297.617 186.272 297.463C188.927 299.39 192.04 300.589 195.302 300.941C193.99 299.977 192.547 299.207 191.016 298.654V298.611ZM227.826 259.259C226.308 258.649 224.711 258.259 223.083 258.1C224.382 259.078 225.815 259.866 227.337 260.44C228.858 261.04 230.454 261.426 232.081 261.588C230.779 260.624 229.347 259.85 227.826 259.291V259.259ZM282.548 167.972C282.399 167.653 282.25 167.344 282.09 167.036C281.569 166.642 281.027 166.259 280.442 165.887C280.705 166.779 281.025 167.652 281.399 168.503C282.038 170.01 282.894 171.415 283.941 172.673C283.699 171.058 283.23 169.487 282.548 168.004V167.972ZM240.738 201.049C240.097 199.544 239.241 198.139 238.196 196.88C238.708 200.124 240.065 203.176 242.132 205.729C241.898 204.109 241.428 202.533 240.738 201.049ZM277.655 326.903C277.014 325.4 276.161 323.996 275.124 322.734C275.359 324.351 275.825 325.927 276.507 327.413C277.113 328.812 277.896 330.127 278.836 331.327H279.006C278.761 329.798 278.306 328.309 277.655 326.903ZM264.073 252.782C263.426 251.279 262.571 249.876 261.531 248.612C262.06 251.85 263.411 254.897 265.456 257.461C265.221 255.844 264.755 254.268 264.073 252.782ZM166.628 309.301C166.564 309.524 166.5 309.747 166.426 309.96C166.564 310.109 166.692 310.268 166.819 310.417C166.777 310.052 166.713 309.69 166.628 309.332V309.301ZM209.171 280.924C208.526 279.424 207.67 278.024 206.629 276.765C207.143 280.006 208.5 283.054 210.564 285.604C210.311 283.995 209.831 282.43 209.139 280.956L209.171 280.924ZM218.297 321.872C217.651 320.369 216.795 318.965 215.755 317.703C216.281 320.946 217.637 323.998 219.69 326.562C219.44 324.953 218.96 323.388 218.265 321.915L218.297 321.872ZM289.844 272.607C288.342 273.255 286.939 274.11 285.675 275.149C287.293 274.91 288.869 274.441 290.354 273.756C291.863 273.114 293.271 272.258 294.534 271.214C292.899 271.457 291.309 271.937 289.812 272.639L289.844 272.607ZM176.998 278.818L176.455 280.286C177.602 279.732 178.675 279.036 179.646 278.212C178.733 278.331 177.835 278.545 176.966 278.85L176.998 278.818ZM249.938 314.257C248.435 314.897 247.031 315.749 245.769 316.788C247.39 316.551 248.969 316.086 250.459 315.405C251.962 314.754 253.365 313.895 254.629 312.853C252.992 313.094 251.4 313.578 249.906 314.289L249.938 314.257ZM184.709 323.744L183.975 324.095L186.474 324.286C187.519 323.759 188.497 323.109 189.389 322.351C187.758 322.6 186.172 323.08 184.677 323.776L184.709 323.744ZM209.767 236.286C208.268 236.94 206.866 237.796 205.598 238.827C208.839 238.304 211.891 236.952 214.457 234.903C212.823 235.143 211.232 235.619 209.735 236.317L209.767 236.286ZM246.439 277.021C244.936 277.67 243.532 278.529 242.27 279.573C245.514 279.052 248.568 277.696 251.13 275.638C249.496 275.882 247.906 276.358 246.407 277.053L246.439 277.021ZM265.584 221.023C264.084 221.675 262.681 222.53 261.414 223.565C264.656 223.051 267.707 221.698 270.263 219.64C268.622 219.882 267.025 220.358 265.52 221.055L265.584 221.023Z" fill="white"/>
<path d="M277.974 194.529C269.721 193.306 261.34 176.65 259.893 165.291C259.797 164.504 272.656 139.967 274.666 134.852C275.081 133.788 303.755 155.443 303.755 155.443C303.755 155.443 296.31 164.93 292.832 173.896C292.588 174.64 285.951 195.699 277.974 194.529Z" fill="#D3766A"/>
<path d="M303.798 155.443C303.798 155.443 296.353 164.93 292.865 173.885C292.801 174.066 292.375 175.385 291.674 177.267C276.932 169.822 270.923 156.527 268.498 147.753C271.285 142.169 273.88 136.926 274.709 134.852C275.124 133.799 303.798 155.443 303.798 155.443Z" fill="#263238"/>
<path d="M281.293 94.9992C272.901 104.71 264.51 139.734 269.306 150.497C276.273 166.089 294.832 175.459 309.85 165.493C324.453 155.826 334.578 109.985 328.548 99.4769C319.678 83.9911 293.673 80.6621 281.293 94.9992Z" fill="#D3766A"/>
<path d="M303.713 123.45C302.649 123.535 301.586 123.45 300.522 123.45C299.393 123.604 298.245 123.379 297.257 122.812C296.981 122.573 296.792 122.249 296.719 121.891C296.646 121.534 296.693 121.162 296.853 120.834C297.268 120.234 297.836 119.756 298.498 119.449C299.16 119.143 299.892 119.018 300.618 119.089C302.109 119.002 303.58 119.472 304.744 120.408C304.991 120.64 305.165 120.938 305.247 121.267C305.329 121.595 305.315 121.94 305.206 122.261C305.097 122.581 304.899 122.864 304.634 123.075C304.369 123.285 304.049 123.416 303.713 123.45Z" fill="#263238"/>
<path d="M302.777 128.587C302.777 128.491 302.564 128.662 302.543 128.768C302.15 131.161 301.288 133.841 298.98 134.203C298.906 134.203 298.884 134.33 298.98 134.341C301.671 134.49 302.777 130.927 302.777 128.587Z" fill="#263238"/>
<path d="M301.139 125.673C297.364 124.609 295.534 132.257 299.012 133.224C302.49 134.192 304.298 126.556 301.139 125.673Z" fill="#263238"/>
<path d="M316.498 131.533C316.498 131.448 316.657 131.693 316.636 131.789C315.998 134.128 315.657 136.926 317.604 138.17C317.667 138.17 317.604 138.33 317.55 138.298C315.03 137.362 315.519 133.66 316.498 131.533Z" fill="#263238"/>
<path d="M319.199 129.576C323.071 130.193 321.55 137.883 317.965 137.309C314.381 136.734 315.955 129.055 319.199 129.576Z" fill="#263238"/>
<path d="M323.124 125.79C322.146 125.336 321.195 124.828 320.273 124.269C319.192 123.87 318.275 123.121 317.668 122.142C317.534 121.8 317.519 121.423 317.623 121.071C317.726 120.718 317.944 120.411 318.242 120.195C319.55 119.345 321.06 119.738 322.401 120.398C323.767 121.02 324.854 122.126 325.453 123.503C325.579 123.827 325.607 124.181 325.534 124.52C325.461 124.86 325.29 125.171 325.042 125.414C324.794 125.657 324.48 125.823 324.139 125.889C323.798 125.956 323.445 125.922 323.124 125.79Z" fill="#263238"/>
<path d="M294.864 149.061C295.289 149.752 295.672 150.646 296.512 150.922C297.399 151.114 298.316 151.114 299.203 150.922C299.221 150.921 299.239 150.925 299.254 150.934C299.27 150.943 299.282 150.957 299.289 150.974C299.296 150.99 299.298 151.009 299.294 151.026C299.29 151.044 299.28 151.059 299.267 151.071C298.819 151.454 298.276 151.708 297.696 151.807C297.115 151.907 296.519 151.847 295.97 151.635C295.517 151.396 295.145 151.028 294.903 150.577C294.66 150.126 294.558 149.613 294.608 149.104C294.608 148.965 294.8 148.955 294.864 149.061Z" fill="#263238"/>
<path d="M299.033 142.584C299.412 143.661 300.01 144.648 300.787 145.485C301.565 146.321 302.506 146.988 303.553 147.444C304.463 147.855 305.426 148.134 306.414 148.274C306.599 148.316 306.788 148.337 306.978 148.338C307.159 148.349 307.34 148.349 307.52 148.338C307.652 148.346 307.782 148.309 307.89 148.234C307.998 148.159 308.078 148.049 308.116 147.923C308.121 147.838 308.121 147.753 308.116 147.668V147.455C308.595 145.647 309.084 142.839 309.084 142.839C309.669 143.328 312.689 145.668 312.87 144.7C314.285 136.724 315.848 127.853 315.572 119.611C315.572 119.551 315.548 119.494 315.506 119.453C315.464 119.411 315.408 119.387 315.348 119.387C315.289 119.387 315.232 119.411 315.19 119.453C315.149 119.494 315.125 119.551 315.125 119.611C313.466 127.226 313.157 135.086 311.605 142.765C310.564 141.91 309.408 141.208 308.169 140.68C307.893 140.68 307.329 146.126 307.042 146.913C307.044 146.941 307.044 146.969 307.042 146.998C303.851 146.657 301.809 145.179 299.331 142.424C299.171 142.244 298.937 142.361 299.033 142.584Z" fill="#263238"/>
<path d="M305.563 147.093C304.253 148.151 302.693 148.854 301.033 149.136C300.124 149.262 299.198 149.102 298.384 148.678C296.619 147.732 296.98 145.987 297.682 144.583C298.064 143.843 298.532 143.151 299.076 142.52C300.694 144.699 302.968 146.301 305.563 147.093Z" fill="#263238"/>
<path d="M301.033 149.136C300.124 149.262 299.198 149.102 298.384 148.678C296.619 147.732 296.98 145.987 297.682 144.583C299.661 145.275 301.33 147.136 301.033 149.136Z" fill="#FF97B8"/>
<path d="M331.759 113.112C316.869 119.345 301.809 102.104 301.809 102.104C300.103 104.721 297.597 106.716 294.665 107.793C291.732 108.87 288.531 108.971 285.536 108.081C285.536 108.081 278.389 129.64 272.56 128.343C263.701 126.449 267.243 95.7543 271.252 90.4152C275.262 85.076 283.132 85.0972 283.132 85.0972C283.132 85.0972 284.632 80.6196 290.992 77.5671C298.012 74.1849 317.582 84.7888 317.582 84.7888C319.358 82.2414 321.708 80.1466 324.442 78.6732C325.102 78.3023 325.831 78.0692 326.583 77.9881C327.336 77.9069 328.097 77.9794 328.821 78.2012C329.545 78.4229 330.217 78.7893 330.795 79.2781C331.373 79.767 331.846 80.368 332.185 81.045C330.732 82.4426 329.616 84.1519 328.92 86.0438C326.527 92.2977 331.813 93.3932 332.993 87.5116C333.506 85.3288 333.219 83.0344 332.185 81.045C335.588 77.7479 340.109 77.3863 342.268 79.9814C346.235 84.7356 344.15 107.943 331.759 113.112Z" fill="#263238"/>
<path d="M295.236 140.425C293.404 139.837 291.774 138.747 290.531 137.279C289.288 135.81 288.482 134.022 288.205 132.118C287.929 130.214 288.192 128.27 288.966 126.509C289.74 124.747 290.993 123.239 292.582 122.154C294.172 121.07 296.034 120.453 297.956 120.375C299.878 120.297 301.784 120.761 303.456 121.713C305.128 122.664 306.499 124.067 307.413 125.76C308.328 127.453 308.748 129.368 308.627 131.289C308.526 132.848 308.072 134.364 307.298 135.721C306.524 137.079 305.45 138.242 304.16 139.123C302.869 140.003 301.394 140.578 299.848 140.804C298.302 141.03 296.725 140.9 295.236 140.425ZM301.107 122.184C300.417 121.961 299.703 121.822 298.98 121.77C296.713 121.609 294.47 122.319 292.709 123.755C290.947 125.191 289.801 127.246 289.502 129.499C289.204 131.752 289.776 134.034 291.103 135.879C292.429 137.724 294.41 138.994 296.64 139.429C298.871 139.864 301.184 139.432 303.106 138.22C305.029 137.008 306.417 135.108 306.987 132.908C307.557 130.708 307.265 128.373 306.173 126.381C305.08 124.388 303.268 122.887 301.107 122.184Z" fill="#78DA90"/>
<path d="M317.901 144.722C314.221 143.339 312.307 138.34 313.647 133.118C314.218 130.62 315.561 128.364 317.486 126.673C318.264 125.889 319.232 125.32 320.295 125.022C321.358 124.724 322.481 124.707 323.553 124.973C324.624 125.239 325.609 125.778 326.41 126.539C327.211 127.299 327.801 128.254 328.122 129.31C329.023 131.71 329.154 134.331 328.494 136.809C327.133 142.297 322.698 145.945 318.603 144.924C318.363 144.878 318.128 144.81 317.901 144.722ZM323.655 126.481L323.155 126.332C322.296 126.159 321.407 126.195 320.565 126.437C319.723 126.68 318.951 127.122 318.316 127.726C316.617 129.233 315.431 131.234 314.923 133.448C313.742 138.213 315.497 142.765 318.869 143.594C322.24 144.424 325.92 141.233 327.101 136.479C327.693 134.284 327.581 131.959 326.782 129.832C326.525 129.085 326.114 128.401 325.575 127.824C325.036 127.246 324.382 126.789 323.655 126.481Z" fill="#78DA90"/>
<path d="M308.063 132.395L307.403 131.193C309.18 130.204 313.051 129.183 314.997 132.256L313.827 132.98C312.094 130.225 308.222 132.299 308.063 132.395Z" fill="#78DA90"/>
<path d="M262.669 126.12L261.605 125.269C262.01 124.769 265.594 120.376 268.689 120.483C271.593 120.589 289.312 125.801 290.067 126.066L289.673 127.385C284.589 125.875 270.891 121.929 268.646 121.855C266.583 121.78 263.637 124.907 262.669 126.12Z" fill="#78DA90"/>
<path d="M276.358 126.343C276.358 126.343 273.497 112.644 267.583 113.229C261.67 113.814 260.67 131.438 265.403 135.936C265.968 136.555 266.653 137.053 267.415 137.4C268.178 137.747 269.003 137.936 269.841 137.956C270.678 137.976 271.511 137.826 272.29 137.515C273.068 137.205 273.775 136.74 274.369 136.149L276.358 126.343Z" fill="#D3766A"/>
<path d="M267.423 118.292C267.338 118.238 267.264 118.355 267.328 118.43C270.593 121.706 271.093 126.247 270.933 130.65C270.38 128.694 269.125 127.204 266.572 127.768C266.445 127.768 266.477 127.992 266.572 128.023C267.36 128.096 268.105 128.413 268.704 128.93C269.303 129.447 269.725 130.137 269.912 130.906C270.224 132.188 270.399 133.5 270.433 134.82C270.433 135.256 271.178 135.341 271.22 134.82C271.215 134.784 271.215 134.749 271.22 134.713C273.496 129.8 272.603 121.1 267.423 118.292Z" fill="#263238"/>
<path d="M349.277 222.491C351.968 215.407 414.357 228.234 411.869 239.093C402.732 278.871 377.27 314.416 370.836 322.542C362.391 333.178 345.586 330.817 339.46 324.371C330.579 315.023 346.618 229.511 349.277 222.491Z" fill="#D3766A"/>
<path d="M344.885 242.018C343.498 245.83 342.399 249.741 341.598 253.718C340.694 257.653 339.907 261.609 339.269 265.587C338.008 273.634 337.297 281.757 337.142 289.901C337.025 294.453 337.142 298.994 337.142 303.547C337.142 303.653 337.312 303.642 337.312 303.547C337.312 299.516 337.557 295.453 337.886 291.432C338.216 287.412 338.62 283.317 339.141 279.286C340.152 271.363 341.269 263.449 342.704 255.59C343.101 253.384 343.516 251.186 343.949 248.995C344.406 246.719 344.927 244.454 345.225 242.146C345.225 241.976 344.959 241.827 344.885 242.018Z" fill="#263238"/>
<path d="M334.227 110.379C333.817 115.795 333.006 121.174 331.803 126.471C331.6 127.375 331.377 128.3 331.154 129.215C330.26 132.852 329.197 136.511 327.963 140.031C327.679 140.882 327.382 141.722 327.07 142.552C323.294 152.752 318.306 161.526 312.69 165.249C311.264 166.205 309.75 167.024 308.17 167.695C300.119 163 293.396 156.334 288.633 148.323C283.87 140.313 281.223 131.223 280.942 121.908L279.24 121.44C279.506 121.025 279.783 120.6 280.049 120.153C280.314 119.706 280.644 119.143 280.931 118.611C281.357 104.917 286.889 91.8784 296.438 82.0554C309.808 78.4605 325.815 83.5976 332.547 95.3289C334.185 98.2325 334.685 103.699 334.227 110.379Z" fill="#D3766A"/>
<path d="M306.202 120.717C305.072 120.775 303.94 120.775 302.809 120.717C301.501 120.717 300.459 120.812 299.342 120.036C299.041 119.781 298.836 119.433 298.758 119.047C298.681 118.66 298.737 118.259 298.917 117.909C299.736 116.462 301.331 116.09 302.905 116.058C304.485 115.965 306.042 116.461 307.276 117.451C307.55 117.694 307.747 118.011 307.842 118.364C307.937 118.717 307.927 119.09 307.813 119.437C307.699 119.784 307.485 120.091 307.199 120.318C306.913 120.545 306.566 120.684 306.202 120.717Z" fill="#263238"/>
<path d="M305.212 126.215C305.212 126.12 304.989 126.3 304.968 126.396C304.553 128.938 303.638 131.778 301.192 132.161C301.118 132.161 301.096 132.299 301.192 132.31C304.042 132.416 305.212 128.64 305.212 126.215Z" fill="#263238"/>
<path d="M303.479 123.078C299.48 121.961 297.545 130.044 301.246 131.076C304.947 132.108 306.83 124.014 303.479 123.078Z" fill="#263238"/>
<path d="M319.752 129.278C319.752 129.193 319.922 129.449 319.89 129.555C319.21 132.033 318.827 134.99 320.954 136.362C321.018 136.362 320.954 136.532 320.901 136.5C318.199 135.447 318.71 131.533 319.752 129.278Z" fill="#263238"/>
<path d="M322.613 127.204C326.708 127.864 325.091 136.011 321.294 135.405C317.497 134.798 319.178 126.651 322.613 127.204Z" fill="#263238"/>
<path d="M326.761 123.195C325.698 122.737 324.772 122.131 323.751 121.589C322.611 121.17 321.64 120.389 320.986 119.366C320.847 119.005 320.83 118.608 320.94 118.236C321.05 117.865 321.279 117.541 321.592 117.313C322.986 116.409 324.581 116.824 325.996 117.526C327.429 118.189 328.566 119.36 329.186 120.812C329.307 121.149 329.329 121.513 329.249 121.862C329.169 122.21 328.991 122.529 328.736 122.779C328.481 123.03 328.159 123.202 327.809 123.276C327.46 123.35 327.096 123.321 326.761 123.195Z" fill="#263238"/>
<path d="M296.832 147.849C297.289 148.572 297.693 149.518 298.587 149.816C299.522 150.024 300.491 150.024 301.426 149.816C301.445 149.816 301.464 149.821 301.48 149.83C301.496 149.84 301.508 149.854 301.516 149.871C301.524 149.888 301.527 149.907 301.524 149.926C301.522 149.945 301.513 149.962 301.501 149.976C301.026 150.382 300.45 150.652 299.834 150.757C299.217 150.862 298.584 150.798 298.002 150.571C297.524 150.317 297.132 149.927 296.877 149.449C296.621 148.972 296.513 148.43 296.566 147.891C296.555 147.742 296.757 147.742 296.832 147.849Z" fill="#263238"/>
<path d="M301.257 140.978C301.653 142.121 302.283 143.169 303.104 144.057C303.926 144.945 304.923 145.653 306.032 146.136C306.995 146.571 308.016 146.865 309.063 147.008C309.262 147.053 309.465 147.078 309.67 147.083C309.857 147.095 310.046 147.095 310.233 147.083C310.373 147.092 310.512 147.054 310.627 146.975C310.743 146.896 310.829 146.78 310.871 146.647C310.882 146.562 310.882 146.476 310.871 146.392V146.168C311.382 144.254 311.935 141.276 311.935 141.276C312.552 141.797 315.753 144.275 315.934 143.254C317.434 134.745 319.125 125.396 318.806 116.664C318.806 116.602 318.781 116.543 318.737 116.499C318.693 116.455 318.634 116.43 318.572 116.43C318.51 116.43 318.45 116.455 318.406 116.499C318.362 116.543 318.338 116.602 318.338 116.664C316.572 124.726 316.211 133.054 314.605 141.127C313.466 140.246 312.209 139.53 310.871 139C310.584 139 309.978 144.764 309.68 145.604C309.685 145.633 309.685 145.661 309.68 145.69C306.351 145.328 304.139 143.775 301.522 140.84C301.395 140.627 301.15 140.744 301.257 140.978Z" fill="#263238"/>
<path d="M308.17 145.764C306.781 146.874 305.128 147.607 303.373 147.891C302.412 148.029 301.433 147.858 300.576 147.402C298.693 146.402 299.087 144.552 299.831 143.073C300.232 142.288 300.725 141.552 301.299 140.882C303.009 143.202 305.417 144.913 308.17 145.764Z" fill="#263238"/>
<path d="M303.362 147.923C302.402 148.061 301.422 147.89 300.565 147.434C298.682 146.434 299.076 144.583 299.82 143.105C301.905 143.839 303.681 145.796 303.362 147.923Z" fill="#FF97B8"/>
<path d="M335.908 109.772C335.344 110.006 334.781 110.208 334.227 110.379C318.997 115.101 304.181 98.1049 304.181 98.1049C302.382 100.885 299.732 103.009 296.627 104.159C293.521 105.309 290.127 105.424 286.951 104.486C285.3 109.353 283.276 114.086 280.899 118.643C281.186 109.599 283.7 100.765 288.22 92.9261C292.74 85.0871 299.125 78.4852 306.808 73.7063C311.66 75.4087 316.381 77.4633 320.933 79.8538C322.818 77.1559 325.31 74.9375 328.208 73.3766C328.906 72.9832 329.677 72.7356 330.473 72.6487C331.27 72.5619 332.076 72.6376 332.843 72.8712C333.609 73.1049 334.32 73.4916 334.933 74.0081C335.546 74.5246 336.048 75.16 336.408 75.876C334.873 77.3681 333.692 79.1853 332.951 81.1939C330.42 87.8094 336.014 88.9687 337.259 82.7467C337.808 80.4321 337.506 77.9969 336.408 75.8866C340.013 72.4087 344.799 72.0258 347.044 74.823C351.234 79.7368 349.043 104.295 335.908 109.772Z" fill="#263238"/>
<path d="M307.499 119.983C305.729 118.508 303.534 117.636 301.234 117.494C300.542 117.449 299.847 117.474 299.16 117.568C297.437 117.791 295.791 118.424 294.363 119.414C292.934 120.404 291.763 121.723 290.95 123.259C290.714 123.688 290.515 124.136 290.354 124.599C289.985 125.581 289.766 126.614 289.705 127.662C289.557 130.075 290.215 132.47 291.576 134.468C292.937 136.467 294.924 137.956 297.225 138.702C298.088 138.973 298.981 139.141 299.884 139.202H300.564C303.172 139.207 305.694 138.277 307.675 136.581C309.656 134.886 310.963 132.536 311.36 129.959C311.36 129.651 311.434 129.342 311.455 129.023C311.477 128.704 311.455 128.555 311.455 128.332C311.452 126.735 311.095 125.158 310.411 123.715C309.727 122.271 308.733 120.997 307.499 119.983ZM299.969 137.745C297.682 137.598 295.527 136.624 293.907 135.003C292.287 133.383 291.313 131.228 291.167 128.941C291.021 126.654 291.713 124.393 293.114 122.579C294.514 120.766 296.528 119.525 298.778 119.089C299.558 118.938 300.356 118.888 301.149 118.94C301.93 118.991 302.702 119.138 303.447 119.377C304.396 119.682 305.29 120.138 306.095 120.727C307.748 121.924 308.967 123.626 309.569 125.576C310.171 127.526 310.122 129.619 309.431 131.54C308.74 133.46 307.443 135.104 305.736 136.223C304.03 137.342 302.005 137.876 299.969 137.745Z" fill="#78DA90"/>
<path d="M331.994 126.928L331.803 126.471C331.151 124.975 330.031 123.732 328.612 122.929C328.154 122.674 327.664 122.481 327.155 122.355C326.414 122.174 325.646 122.131 324.889 122.227C323.347 122.443 321.902 123.104 320.731 124.131C319.851 124.88 319.091 125.758 318.476 126.737C318.007 127.461 317.612 128.231 317.295 129.034C317.078 129.552 316.901 130.085 316.764 130.629C316.725 130.737 316.693 130.847 316.668 130.959C316.037 133.371 316.104 135.912 316.859 138.287C317.174 139.387 317.73 140.403 318.486 141.262C319.242 142.121 320.179 142.802 321.231 143.254C321.454 143.339 321.677 143.403 321.911 143.467C322.792 143.667 323.704 143.689 324.593 143.532C325.483 143.375 326.332 143.041 327.091 142.552C329.8 140.782 331.708 138.022 332.409 134.862C333.103 132.239 332.958 129.464 331.994 126.928ZM330.93 134.511C330.447 136.586 329.414 138.492 327.942 140.031C327.248 140.839 326.355 141.451 325.351 141.806C324.347 142.161 323.267 142.246 322.22 142.052C318.646 141.169 316.785 136.351 318.04 131.31C318.576 128.966 319.829 126.847 321.624 125.247C322.3 124.608 323.119 124.141 324.013 123.883C324.907 123.626 325.849 123.587 326.761 123.769C326.938 123.811 327.112 123.864 327.282 123.929C328.052 124.257 328.745 124.743 329.317 125.354C329.888 125.966 330.326 126.69 330.601 127.481C330.828 128.041 330.999 128.621 331.111 129.215C331.451 130.969 331.404 132.777 330.973 134.511H330.93Z" fill="#78DA90"/>
<path d="M310.808 130.193L310.116 128.917C311.999 127.853 316.104 126.79 318.157 130.087L316.923 130.853C315.083 127.896 310.988 130.097 310.808 130.193Z" fill="#78DA90"/>
<path d="M291.737 123.493L291.322 124.886L290.354 124.599C287.961 123.897 284.43 122.876 280.91 121.897L279.208 121.429C279.474 121.014 279.75 120.589 280.016 120.142L280.878 120.387C285.132 121.557 289.248 122.759 290.95 123.259L291.737 123.493Z" fill="#78DA90"/>
<g opacity="0.3">
<path d="M347.522 173.853C336.925 176.187 325.874 175.326 315.767 171.379C305.66 167.433 296.95 160.577 290.739 151.68C284.528 142.783 281.095 132.244 280.874 121.396C280.653 110.547 283.653 99.8772 289.497 90.7344C295.34 81.5917 303.763 74.387 313.701 70.0316C323.639 65.6762 334.646 64.3657 345.329 66.2657C356.011 68.1658 365.891 73.1911 373.718 80.7062C381.544 88.2213 386.967 97.8885 389.299 108.485C390.849 115.521 390.998 122.792 389.737 129.885C388.476 136.978 385.83 143.753 381.951 149.823C378.071 155.893 373.034 161.14 367.127 165.263C361.219 169.386 354.557 172.305 347.522 173.853Z" fill="white"/>
<path d="M287.61 146.615C294.56 159.3 306.235 168.73 320.098 172.854C333.962 176.979 348.893 175.465 361.646 168.642L287.61 146.615Z" fill="#EBEBEB"/>
<path d="M289.184 91.2767L390.586 121.451C390.674 117.094 390.245 112.742 389.309 108.485C388.249 103.603 386.513 98.8918 384.151 94.4887L309.296 72.2067C301.071 76.7387 294.146 83.3046 289.184 91.2767Z" fill="#EBEBEB"/>
<path d="M281.271 126.683L377.855 155.4C380.156 152.636 382.183 149.655 383.907 146.498L281.058 115.888C280.762 119.484 280.833 123.101 281.271 126.683Z" fill="#EBEBEB"/>
<path d="M285.674 97.9134L389.905 128.938C390.011 128.279 390.107 127.619 390.181 126.96L286.503 96.116C286.216 96.7009 285.929 97.2965 285.674 97.9134Z" fill="#EBEBEB"/>
<path d="M326.654 66.1868L372.92 79.9495C371.718 78.8328 370.453 77.8224 369.144 76.7588L331.568 65.5912C329.921 65.7053 328.281 65.9041 326.654 66.1868Z" fill="#EBEBEB"/>
</g>
<path d="M355.074 241.67L369.158 238.568L355.518 176.63L341.433 179.732L355.074 241.67Z" fill="#EBEBEB"/>
<path d="M395.298 107.167C392.704 95.3871 386.675 84.6412 377.974 76.2879C369.273 67.9347 358.29 62.3491 346.415 60.2376C334.539 58.126 322.305 59.5834 311.257 64.4253C300.21 69.2672 290.847 77.2763 284.351 87.4397C277.856 97.6031 274.52 109.464 274.766 121.524C275.011 133.583 278.827 145.298 285.731 155.189C292.635 165.079 302.317 172.7 313.552 177.089C324.787 181.477 337.071 182.435 348.851 179.841C364.645 176.358 378.409 166.747 387.119 153.119C395.828 139.491 398.77 122.963 395.298 107.167ZM347.522 173.853C336.925 176.189 325.874 175.33 315.766 171.385C305.657 167.44 296.946 160.586 290.734 151.689C284.521 142.793 281.086 132.254 280.864 121.405C280.641 110.557 283.641 99.8857 289.483 90.742C295.325 81.5983 303.748 74.3925 313.686 70.036C323.624 65.6795 334.631 64.3679 345.314 66.2672C355.998 68.1665 365.878 73.1913 373.705 80.7062C381.533 88.221 386.956 97.8883 389.288 108.485C390.839 115.52 390.988 122.791 389.728 129.883C388.467 136.976 385.823 143.75 381.944 149.82C378.066 155.89 373.029 161.137 367.123 165.26C361.217 169.384 354.556 172.304 347.522 173.853Z" fill="#455A64"/>
<path d="M360.891 285.253L382.194 280.563L370.112 225.65L348.798 230.34L360.891 285.253Z" fill="#263238"/>
<path d="M370.187 113.091C370.164 113.028 370.147 112.964 370.134 112.899C369.879 111.985 370.41 113.782 370.219 113.186C370.028 112.591 369.751 111.751 369.485 111.059C368.554 108.592 367.416 106.208 366.082 103.933C365.901 103.614 365.699 103.295 365.518 102.976C365.454 102.87 365.986 103.721 365.518 103.051L365.146 102.476C364.656 101.742 364.157 101.019 363.635 100.349C362.483 98.7926 361.229 97.3145 359.881 95.9245L358.902 94.946C358.456 94.51 359.424 95.4246 358.807 94.8609L358.19 94.2972C357.392 93.6059 356.573 92.9358 355.722 92.2977C354.871 91.6595 353.861 90.9576 352.893 90.3513C352.447 90.0748 352 89.8089 351.542 89.5537C350.755 89.0963 351.883 89.7132 351.298 89.4154L350.458 88.99C347.917 87.7398 345.259 86.7423 342.523 86.0119H342.385L342.087 85.9481L340.864 85.6822C340.066 85.5227 339.279 85.3844 338.471 85.2674C336.782 85.0257 335.081 84.8695 333.376 84.7994C332.903 84.7457 332.445 84.5992 332.028 84.3683C331.611 84.1374 331.244 83.8267 330.947 83.4539C330.348 82.7009 330.072 81.7407 330.18 80.7844C330.289 79.8282 330.773 78.9542 331.526 78.3548C332.279 77.7555 333.239 77.4797 334.195 77.5883C345.063 77.9246 355.455 82.1213 363.508 89.426C368.858 94.4363 373.041 100.562 375.76 107.369C376.383 108.888 376.901 110.448 377.313 112.038C377.46 112.988 377.225 113.958 376.659 114.735C376.093 115.512 375.242 116.034 374.293 116.186C373.345 116.313 372.385 116.07 371.613 115.508C370.84 114.945 370.314 114.106 370.145 113.165L370.187 113.091Z" fill="white"/>
<path d="M371.676 123.78C371.783 124.479 372.097 125.131 372.575 125.652C373.054 126.173 373.676 126.541 374.364 126.708C375.052 126.875 375.773 126.834 376.438 126.59C377.102 126.347 377.679 125.911 378.096 125.339C378.513 124.767 378.75 124.084 378.778 123.377C378.806 122.67 378.624 121.971 378.254 121.367C377.884 120.764 377.344 120.284 376.701 119.988C376.058 119.693 375.342 119.594 374.643 119.706C373.71 119.855 372.875 120.368 372.319 121.131C371.763 121.894 371.532 122.846 371.676 123.78Z" fill="white"/>
<path d="M407.678 251.527C407.678 251.527 422.909 226.49 403.945 202.602C396.139 192.774 377.717 175.151 340.343 177.608C331.473 178.193 319.252 185.308 334.078 189.616C344.608 192.679 352.213 191.434 358.02 194.327C358.02 194.327 343.544 205.229 344.48 214.089C344.895 218.045 345.204 226.692 347.49 234.924C347.49 234.924 350.49 237.051 352.925 236.69C352.925 236.69 359.487 255.621 383.088 261.439L407.678 251.527Z" fill="#D3766A"/>
<path d="M395.937 199.39C389.832 196.954 376.792 192.019 364.72 191.679C351.309 191.307 325.368 194.21 325.208 204.112C325.081 211.376 335.078 211.132 335.078 211.132C335.078 211.132 324.613 214.588 325.942 221.172C327.144 227.171 334.866 226.49 334.866 226.49C334.866 226.49 328.878 229.681 331.154 235.233C333.887 241.912 345.98 234.169 354.552 238.508C356.531 239.529 395.937 199.39 395.937 199.39Z" fill="#D3766A"/>
<path d="M366.666 205.91C360.551 204.57 345.862 205.08 335.205 210.898C334.961 211.025 334.929 211.281 335.205 211.206C345.445 208.22 356.009 206.484 366.666 206.037C366.762 206.037 366.762 205.984 366.666 205.91Z" fill="#263238"/>
<path d="M365.922 219.438C360.519 218.822 345.406 220.023 334.812 226.288C334.568 226.426 334.557 226.681 334.812 226.596C344.89 223.084 355.334 220.725 365.944 219.566C365.96 219.563 365.976 219.554 365.986 219.54C365.996 219.526 366 219.509 365.997 219.492C365.994 219.475 365.985 219.46 365.971 219.45C365.957 219.44 365.939 219.436 365.922 219.438Z" fill="#263238"/>
<path d="M387.693 263.067C382.279 261.782 377.053 259.805 372.144 257.185C367.2 254.51 362.825 250.897 359.264 246.549C358.2 245.22 357.136 243.837 356.211 242.422C355.286 241.008 354.265 239.402 353.169 237.998C353.084 237.892 352.882 237.998 352.946 238.094C354.178 241.046 355.696 243.871 357.477 246.528C359.073 249.013 360.982 251.282 363.156 253.282C367.448 257.1 372.534 259.919 378.046 261.535C381.177 262.407 384.381 262.987 387.619 263.269C387.778 263.311 387.842 263.098 387.693 263.067Z" fill="#263238"/>
<path d="M232.442 182.947C205.044 219.736 159.321 315.618 152.599 329.721C148.036 339.294 198.056 364.5 200.173 357.545C202.896 348.632 247.619 230.978 253.884 188.084C257.308 164.568 241.918 170.216 232.442 182.947Z" fill="#D3766A"/>
<path d="M201.524 352.758C200.365 361.427 194.472 378.891 190.09 381.56C185.708 384.23 162.682 383.687 151.078 383.687C139.475 383.687 137.252 380.444 137.39 376.455C137.528 372.467 161.927 371.701 161.927 371.701C161.927 371.701 129.402 380.975 121.223 382.539C113.044 384.102 94.2084 388.814 91.4431 382.039C90.22 378.976 95.3784 375.881 95.3784 375.881C95.3784 375.881 87.476 378.189 86.2103 374.264C84.7851 369.786 91.0709 367.33 91.0709 367.33C91.0709 367.33 86.1252 368.319 86.0082 364.671C85.7955 356.481 116.724 352.482 116.724 352.482C116.724 352.482 93.0491 364.011 92.2621 357.353C91.1985 348.153 139.74 338.06 144.792 334.05C148.468 330.986 151.906 327.647 155.077 324.063L201.524 352.758Z" fill="#D3766A"/>
<path d="M137.56 378.433C137.478 377.868 137.532 377.292 137.717 376.752C137.902 376.212 138.213 375.724 138.624 375.328C139.458 374.564 140.414 373.946 141.453 373.498C143.599 372.587 145.824 371.874 148.101 371.371C152.674 370.212 157.364 369.393 162.033 368.18C157.22 368.108 152.418 368.644 147.739 369.776C145.348 370.324 143.046 371.205 140.9 372.392C139.789 373.003 138.815 373.836 138.039 374.838C137.658 375.346 137.413 375.944 137.329 376.573C137.245 377.203 137.325 377.843 137.56 378.433Z" fill="#263238"/>
<path d="M95.4531 375.838C98.8034 375.019 102.101 374.083 105.387 373.126C108.673 372.169 111.949 371.169 115.225 370.18L125.021 367.117C128.286 366.053 131.551 365.075 134.848 364.086C131.425 364.462 128.032 365.07 124.691 365.904C121.33 366.67 118.033 367.627 114.747 368.627C111.46 369.627 108.205 370.754 104.993 371.946C101.781 373.137 98.5375 374.392 95.4531 375.838Z" fill="#263238"/>
<path d="M126.956 355.949C123.801 356.147 120.665 356.581 117.575 357.247C114.474 357.863 111.41 358.652 108.396 359.608C105.376 360.545 102.41 361.653 99.5155 362.926C96.6102 364.168 93.7985 365.618 91.1025 367.266C94.0912 366.202 97.0054 365.085 99.9728 364.075C102.94 363.065 105.897 362.065 108.886 361.15C111.874 360.236 114.863 359.331 117.873 358.449C120.883 357.566 123.903 356.8 126.956 355.949Z" fill="#263238"/>
<path d="M122.17 348.206C117.088 348.616 112.083 349.688 107.28 351.397C102.43 353.003 97.8133 355.242 93.5488 358.055C98.3562 356.343 103.036 354.535 107.811 352.939C112.587 351.344 117.32 349.77 122.17 348.206Z" fill="#263238"/>
<path d="M244.088 246.007L188.569 244.475C188.569 244.475 218.828 196.316 235.037 178.65C251.959 160.25 261.17 161.835 255.394 194.434C249.576 227.256 244.088 246.007 244.088 246.007Z" fill="#78DA90"/>
<path d="M209.735 236.317C208.236 236.972 206.834 237.827 205.565 238.859C208.807 238.336 211.859 236.984 214.425 234.935C212.803 235.167 211.223 235.633 209.735 236.317ZM240.738 201.049C240.097 199.544 239.241 198.139 238.196 196.88C238.708 200.124 240.065 203.176 242.131 205.729C241.897 204.109 241.428 202.533 240.738 201.049ZM215.138 211.515C214.531 213.033 214.144 214.631 213.989 216.258C215.917 213.601 217.112 210.483 217.456 207.218C216.477 208.529 215.696 209.976 215.138 211.515ZM239.6 233.254C238.989 234.774 238.605 236.376 238.462 238.009C240.378 235.344 241.572 232.23 241.929 228.968C240.945 230.277 240.154 231.721 239.579 233.254H239.6ZM255.873 170.024C255.607 170.577 255.362 171.141 255.128 171.715C254.528 173.236 254.142 174.832 253.98 176.459C254.959 175.16 255.747 173.727 256.32 172.205C256.373 172.066 256.415 171.939 256.458 171.801C256.306 171.192 256.103 170.598 255.852 170.024H255.873Z" fill="white"/>
<path d="M240.611 236.349C239.292 236.158 237.941 236.158 236.622 236.094L232.528 235.871C229.776 235.736 227.015 235.626 224.242 235.541C218.712 235.371 213.192 235.179 207.672 235.105C206.151 235.105 204.63 235.105 203.109 235.105C201.588 235.105 199.918 235.265 198.323 235.275C198.227 235.275 198.238 235.424 198.323 235.424C199.684 235.509 201.046 235.711 202.418 235.796C203.79 235.881 205.215 235.966 206.619 236.02C209.384 236.126 212.149 236.222 214.915 236.286C220.35 236.413 225.795 236.562 231.23 236.573H235.846C237.431 236.573 239.037 236.658 240.632 236.52C240.675 236.488 240.696 236.36 240.611 236.349Z" fill="#263238"/>
<path d="M254.852 209.898C254.852 209.792 254.724 209.728 254.671 209.834C253.641 211.731 252.759 213.705 252.033 215.737C252.225 214.769 252.448 213.801 252.629 212.823C253.235 209.696 253.788 206.548 254.405 203.421C254.399 203.402 254.386 203.386 254.37 203.374C254.354 203.363 254.335 203.357 254.315 203.357C254.295 203.357 254.275 203.363 254.259 203.374C254.243 203.386 254.231 203.402 254.224 203.421C252.788 208.803 251.119 214.131 249.842 219.555C248.566 224.98 247.279 230.404 246.088 235.849C245.439 238.859 244.854 242.614 244.195 245.613C242.589 245.805 240.525 245.613 238.792 245.837C238.643 245.837 238.685 246.102 238.792 246.102C240.621 246.156 242.801 246.57 244.726 246.453C244.971 246.453 249.63 227.107 251.565 217.843C252.757 215.205 253.863 212.568 254.852 209.898Z" fill="#263238"/>
<path d="M294.343 179.82C293.567 182.362 292.684 184.872 291.674 187.329C290.83 189.542 289.795 191.678 288.579 193.71C286.281 197.337 282.75 200.336 278.273 200.326C274.018 200.326 270.126 197.858 267.403 194.71C264.425 191.275 262.446 186.967 260.67 182.819C259.607 180.256 258.543 177.64 257.692 174.991C257.256 173.651 256.799 172.311 256.416 170.95C256.033 169.588 255.703 168.216 255.235 166.887C255.235 166.78 255.001 166.791 255.033 166.887C255.82 169.95 258.107 179.65 259.022 182.117C260.702 186.637 262.595 191.307 265.627 195.114C268.498 198.709 272.402 201.432 277.071 201.879C281.74 202.325 285.739 199.868 288.313 196.167C289.826 193.836 291.007 191.305 291.823 188.648C292.812 185.733 293.641 182.745 294.396 179.756C294.439 179.799 294.343 179.788 294.343 179.82Z" fill="#263238"/>
<path d="M363.391 386.261H287.121L283.718 319.213H363.391V386.261Z" fill="#DBDBDB"/>
<path d="M363.391 319.213L390.789 284.913L412.592 319.213L409.189 386.261H363.391V319.213Z" fill="#C7C7C7"/>
<path d="M310.339 274.021H391.757L421.122 321.925H411.667L391.757 288.763L368.794 325.882H276.996L310.339 274.021Z" fill="#A6A6A6"/>
<path d="M319.774 289.178H302.267L292.929 300.366H313.137L319.774 289.178Z" fill="#C7C7C7"/>
<path d="M306.511 298.452V312.076H296.769V298.452L301.64 292.358L306.511 298.452Z" fill="#DBDBDB"/>
<path d="M306.511 298.441H314.169L306.511 312.076V298.441Z" fill="#C7C7C7"/>
<path d="M304.16 298.665H298.619V308.014H304.16V298.665Z" fill="#FBFAFF"/>
<path d="M301.087 299.313H299.3V302.323H301.087V299.313Z" fill="#EBEBEB"/>
<path d="M303.468 299.313H301.682V302.323H303.468V299.313Z" fill="#EBEBEB"/>
<path d="M301.087 302.866H299.3V307.322H301.087V302.866Z" fill="#EBEBEB"/>
<path d="M303.468 302.866H301.682V307.322H303.468V302.866Z" fill="#EBEBEB"/>
<path d="M362.636 289.178H345.129L336.365 300.366H355.956L362.636 289.178Z" fill="#C7C7C7"/>
<path d="M349.373 298.452V312.076H339.631V298.452L344.502 292.358L349.373 298.452Z" fill="#DBDBDB"/>
<path d="M349.373 298.441H357.042L349.373 312.076V298.441Z" fill="#C7C7C7"/>
<path d="M347.023 298.665H341.481V308.014H347.023V298.665Z" fill="#FBFAFF"/>
<path d="M343.949 299.313H342.162V302.323H343.949V299.313Z" fill="#EBEBEB"/>
<path d="M346.341 299.313H344.555V302.323H346.341V299.313Z" fill="#EBEBEB"/>
<path d="M343.949 302.866H342.162V307.322H343.949V302.866Z" fill="#EBEBEB"/>
<path d="M346.341 302.866H344.555V307.322H346.341V302.866Z" fill="#EBEBEB"/>
<path d="M377.154 272.086H367.411V284.913H377.154V272.086Z" fill="#DBDBDB"/>
<path d="M377.153 272.086H384.811V274.149L377.153 284.913V272.086Z" fill="#C7C7C7"/>
<path d="M377.153 267.725H366.315V272.086H377.153V267.725Z" fill="#C7C7C7"/>
<path d="M385.651 267.725H377.153V272.086H385.651V267.725Z" fill="#A6A6A6"/>
<path d="M307.245 331.37H295.184V351.737H307.245V331.37Z" fill="#FBFAFF"/>
<path d="M300.555 332.784H296.673V339.347H300.555V332.784Z" fill="#EBEBEB"/>
<path d="M305.755 332.784H301.873V339.347H305.755V332.784Z" fill="#EBEBEB"/>
<path d="M300.555 340.527H296.673V350.248H300.555V340.527Z" fill="#EBEBEB"/>
<path d="M305.755 340.527H301.873V350.248H305.755V340.527Z" fill="#EBEBEB"/>
<path d="M352.042 331.37H339.981V351.737H352.042V331.37Z" fill="#FBFAFF"/>
<path d="M345.353 332.784H341.471V339.347H345.353V332.784Z" fill="#EBEBEB"/>
<path d="M350.554 332.784H346.672V339.347H350.554V332.784Z" fill="#EBEBEB"/>
<path d="M345.353 340.527H341.471V350.248H345.353V340.527Z" fill="#EBEBEB"/>
<path d="M350.554 340.527H346.672V350.248H350.554V340.527Z" fill="#EBEBEB"/>
<path d="M307.245 359.672H295.184V380.039H307.245V359.672Z" fill="#FBFAFF"/>
<path d="M300.555 361.086H296.673V367.649H300.555V361.086Z" fill="#EBEBEB"/>
<path d="M305.755 361.086H301.873V367.649H305.755V361.086Z" fill="#EBEBEB"/>
<path d="M300.555 368.829H296.673V378.55H300.555V368.829Z" fill="#EBEBEB"/>
<path d="M305.755 368.829H301.873V378.55H305.755V368.829Z" fill="#EBEBEB"/>
<path d="M352.042 359.672H339.981V380.039H352.042V359.672Z" fill="#FBFAFF"/>
<path d="M345.353 361.086H341.471V367.649H345.353V361.086Z" fill="#EBEBEB"/>
<path d="M350.554 361.086H346.672V367.649H350.554V361.086Z" fill="#EBEBEB"/>
<path d="M345.353 368.829H341.471V378.55H345.353V368.829Z" fill="#EBEBEB"/>
<path d="M350.554 368.829H346.672V378.55H350.554V368.829Z" fill="#EBEBEB"/>
<path d="M329.58 331.37H317.519V351.737H329.58V331.37Z" fill="#FBFAFF"/>
<path d="M322.89 332.784H319.008V339.347H322.89V332.784Z" fill="#EBEBEB"/>
<path d="M328.101 332.784H324.219V339.347H328.101V332.784Z" fill="#EBEBEB"/>
<path d="M322.89 340.527H319.008V350.248H322.89V340.527Z" fill="#EBEBEB"/>
<path d="M328.101 340.527H324.219V350.248H328.101V340.527Z" fill="#EBEBEB"/>
<path d="M329.58 359.81H317.519V380.178H329.58V359.81Z" fill="#FBFAFF"/>
<path d="M322.89 361.214H319.008V367.776H322.89V361.214Z" fill="#EBEBEB"/>
<path d="M328.101 361.214H324.219V367.776H328.101V361.214Z" fill="#EBEBEB"/>
<path d="M322.89 368.968H319.008V378.689H322.89V368.968Z" fill="#EBEBEB"/>
<path d="M328.101 368.968H324.219V378.689H328.101V368.968Z" fill="#EBEBEB"/>
<path d="M385.067 351.737H397.128V331.37H385.067V351.737Z" fill="#FBFAFF"/>
<path d="M395.639 332.784H391.757V339.347H395.639V332.784Z" fill="#EBEBEB"/>
<path d="M390.427 332.784H386.545V339.347H390.427V332.784Z" fill="#EBEBEB"/>
<path d="M395.639 340.527H391.757V350.248H395.639V340.527Z" fill="#EBEBEB"/>
<path d="M390.427 340.527H386.545V350.248H390.427V340.527Z" fill="#EBEBEB"/>
<path d="M385.067 320.255H397.128V303.015H385.067V320.255Z" fill="#FBFAFF"/>
<path d="M395.639 304.419H391.757V310.981H395.639V304.419Z" fill="#EBEBEB"/>
<path d="M390.427 304.419H386.545V310.981H390.427V304.419Z" fill="#EBEBEB"/>
<path d="M395.639 312.236H391.757V318.798H395.639V312.236Z" fill="#EBEBEB"/>
<path d="M390.427 312.236H386.545V318.798H390.427V312.236Z" fill="#EBEBEB"/>
<path d="M383.351 386.386L397.975 386.455L398.1 359.898L383.476 359.829L383.351 386.386Z" fill="#FBFAFF"/>
<path d="M389.193 361.667L389.174 365.645L392.322 365.66L392.341 361.682L389.193 361.667Z" fill="#EBEBEB"/>
<path d="M385.078 361.646L385.06 365.624L388.208 365.639L388.227 361.661L385.078 361.646Z" fill="#EBEBEB"/>
<path d="M387.366 380.088L394.014 380.119L394.018 379.162L387.371 379.13L387.366 380.088Z" fill="#EBEBEB"/>
<path d="M391.161 359.64V363.618H394.309V359.64H391.161Z" fill="#EBEBEB"/>
<path d="M389.182 366.69L389.163 370.668L392.311 370.683L392.33 366.705L389.182 366.69Z" fill="#EBEBEB"/>
<path d="M385.036 366.658L385.018 370.636L388.166 370.651L388.185 366.673L385.036 366.658Z" fill="#EBEBEB"/>
<path d="M393.307 366.711L393.288 370.689L396.436 370.704L396.455 366.726L393.307 366.711Z" fill="#EBEBEB"/>
<path d="M389.16 371.723L389.142 375.701L392.29 375.716L392.309 371.738L389.16 371.723Z" fill="#EBEBEB"/>
<path d="M385.025 371.702L385.006 375.68L388.154 375.694L388.173 371.717L385.025 371.702Z" fill="#EBEBEB"/>
<path d="M393.285 371.745L393.267 375.722L396.415 375.737L396.434 371.759L393.285 371.745Z" fill="#EBEBEB"/>
<path d="M153.483 386.442H85.7324L82.7012 353.609H153.483V386.442Z" fill="#DBDBDB"/>
<path d="M153.461 353.567L177.796 323.106L197.174 353.567L194.143 386.4H153.461V353.567Z" fill="#C7C7C7"/>
<path d="M105.951 313.47H179.54L206.8 359.534H199.365L178.54 324.861L158.534 359.534H77L105.951 313.47Z" fill="#A6A6A6"/>
<path d="M103.771 365.798H93.0498V381.114H103.771V365.798Z" fill="#FBFAFF"/>
<path d="M97.8142 367.053H94.3682V372.882H97.8142V367.053Z" fill="#DBDBDB"/>
<path d="M102.441 367.053H98.9951V372.882H102.441V367.053Z" fill="#DBDBDB"/>
<path d="M97.8142 373.988H94.3682V379.816H97.8142V373.988Z" fill="#DBDBDB"/>
<path d="M102.441 373.988H98.9951V379.816H102.441V373.988Z" fill="#DBDBDB"/>
<path d="M143.144 365.798H132.423V381.114H143.144V365.798Z" fill="#FBFAFF"/>
<path d="M137.188 367.053H133.742V372.882H137.188V367.053Z" fill="#DBDBDB"/>
<path d="M141.815 367.053H138.369V372.882H141.815V367.053Z" fill="#DBDBDB"/>
<path d="M137.188 373.988H133.742V379.816H137.188V373.988Z" fill="#DBDBDB"/>
<path d="M141.815 373.988H138.369V379.816H141.815V373.988Z" fill="#DBDBDB"/>
<path d="M123.521 364.979H111.705V386.442H123.521V364.979Z" fill="#FBFAFF"/>
<path d="M118.884 366.457H116.342V369.669H118.884V366.457Z" fill="#DBDBDB"/>
<path d="M122.224 366.457H119.682V369.669H122.224V366.457Z" fill="#DBDBDB"/>
<path d="M120.299 380.55H114.928V381.326H120.299V380.55Z" fill="#DBDBDB"/>
<path d="M115.544 366.457H113.002V369.669H115.544V366.457Z" fill="#DBDBDB"/>
<path d="M118.884 370.52H116.342V373.732H118.884V370.52Z" fill="#DBDBDB"/>
<path d="M122.224 370.52H119.682V373.732H122.224V370.52Z" fill="#DBDBDB"/>
<path d="M115.544 370.52H113.002V373.732H115.544V370.52Z" fill="#DBDBDB"/>
<path d="M118.884 374.583H116.342V377.795H118.884V374.583Z" fill="#DBDBDB"/>
<path d="M122.224 374.583H119.682V377.795H122.224V374.583Z" fill="#DBDBDB"/>
<path d="M115.544 374.583H113.002V377.795H115.544V374.583Z" fill="#DBDBDB"/>
<path d="M121.522 311.63H112.864V323.021H121.522V311.63Z" fill="#DBDBDB"/>
<path d="M121.521 311.63H128.328V313.459L121.521 323.021V311.63Z" fill="#C7C7C7"/>
<path d="M121.522 307.748H111.896V311.619H121.522V307.748Z" fill="#C7C7C7"/>
<path d="M129.073 307.748H121.521V311.619H129.073V307.748Z" fill="#A6A6A6"/>
<path d="M180.264 386.453H202.237L204.333 363.809H180.264V386.453Z" fill="#C7C7C7"/>
<path d="M180.263 363.809L169.404 358.906L169.649 386.453H180.263V363.809Z" fill="#DBDBDB"/>
<path d="M197.089 369.669H187.847V386.442H197.089V369.669Z" fill="#FBFAFF"/>
<path d="M193.463 370.818H191.474V373.328H193.463V370.818Z" fill="#DBDBDB"/>
<path d="M196.068 370.818H194.079V373.328H196.068V370.818Z" fill="#DBDBDB"/>
<path d="M194.568 380.709H190.367V381.316H194.568V380.709Z" fill="#DBDBDB"/>
<path d="M190.856 370.818H188.867V373.328H190.856V370.818Z" fill="#DBDBDB"/>
<path d="M167.745 357.779H199.674L209.991 365.628H179.338L167.745 357.779Z" fill="#A6A6A6"/>
<path d="M179.338 365.628H167.745V357.779L179.338 365.628Z" fill="#C7C7C7"/>
<path d="M172.478 346.303C172.478 347.386 172.799 348.446 173.401 349.347C174.004 350.248 174.86 350.95 175.861 351.364C176.863 351.778 177.965 351.886 179.028 351.674C180.09 351.462 181.066 350.939 181.832 350.172C182.598 349.405 183.118 348.428 183.328 347.365C183.539 346.301 183.429 345.2 183.012 344.199C182.596 343.198 181.893 342.344 180.99 341.743C180.088 341.142 179.028 340.823 177.944 340.825C176.493 340.828 175.103 341.406 174.078 342.433C173.053 343.46 172.478 344.852 172.478 346.303Z" fill="#FBFAFF"/>
<path d="M173.701 346.303C173.701 347.431 174.149 348.513 174.947 349.311C175.745 350.109 176.827 350.557 177.956 350.557C178.315 350.559 178.673 350.513 179.019 350.419C180.01 350.15 180.87 349.532 181.441 348.678C182.011 347.825 182.254 346.794 182.125 345.776C181.995 344.758 181.502 343.821 180.736 343.137C179.969 342.454 178.982 342.071 177.956 342.059C177.596 342.057 177.239 342.104 176.892 342.197C176.397 342.317 175.931 342.534 175.52 342.835C174.961 343.225 174.504 343.744 174.188 344.347C173.871 344.951 173.705 345.621 173.701 346.303Z" fill="#C7C7C7"/>
<path d="M177.359 351.301H178.54V341.219H177.359V351.301Z" fill="#FBFAFF"/>
<path d="M182.997 346.845V345.664H172.914V346.845H182.997Z" fill="#FBFAFF"/>
<path d="M211.576 386.453H177.339L174.999 361.129H211.576V386.453Z" fill="#78DA90"/>
<path opacity="0.2" d="M211.576 386.453H177.339L174.999 361.129H211.576V386.453Z" fill="black"/>
<path d="M211.575 361.129L230.347 337.624L245.291 361.129L242.962 386.453H211.575V361.129Z" fill="#78DA90"/>
<path d="M213.84 364.224H167.383L195.642 328.69H230.538L251.512 364.224H246.184L230.538 339.879L213.84 364.224Z" fill="#78DA90"/>
<path opacity="0.4" d="M213.84 364.224H167.383L195.642 328.69H230.538L251.512 364.224H246.184L230.538 339.879L213.84 364.224Z" fill="black"/>
<path d="M260.724 297.261H251.045V310.002H260.724V297.261Z" fill="#78DA90"/>
<path opacity="0.2" d="M260.724 297.261H251.045V310.002H260.724V297.261Z" fill="black"/>
<path d="M268.339 297.261H260.724V310.002H268.339V297.261Z" fill="#78DA90"/>
<path d="M260.723 292.921H249.96V297.25H260.723V292.921Z" fill="#78DA90"/>
<path opacity="0.5" d="M260.723 292.921H249.96V297.25H260.723V292.921Z" fill="black"/>
<path d="M269.168 292.921H260.724V297.25H269.168V292.921Z" fill="#78DA90"/>
<path opacity="0.4" d="M269.168 292.921H260.724V297.25H269.168V292.921Z" fill="black"/>
<path d="M294.737 386.421H218.956L215.563 349.695H294.737V386.421Z" fill="#78DA90"/>
<path opacity="0.2" d="M294.737 386.421H218.956L215.563 349.695H294.737V386.421Z" fill="black"/>
<path d="M294.736 349.695L321.953 315.608L343.629 349.695L340.236 386.421H294.736V349.695Z" fill="#78DA90"/>
<path d="M321.624 317.767L344.002 352.376H351.819L322.294 304.791H241.685L200.844 356.322H299.3L321.624 317.767Z" fill="#78DA90"/>
<path opacity="0.5" d="M321.624 317.767L344.002 352.376H351.819L322.294 304.791H241.685L200.844 356.322H299.3L321.624 317.767Z" fill="black"/>
<path d="M314.881 354.854H326.867V337.719H314.881V354.854Z" fill="#FBFAFF"/>
<path d="M325.389 339.113H321.528V345.633H325.389V339.113Z" fill="#78DA90"/>
<path d="M320.22 339.113H316.359V345.633H320.22V339.113Z" fill="#78DA90"/>
<path d="M325.389 346.877H321.528V353.397H325.389V346.877Z" fill="#78DA90"/>
<path d="M320.22 346.877H316.359V353.397H320.22V346.877Z" fill="#78DA90"/>
<path d="M239.122 363.32H227.136V380.454H239.122V363.32Z" fill="#FBFAFF"/>
<path d="M232.475 364.724H228.614V371.244H232.475V364.724Z" fill="#78DA90"/>
<path d="M237.654 364.724H233.793V371.244H237.654V364.724Z" fill="#78DA90"/>
<path d="M232.475 372.488H228.614V379.008H232.475V372.488Z" fill="#78DA90"/>
<path d="M237.654 372.488H233.793V379.008H237.654V372.488Z" fill="#78DA90"/>
<path d="M261.149 363.32H249.162V380.454H261.149V363.32Z" fill="#FBFAFF"/>
<path d="M254.491 364.724H250.63V371.244H254.491V364.724Z" fill="#78DA90"/>
<path d="M259.67 364.724H255.81V371.244H259.67V364.724Z" fill="#78DA90"/>
<path d="M254.491 372.488H250.63V379.008H254.491V372.488Z" fill="#78DA90"/>
<path d="M259.67 372.488H255.81V379.008H259.67V372.488Z" fill="#78DA90"/>
<path d="M283.165 363.32H271.179V380.454H283.165V363.32Z" fill="#FBFAFF"/>
<path d="M276.517 364.724H272.656V371.244H276.517V364.724Z" fill="#78DA90"/>
<path d="M281.687 364.724H277.826V371.244H281.687V364.724Z" fill="#78DA90"/>
<path d="M276.517 372.488H272.656V379.008H276.517V372.488Z" fill="#78DA90"/>
<path d="M281.687 372.488H277.826V379.008H281.687V372.488Z" fill="#78DA90"/>
<path d="M314.264 386.41H327.484V362.405H314.264V386.41Z" fill="#FBFAFF"/>
<path d="M322.305 364.064H319.454V367.659H322.305V364.064Z" fill="#78DA90"/>
<path d="M318.572 364.064H315.722V367.659H318.572V364.064Z" fill="#78DA90"/>
<path d="M317.87 380.699H323.879V379.827H317.87V380.699Z" fill="#78DA90"/>
<path d="M326.027 364.064H323.177V367.659H326.027V364.064Z" fill="#78DA90"/>
<path d="M322.305 368.606H319.454V372.201H322.305V368.606Z" fill="#78DA90"/>
<path d="M318.572 368.606H315.722V372.201H318.572V368.606Z" fill="#78DA90"/>
<path d="M326.027 368.606H323.177V372.201H326.027V368.606Z" fill="#78DA90"/>
<path d="M322.305 373.147H319.454V376.742H322.305V373.147Z" fill="#78DA90"/>
<path d="M318.572 373.147H315.722V376.742H318.572V373.147Z" fill="#78DA90"/>
<path d="M326.027 373.147H323.177V376.742H326.027V373.147Z" fill="#78DA90"/>
<path d="M272.891 317.129H255.491L246.546 328.296H266.243L272.891 317.129Z" fill="#78DA90"/>
<path opacity="0.4" d="M272.891 317.129H255.491L246.546 328.296H266.243L272.891 317.129Z" fill="black"/>
<path d="M259.713 326.339V339.879H250.023V326.339L254.873 320.287L259.713 326.339Z" fill="#78DA90"/>
<path opacity="0.2" d="M259.713 326.339V339.879H250.023V326.339L254.873 320.287L259.713 326.339Z" fill="black"/>
<path d="M259.713 326.339H267.328L259.713 339.879V326.339Z" fill="#78DA90"/>
<path d="M257.362 326.552H251.863V335.837H257.362V326.552Z" fill="#FBFAFF"/>
<path d="M254.32 327.19H252.544V330.179H254.32V327.19Z" fill="#78DA90"/>
<path d="M256.692 327.19H254.916V330.179H256.692V327.19Z" fill="#78DA90"/>
<path d="M254.32 330.732H252.544V335.167H254.32V330.732Z" fill="#78DA90"/>
<path d="M256.692 330.732H254.916V335.167H256.692V330.732Z" fill="#78DA90"/>
<path d="M271.761 187.818C276.498 191.846 280.022 197.111 281.94 203.026C283.858 208.941 284.094 215.272 282.622 221.313C281.151 227.354 278.029 232.868 273.606 237.237C269.182 241.607 263.631 244.662 257.573 246.06L250.128 261.301L242.906 246.166C237.505 245.009 232.479 242.523 228.282 238.934C224.925 236.078 222.164 232.59 220.156 228.667C218.148 224.744 216.932 220.465 216.578 216.072C215.863 207.201 218.701 198.409 224.469 191.631C230.236 184.853 238.459 180.643 247.33 179.928C256.201 179.213 264.993 182.051 271.771 187.818H271.761Z" fill="white"/>
<path d="M271.761 187.818C276.497 191.847 280.027 197.107 281.961 203.017C282.445 204.487 282.836 205.986 283.131 207.505C283.386 209.032 283.545 210.574 283.61 212.121C283.754 215.223 283.464 218.331 282.748 221.353C282.044 224.382 280.924 227.299 279.419 230.021C278.658 231.378 277.801 232.679 276.856 233.914C275.942 235.174 274.932 236.362 273.835 237.466C269.4 241.934 263.804 245.072 257.679 246.528L258.009 246.273L250.649 261.556L250.117 262.673L249.585 261.556L242.311 246.453L242.757 246.804C236.419 245.431 230.608 242.27 226.009 237.697C221.411 233.124 218.219 227.33 216.811 220.999C215.402 214.669 215.836 208.068 218.061 201.977C220.286 195.885 224.21 190.559 229.367 186.627C233.458 183.561 238.181 181.446 243.193 180.437C248.203 179.423 253.378 179.56 258.327 180.839C263.276 182.117 267.87 184.504 271.761 187.818ZM271.761 187.818C267.896 184.519 263.325 182.15 258.4 180.896C253.475 179.642 248.328 179.536 243.356 180.585C238.384 181.634 233.718 183.811 229.72 186.948C225.722 190.085 222.497 194.097 220.294 198.677C218.098 203.205 216.963 208.174 216.976 213.206C217.038 218.214 218.185 223.148 220.337 227.671C222.519 232.17 225.694 236.116 229.622 239.21C233.558 242.29 238.133 244.449 243.013 245.528L243.332 245.603L243.459 245.89L250.638 261.046H249.575L257.137 245.858L257.233 245.645H257.456C263.468 244.329 268.994 241.36 273.41 237.073C274.507 236.003 275.52 234.851 276.441 233.627C277.393 232.425 278.257 231.156 279.025 229.83C280.567 227.169 281.727 224.305 282.471 221.321C283.243 218.336 283.572 215.254 283.45 212.174C283.395 210.635 283.249 209.101 283.014 207.579C282.726 206.065 282.346 204.57 281.876 203.102C279.981 197.171 276.48 191.881 271.761 187.818Z" fill="#263238"/>
<path d="M259.137 204.857C258.765 204.478 258.351 204.142 257.903 203.857C257.31 203.473 256.688 203.135 256.042 202.846C254.48 202.138 252.806 201.706 251.096 201.57V211.142L251.979 211.323C253.502 211.687 255.004 212.134 256.478 212.663C257.692 213.09 258.836 213.696 259.871 214.461C260.771 215.154 261.499 216.046 261.998 217.067C262.531 218.248 262.789 219.536 262.753 220.832C262.796 222.271 262.497 223.7 261.881 225.001C261.312 226.143 260.481 227.134 259.456 227.894C258.371 228.685 257.148 229.27 255.85 229.617C254.415 230.012 252.936 230.223 251.447 230.244V235.094H249.054V230.149C246.876 230.017 244.727 229.577 242.673 228.84C240.694 228.129 238.841 227.105 237.185 225.809L239.535 221.385C239.98 221.841 240.476 222.244 241.013 222.587C241.734 223.056 242.487 223.472 243.268 223.831C244.187 224.255 245.137 224.611 246.108 224.895C247.151 225.203 248.218 225.42 249.299 225.543V215.971C249.118 215.918 248.916 215.854 248.724 215.812C248.53 215.771 248.338 215.718 248.15 215.652C246.707 215.279 245.287 214.824 243.896 214.291C242.801 213.883 241.78 213.297 240.875 212.557C240.097 211.915 239.475 211.104 239.056 210.185C238.608 209.142 238.394 208.013 238.429 206.877C238.4 205.5 238.668 204.132 239.216 202.868C239.727 201.713 240.482 200.683 241.428 199.847C242.407 198.98 243.54 198.306 244.768 197.858C246.136 197.36 247.569 197.059 249.022 196.965V192.296H251.415V196.965C253.315 197.062 255.187 197.467 256.957 198.167C258.546 198.786 260.051 199.605 261.434 200.602L259.137 204.857ZM243.906 206.048C243.869 206.609 243.974 207.171 244.212 207.68C244.45 208.19 244.813 208.631 245.268 208.962C246.536 209.76 247.932 210.336 249.395 210.664V201.57C247.9 201.534 246.436 201.998 245.236 202.889C244.793 203.284 244.445 203.772 244.215 204.318C243.985 204.865 243.879 205.456 243.906 206.048ZM257.276 221.374C257.304 220.766 257.169 220.161 256.885 219.622C256.6 219.084 256.177 218.631 255.659 218.311C254.247 217.472 252.721 216.841 251.128 216.439V225.575C252.715 225.653 254.292 225.284 255.68 224.512C256.198 224.175 256.618 223.707 256.898 223.157C257.178 222.606 257.308 221.991 257.276 221.374Z" fill="#78DA90"/>
</svg>
