<svg width="499" height="423" viewBox="0 0 499 423" fill="none" xmlns="http://www.w3.org/2000/svg">
<path d="M493.813 133.655C489.222 131.111 487.124 133.235 485.458 131.111C483.792 128.988 490.049 123.595 477.522 118.165C477.522 118.165 476.683 106.478 459.566 106.059C442.448 105.639 447.039 117.746 442.449 120.671C437.858 123.595 436.599 119.005 432.008 121.942C427.417 124.88 429.464 130.704 425.751 131.544C422.317 132.307 417.854 128.568 413.606 130.119C412.189 125.393 410.226 120.847 407.756 116.576C392.254 89.9587 358.452 77.6867 331.988 70.1964C247.762 46.3772 227.389 104.863 175.186 137.076C122.982 169.288 61.6219 139.619 31.813 162.751C2.00412 185.884 -7.94065 243.352 6.60772 269.855C21.1561 296.357 53.3304 304.992 58.3028 317.697C63.2752 330.401 61.7237 334.56 61.7237 334.56H452.139C455.191 334.56 463.254 318.218 464.856 315.039C473.86 296.968 474.953 279.037 459.146 265.15C443.886 251.746 417.498 243.314 415.641 218.402C413.784 193.489 420.168 165.168 415.857 139.899H497.119C497.119 139.899 498.404 136.16 493.813 133.655ZM172.515 278.515H66.8741C66.8741 278.515 69.799 276.43 72.3043 274.7C74.8096 272.971 78.9808 274.7 81.0664 274.7C83.152 274.7 83.152 272.157 87.7556 269.283C92.3592 266.409 97.357 270.949 101.109 270.109C104.86 269.27 102.787 263.433 107.378 260.508C111.969 257.583 113.228 262.174 117.819 259.236C122.41 256.299 117.819 244.192 134.936 244.612C152.053 245.031 152.893 256.731 152.893 256.731C165.419 262.148 159.149 267.579 160.828 269.664C162.507 271.75 164.58 269.664 169.183 272.208C173.787 274.751 172.515 278.515 172.515 278.515ZM343.853 92.553H276.058C276.058 92.553 277.927 91.2813 279.542 90.1495C281.157 89.0177 283.828 90.1495 285.163 90.1495C286.499 90.1495 286.511 88.5344 289.449 86.665C292.387 84.7956 295.617 87.7332 298.033 87.1991C300.449 86.665 299.101 82.9134 302.052 81.0313C305.002 79.1492 305.803 82.0996 308.754 80.2302C311.704 78.3607 308.754 70.5779 319.741 70.8449C330.729 71.112 331.263 78.6151 331.263 78.6151C339.3 82.0996 335.281 85.584 336.35 86.9321C337.418 88.2801 338.766 86.9321 341.716 88.5344C344.667 90.1368 343.853 92.553 343.853 92.553Z" fill="#78DA90"/>
<path d="M219.124 27.6068C214.52 25.0634 212.434 27.1871 210.768 25.0634C209.103 22.9396 215.359 17.5475 202.833 12.1173C202.833 12.1173 201.994 0.430314 184.876 0.0106492C167.759 -0.409015 172.35 11.6977 167.759 14.6226C163.168 17.5475 161.909 12.9567 157.318 15.8943C152.728 18.832 154.775 24.6564 151.049 25.4957C147.323 26.3351 142.287 21.6806 137.696 24.6564C133.105 27.6322 133.092 30.0866 131.007 30.0866C128.921 30.0866 124.75 28.4207 122.245 30.0866C119.739 31.7525 116.814 33.9017 116.814 33.9017H222.455C222.455 33.9017 223.714 30.1502 219.124 27.6068Z" fill="#78DA90"/>
<g opacity="0.7">
<path d="M493.813 133.655C489.222 131.111 487.124 133.235 485.458 131.111C483.792 128.988 490.049 123.595 477.522 118.165C477.522 118.165 476.683 106.478 459.566 106.059C442.448 105.639 447.039 117.746 442.449 120.671C437.858 123.595 436.599 119.005 432.008 121.942C427.417 124.88 429.464 130.704 425.751 131.544C422.317 132.307 417.854 128.568 413.606 130.119C412.189 125.393 410.226 120.847 407.756 116.576C392.254 89.9587 358.452 77.6867 331.988 70.1964C247.762 46.3772 227.389 104.863 175.186 137.076C122.982 169.288 61.6219 139.619 31.813 162.751C2.00412 185.884 -7.94065 243.352 6.60772 269.855C21.1561 296.357 53.3304 304.992 58.3028 317.697C63.2752 330.401 61.7237 334.56 61.7237 334.56H452.139C455.191 334.56 463.254 318.218 464.856 315.039C473.86 296.968 474.953 279.037 459.146 265.15C443.886 251.746 417.498 243.314 415.641 218.402C413.784 193.489 420.168 165.168 415.857 139.899H497.119C497.119 139.899 498.404 136.16 493.813 133.655ZM172.515 278.515H66.8741C66.8741 278.515 69.799 276.43 72.3043 274.7C74.8096 272.971 78.9808 274.7 81.0664 274.7C83.152 274.7 83.152 272.157 87.7556 269.283C92.3592 266.409 97.357 270.949 101.109 270.109C104.86 269.27 102.787 263.433 107.378 260.508C111.969 257.583 113.228 262.174 117.819 259.236C122.41 256.299 117.819 244.192 134.936 244.612C152.053 245.031 152.893 256.731 152.893 256.731C165.419 262.148 159.149 267.579 160.828 269.664C162.507 271.75 164.58 269.664 169.183 272.208C173.787 274.751 172.515 278.515 172.515 278.515ZM343.853 92.553H276.058C276.058 92.553 277.927 91.2813 279.542 90.1495C281.157 89.0177 283.828 90.1495 285.163 90.1495C286.499 90.1495 286.511 88.5344 289.449 86.665C292.387 84.7956 295.617 87.7332 298.033 87.1991C300.449 86.665 299.101 82.9134 302.052 81.0313C305.002 79.1492 305.803 82.0996 308.754 80.2302C311.704 78.3607 308.754 70.5779 319.741 70.8449C330.729 71.112 331.263 78.6151 331.263 78.6151C339.3 82.0996 335.281 85.584 336.35 86.9321C337.418 88.2801 338.766 86.9321 341.716 88.5344C344.667 90.1368 343.853 92.553 343.853 92.553Z" fill="white"/>
<path d="M219.124 27.6068C214.52 25.0634 212.434 27.1871 210.768 25.0634C209.103 22.9396 215.359 17.5475 202.833 12.1173C202.833 12.1173 201.994 0.430314 184.876 0.0106492C167.759 -0.409015 172.35 11.6977 167.759 14.6226C163.168 17.5475 161.909 12.9567 157.318 15.8943C152.728 18.832 154.775 24.6564 151.049 25.4957C147.323 26.3351 142.287 21.6806 137.696 24.6564C133.105 27.6322 133.092 30.0866 131.007 30.0866C128.921 30.0866 124.75 28.4207 122.245 30.0866C119.739 31.7525 116.814 33.9017 116.814 33.9017H222.455C222.455 33.9017 223.714 30.1502 219.124 27.6068Z" fill="white"/>
</g>
<path d="M486.068 252.471L498.48 285.726H490.023L481.566 259.796L486.068 252.471Z" fill="white" stroke="#2E353A" stroke-width="0.887535" stroke-linecap="round" stroke-linejoin="round"/>
<path d="M492.834 334.585H381.038V277.46L484.835 261.602L492.834 283.653V334.585Z" fill="#2E353A"/>
<path d="M396.438 161.709H250.624V334.585H396.438V161.709Z" fill="#2E353A"/>
<path d="M241.645 175.685L235.439 167.648L324.345 99.0137L411.622 166.402L405.429 174.439L324.345 111.833L241.645 175.685Z" fill="#2E353A"/>
<path d="M369.758 161.709H223.943V334.585H369.758V161.709Z" fill="white" stroke="#2E353A" stroke-width="0.887535" stroke-linecap="round" stroke-linejoin="round"/>
<path d="M296.851 105.423L223.943 161.709H369.758L296.851 105.423Z" fill="white" stroke="#2E353A" stroke-width="0.887535" stroke-linejoin="round"/>
<g style="mix-blend-mode:multiply">
<path d="M296.851 105.423L223.943 161.709V174.528L240.552 161.709L296.851 118.242L353.162 161.709L369.758 174.528V161.709L296.851 105.423Z" fill="#78DA90"/>
</g>
<path d="M481.567 277.46H369.758V334.585H481.567V277.46Z" fill="white" stroke="#2E353A" stroke-width="0.887535" stroke-linecap="round" stroke-linejoin="round"/>
<path d="M470.299 277.46H381.038V334.585H470.299V277.46Z" fill="#78DA90" stroke="#2E353A" stroke-width="0.887535" stroke-linecap="round" stroke-linejoin="round"/>
<g style="mix-blend-mode:multiply">
<path d="M481.567 277.46H369.758V289.707H481.567V277.46Z" fill="#78DA90"/>
</g>
<path d="M381.038 294.184H470.287" stroke="#2E353A" stroke-width="0.887535" stroke-linecap="round" stroke-linejoin="round"/>
<path d="M381.038 302.64H470.287" stroke="#2E353A" stroke-width="0.887535" stroke-linecap="round" stroke-linejoin="round"/>
<path d="M381.038 311.097H470.287" stroke="#2E353A" stroke-width="0.887535" stroke-linecap="round" stroke-linejoin="round"/>
<path d="M381.038 319.554H470.287" stroke="#2E353A" stroke-width="0.887535" stroke-linecap="round" stroke-linejoin="round"/>
<path d="M381.038 328.011H470.287" stroke="#2E353A" stroke-width="0.887535" stroke-linecap="round" stroke-linejoin="round"/>
<path d="M265.287 270.694H235.974V334.585H265.287V270.694Z" fill="#2E353A"/>
<path d="M310 270.694H280.688V315.039H310V270.694Z" fill="white" stroke="#2E353A" stroke-width="0.887535" stroke-linecap="round" stroke-linejoin="round"/>
<path d="M310 290.991H280.688V294.756H310V290.991Z" fill="#2E353A"/>
<path d="M297.232 270.694H293.468V315.039H297.232V270.694Z" fill="#2E353A"/>
<path d="M363.743 270.694H334.43V315.039H363.743V270.694Z" fill="white" stroke="#2E353A" stroke-width="0.887535" stroke-linecap="round" stroke-linejoin="round"/>
<path d="M363.743 290.991H334.43V294.756H363.743V290.991Z" fill="#2E353A"/>
<path d="M350.975 270.694H347.211V315.039H350.975V270.694Z" fill="#2E353A"/>
<path d="M325.973 270.694H320.352V334.585H325.973V270.694Z" fill="white" stroke="#2E353A" stroke-width="0.887535" stroke-linecap="round" stroke-linejoin="round"/>
<path d="M276.834 270.694H271.213V334.585H276.834V270.694Z" fill="white" stroke="#2E353A" stroke-width="0.887535" stroke-linecap="round" stroke-linejoin="round"/>
<path d="M363.743 273.327H230.709V281.593H363.743V273.327Z" fill="#2E353A"/>
<path d="M363.743 269.194H230.709V277.46H363.743V269.194Z" fill="#78DA90" stroke="#2E353A" stroke-width="0.887535" stroke-linecap="round" stroke-linejoin="round"/>
<path d="M214.151 175.685L207.945 167.648L296.851 99.0137L384.128 166.402L377.935 174.439L296.851 111.833L214.151 175.685Z" fill="white" stroke="#2E353A" stroke-width="0.887535" stroke-linejoin="round"/>
<path d="M481.566 285.726H358.643L369.923 252.471H486.068L481.566 285.726Z" fill="#2E353A"/>
<path d="M384.128 166.402H409.308L324.345 99.0137H296.851L384.128 166.402Z" fill="#2E353A"/>
<path d="M377.936 174.439H405.43L411.623 166.401H384.129L377.936 174.439Z" fill="#2E353A"/>
<path d="M251.756 187.271H235.974V212.832H251.756V187.271Z" fill="white" stroke="#2E353A" stroke-width="0.887535" stroke-linecap="round" stroke-linejoin="round"/>
<path d="M251.756 200.051H235.974V212.831H251.756V200.051Z" fill="#2E353A"/>
<path d="M251.756 198.627H235.974V201.476H251.756V198.627Z" fill="white" stroke="#2E353A" stroke-width="0.887535" stroke-linecap="round" stroke-linejoin="round"/>
<path d="M251.756 224.1H235.974V249.661H251.756V224.1Z" fill="white" stroke="#2E353A" stroke-width="0.887535" stroke-linecap="round" stroke-linejoin="round"/>
<path d="M251.756 236.753H235.974V249.648H251.756V236.753Z" fill="#2E353A"/>
<path d="M358.477 187.271H342.695V212.832H358.477V187.271Z" fill="white" stroke="#2E353A" stroke-width="0.887535" stroke-linecap="round" stroke-linejoin="round"/>
<path d="M358.477 200.051H342.695V212.831H358.477V200.051Z" fill="#2E353A"/>
<path d="M358.477 224.1H342.695V249.661H358.477V224.1Z" fill="white" stroke="#2E353A" stroke-width="0.887535" stroke-linecap="round" stroke-linejoin="round"/>
<path d="M358.477 235.328H342.695V249.648H358.477V235.328Z" fill="#2E353A"/>
<path d="M303.235 187.271H287.453V212.832H303.235V187.271Z" fill="white" stroke="#2E353A" stroke-width="0.887535" stroke-linecap="round" stroke-linejoin="round"/>
<path d="M303.235 200.051H287.453V212.831H303.235V200.051Z" fill="#2E353A"/>
<path d="M303.235 224.1H287.453V249.661H303.235V224.1Z" fill="white" stroke="#2E353A" stroke-width="0.887535" stroke-linecap="round" stroke-linejoin="round"/>
<path d="M303.235 235.328H287.453V249.648H303.235V235.328Z" fill="#2E353A"/>
<path d="M303.235 198.627H287.453V201.476H303.235V198.627Z" fill="white" stroke="#2E353A" stroke-width="0.887535" stroke-linecap="round" stroke-linejoin="round"/>
<path d="M358.477 198.627H342.695V201.476H358.477V198.627Z" fill="white" stroke="#2E353A" stroke-width="0.887535" stroke-linecap="round" stroke-linejoin="round"/>
<path d="M251.756 233.904H235.974V236.753H251.756V233.904Z" fill="white" stroke="#2E353A" stroke-width="0.887535" stroke-linecap="round" stroke-linejoin="round"/>
<path d="M303.235 233.904H287.453V236.753H303.235V233.904Z" fill="white" stroke="#2E353A" stroke-width="0.887535" stroke-linecap="round" stroke-linejoin="round"/>
<path d="M358.477 233.904H342.695V236.753H358.477V233.904Z" fill="white" stroke="#2E353A" stroke-width="0.887535" stroke-linecap="round" stroke-linejoin="round"/>
<path d="M236.801 169.416V175.686" stroke="#2E353A" stroke-width="0.887535" stroke-linecap="round" stroke-linejoin="round"/>
<path d="M248.08 169.416V175.686" stroke="#2E353A" stroke-width="0.887535" stroke-linecap="round" stroke-linejoin="round"/>
<path d="M241.646 175.686V181.955" stroke="#2E353A" stroke-width="0.887535" stroke-linecap="round" stroke-linejoin="round"/>
<path d="M254.528 175.686V181.955" stroke="#2E353A" stroke-width="0.887535" stroke-linecap="round" stroke-linejoin="round"/>
<path d="M231.803 175.686H257.568" stroke="#2E353A" stroke-width="0.887535" stroke-linecap="round" stroke-linejoin="round"/>
<path d="M236.801 253.158V259.428" stroke="#2E353A" stroke-width="0.887535" stroke-linecap="round" stroke-linejoin="round"/>
<path d="M248.08 253.158V259.428" stroke="#2E353A" stroke-width="0.887535" stroke-linecap="round" stroke-linejoin="round"/>
<path d="M241.646 259.428V265.697" stroke="#2E353A" stroke-width="0.887535" stroke-linecap="round" stroke-linejoin="round"/>
<path d="M254.528 259.428V265.697" stroke="#2E353A" stroke-width="0.887535" stroke-linecap="round" stroke-linejoin="round"/>
<path d="M231.803 259.428H257.568" stroke="#2E353A" stroke-width="0.887535" stroke-linecap="round" stroke-linejoin="round"/>
<path d="M259.653 193.769V200.051" stroke="#2E353A" stroke-width="0.887535" stroke-linecap="round" stroke-linejoin="round"/>
<path d="M270.934 193.769V200.051" stroke="#2E353A" stroke-width="0.887535" stroke-linecap="round" stroke-linejoin="round"/>
<path d="M264.498 200.051V206.32" stroke="#2E353A" stroke-width="0.887535" stroke-linecap="round" stroke-linejoin="round"/>
<path d="M277.381 200.051V206.32" stroke="#2E353A" stroke-width="0.887535" stroke-linecap="round" stroke-linejoin="round"/>
<path d="M254.655 200.051H280.42" stroke="#2E353A" stroke-width="0.887535" stroke-linecap="round" stroke-linejoin="round"/>
<path d="M259.653 206.32H280.42" stroke="#2E353A" stroke-width="0.887535" stroke-linecap="round" stroke-linejoin="round"/>
<path d="M259.653 206.55V212.819" stroke="#2E353A" stroke-width="0.887535" stroke-linecap="round" stroke-linejoin="round"/>
<path d="M270.934 206.55V212.819" stroke="#2E353A" stroke-width="0.887535" stroke-linecap="round" stroke-linejoin="round"/>
<path d="M264.498 212.819V219.089" stroke="#2E353A" stroke-width="0.887535" stroke-linecap="round" stroke-linejoin="round"/>
<path d="M277.381 212.819V219.089" stroke="#2E353A" stroke-width="0.887535" stroke-linecap="round" stroke-linejoin="round"/>
<path d="M254.655 212.819H280.42" stroke="#2E353A" stroke-width="0.887535" stroke-linecap="round" stroke-linejoin="round"/>
<path d="M315.838 235.608V241.878" stroke="#2E353A" stroke-width="0.887535" stroke-linecap="round" stroke-linejoin="round"/>
<path d="M327.117 235.608V241.878" stroke="#2E353A" stroke-width="0.887535" stroke-linecap="round" stroke-linejoin="round"/>
<path d="M320.683 241.878V248.147" stroke="#2E353A" stroke-width="0.887535" stroke-linecap="round" stroke-linejoin="round"/>
<path d="M333.564 241.878V248.147" stroke="#2E353A" stroke-width="0.887535" stroke-linecap="round" stroke-linejoin="round"/>
<path d="M310.84 241.878H336.605" stroke="#2E353A" stroke-width="0.887535" stroke-linecap="round" stroke-linejoin="round"/>
<path d="M315.837 248.147H336.604" stroke="#2E353A" stroke-width="0.887535" stroke-linecap="round" stroke-linejoin="round"/>
<path d="M315.837 248.389V254.658" stroke="#2E353A" stroke-width="0.887535" stroke-linecap="round" stroke-linejoin="round"/>
<path d="M327.117 248.389V254.658" stroke="#2E353A" stroke-width="0.887535" stroke-linecap="round" stroke-linejoin="round"/>
<path d="M320.683 254.658V260.928" stroke="#2E353A" stroke-width="0.887535" stroke-linecap="round" stroke-linejoin="round"/>
<path d="M333.564 254.658V260.928" stroke="#2E353A" stroke-width="0.887535" stroke-linecap="round" stroke-linejoin="round"/>
<path d="M310.84 254.658H336.605" stroke="#2E353A" stroke-width="0.887535" stroke-linecap="round" stroke-linejoin="round"/>
<path d="M13.3217 352.3C38.3235 362.639 102.57 351.448 95.9829 363.504C89.3954 375.56 39.0738 371.033 24.7671 384.068C10.4604 397.103 75.5465 396.06 73.2447 400.015C70.9429 403.97 13.6778 406.679 17.442 412.007H403.305C403.928 407.836 399.489 402.775 392.241 399.29C334.785 396.937 140.086 388.315 160.484 379.986C184.392 370.244 262.45 360.503 276.718 352.873C290.987 345.242 227.783 344.39 217.202 341.008C213.794 339.914 213.387 338.846 214.494 337.917L216.312 338.032V336.875C219.202 335.828 222.182 335.049 225.214 334.547H216.312V332.347L215.04 333.148L212.866 334.547H212.166C213.057 331.794 213.663 328.955 213.972 326.078C214.468 321.105 207.487 332.347 207.487 332.347C207.487 332.347 208.478 328.532 207.487 326.078C206.495 323.623 203.493 329.397 203.493 329.397C203.493 329.397 206.991 315.599 203.493 306.633C199.996 297.668 196.054 329.397 196.054 329.397C196.054 329.397 195.52 317.087 191.031 316.845C187.393 316.642 189.644 325.009 190.636 328.189C189.867 326.405 188.732 324.802 187.304 323.483C184.087 320.406 187.304 330.592 187.304 330.592C187.304 330.592 186.033 327.566 177.627 326.078C169.221 324.59 181.06 332.665 181.06 332.665C177.416 331.619 173.719 330.77 169.984 330.122C168.127 329.817 167.974 330.274 168.585 331.037L167.377 331.813L163.485 334.357C164.76 330.623 165.613 326.758 166.029 322.835C166.665 316.476 157.775 330.821 157.775 330.821C157.775 330.821 159.047 326.001 157.775 322.835C156.504 319.668 152.688 327.057 152.688 327.057C152.688 327.057 157.139 309.495 152.688 298.075C148.238 286.655 143.214 327.057 143.214 327.057C143.214 327.057 142.528 311.402 136.856 311.084C132.239 310.83 135.075 321.398 136.347 325.48C135.368 323.228 133.93 321.205 132.125 319.541C128.017 315.624 132.125 328.583 132.125 328.583C132.125 328.583 130.51 324.768 119.802 322.835C109.094 320.902 124.164 331.228 124.164 331.228C119.525 329.898 114.817 328.819 110.061 327.998C102.939 326.828 115.478 334.573 115.478 334.573H20.952C20.952 334.573 -11.6547 341.974 13.3217 352.3ZM169.005 331.546C170.281 332.676 171.646 333.701 173.087 334.611H169.005V331.546Z" fill="#78DA90"/>
<path d="M321.8 353.84C307.353 360.529 271.478 367.549 271.478 367.549C265.769 368.324 273.5 375.637 313.152 372.012L381.011 334.586H250.979C255.328 336.824 286.307 341.987 303.933 341.987C321.558 341.987 336.247 347.138 321.8 353.84Z" fill="#78DA90"/>
<path d="M425.687 334.586H451.324C438.455 334.09 425.687 334.586 425.687 334.586Z" fill="#78DA90"/>
<path d="M467.984 336.073L407.082 375.318C414.801 375.026 422.877 374.835 430.698 374.644C464.436 373.83 452.19 359.193 454.479 354.03C456.768 348.867 475.92 349.719 477.446 341.109C477.878 338.668 473.898 337.091 467.984 336.073Z" fill="#78DA90"/>
<g opacity="0.3">
<path d="M13.3217 352.3C38.3235 362.639 102.57 351.448 95.9829 363.504C89.3954 375.56 39.0738 371.033 24.7671 384.068C10.4604 397.103 75.5465 396.06 73.2447 400.015C70.9429 403.97 13.6778 406.679 17.442 412.007H403.305C403.928 407.836 399.489 402.775 392.241 399.29C334.785 396.937 140.086 388.315 160.484 379.986C184.392 370.244 262.45 360.503 276.718 352.873C290.987 345.242 227.783 344.39 217.202 341.008C213.794 339.914 213.387 338.846 214.494 337.917L216.312 338.032V336.875C219.202 335.828 222.182 335.049 225.214 334.547H216.312V332.347L215.04 333.148L212.866 334.547H212.166C213.057 331.794 213.663 328.955 213.972 326.078C214.468 321.105 207.487 332.347 207.487 332.347C207.487 332.347 208.478 328.532 207.487 326.078C206.495 323.623 203.493 329.397 203.493 329.397C203.493 329.397 206.991 315.599 203.493 306.633C199.996 297.668 196.054 329.397 196.054 329.397C196.054 329.397 195.52 317.087 191.031 316.845C187.393 316.642 189.644 325.009 190.636 328.189C189.867 326.405 188.732 324.802 187.304 323.483C184.087 320.406 187.304 330.592 187.304 330.592C187.304 330.592 186.033 327.566 177.627 326.078C169.221 324.59 181.06 332.665 181.06 332.665C177.416 331.619 173.719 330.77 169.984 330.122C168.127 329.817 167.974 330.274 168.585 331.037L167.377 331.813L163.485 334.357C164.76 330.623 165.613 326.758 166.029 322.835C166.665 316.476 157.775 330.821 157.775 330.821C157.775 330.821 159.047 326.001 157.775 322.835C156.504 319.668 152.688 327.057 152.688 327.057C152.688 327.057 157.139 309.495 152.688 298.075C148.238 286.655 143.214 327.057 143.214 327.057C143.214 327.057 142.528 311.402 136.856 311.084C132.239 310.83 135.075 321.398 136.347 325.48C135.368 323.228 133.93 321.205 132.125 319.541C128.017 315.624 132.125 328.583 132.125 328.583C132.125 328.583 130.51 324.768 119.802 322.835C109.094 320.902 124.164 331.228 124.164 331.228C119.525 329.898 114.817 328.819 110.061 327.998C102.939 326.828 115.478 334.573 115.478 334.573H20.952C20.952 334.573 -11.6547 341.974 13.3217 352.3ZM169.005 331.546C170.281 332.676 171.646 333.701 173.087 334.611H169.005V331.546Z" fill="white"/>
<path d="M321.8 353.84C307.353 360.529 271.478 367.549 271.478 367.549C265.769 368.324 273.5 375.637 313.152 372.012L381.011 334.586H250.979C255.328 336.824 286.307 341.987 303.933 341.987C321.558 341.987 336.247 347.138 321.8 353.84Z" fill="white"/>
<path d="M425.687 334.586H451.324C438.455 334.09 425.687 334.586 425.687 334.586Z" fill="white"/>
<path d="M467.984 336.073L407.082 375.318C414.801 375.026 422.877 374.835 430.698 374.644C464.436 373.83 452.19 359.193 454.479 354.03C456.768 348.867 475.92 349.719 477.446 341.109C477.878 338.668 473.898 337.091 467.984 336.073Z" fill="white"/>
</g>
<path d="M95.1064 120.696V223.272H244.316V120.696H95.1064ZM108.968 133.299C108.153 133.299 107.357 133.057 106.679 132.605C106.001 132.152 105.473 131.508 105.161 130.755C104.85 130.002 104.768 129.174 104.927 128.375C105.086 127.575 105.478 126.841 106.055 126.265C106.631 125.689 107.365 125.296 108.164 125.137C108.964 124.978 109.792 125.06 110.545 125.372C111.298 125.684 111.941 126.212 112.394 126.889C112.847 127.567 113.088 128.364 113.088 129.179C113.088 130.271 112.654 131.319 111.882 132.092C111.109 132.865 110.061 133.299 108.968 133.299ZM230.315 133.299C229.5 133.299 228.703 133.057 228.026 132.605C227.348 132.152 226.82 131.508 226.508 130.755C226.196 130.002 226.115 129.174 226.274 128.375C226.433 127.575 226.825 126.841 227.401 126.265C227.977 125.689 228.712 125.296 229.511 125.137C230.31 124.978 231.139 125.06 231.892 125.372C232.644 125.684 233.288 126.212 233.741 126.889C234.193 127.567 234.435 128.364 234.435 129.179C234.432 130.27 233.997 131.316 233.225 132.088C232.453 132.86 231.407 133.296 230.315 133.299Z" fill="#78DA90" stroke="#2E353A" stroke-miterlimit="10"/>
<path d="M234.435 129.179C234.435 129.994 234.193 130.79 233.74 131.468C233.287 132.146 232.644 132.674 231.891 132.986C231.138 133.297 230.31 133.379 229.51 133.22C228.711 133.061 227.977 132.669 227.401 132.092C226.824 131.516 226.432 130.782 226.273 129.983C226.114 129.183 226.196 128.355 226.508 127.602C226.819 126.849 227.348 126.206 228.025 125.753C228.703 125.3 229.499 125.059 230.314 125.059H108.968C109.782 125.059 110.579 125.3 111.257 125.753C111.934 126.206 112.462 126.849 112.774 127.602C113.086 128.355 113.168 129.183 113.009 129.983C112.85 130.782 112.457 131.516 111.881 132.092C111.305 132.669 110.571 133.061 109.771 133.22C108.972 133.379 108.144 133.297 107.391 132.986C106.638 132.674 105.994 132.146 105.542 131.468C105.089 130.79 104.847 129.994 104.847 129.179C104.847 128.086 105.281 127.038 106.054 126.265C106.827 125.493 107.875 125.059 108.968 125.059H99.4043V217.614H238.606V125.059H230.314C231.407 125.059 232.455 125.493 233.228 126.265C234 127.038 234.435 128.086 234.435 129.179Z" fill="#2E353A"/>
<path d="M108.967 81.0186C107.783 81.0211 106.626 81.3745 105.643 82.0342C104.66 82.6939 103.894 83.6302 103.443 84.7249C102.991 85.8196 102.874 87.0236 103.107 88.1847C103.339 89.3457 103.911 90.4118 104.749 91.2482C105.587 92.0846 106.655 92.6538 107.816 92.8839C108.978 93.114 110.181 92.9946 111.275 92.5409C112.369 92.0872 113.304 91.3195 113.961 90.3347C114.619 89.35 114.97 88.1925 114.97 87.0083C114.97 86.2207 114.814 85.4407 114.513 84.7132C114.211 83.9857 113.768 83.3248 113.211 82.7684C112.653 82.2121 111.992 81.7711 111.263 81.4709C110.535 81.1706 109.755 81.0169 108.967 81.0186ZM108.967 91.0015C108.178 90.999 107.407 90.7627 106.752 90.3224C106.097 89.8821 105.587 89.2575 105.287 88.5277C104.987 87.7978 104.91 86.9953 105.065 86.2215C105.221 85.4478 105.602 84.7374 106.161 84.1803C106.72 83.6231 107.431 83.244 108.206 83.091C108.98 82.9379 109.782 83.0177 110.511 83.3203C111.24 83.6229 111.863 84.1348 112.301 84.7912C112.739 85.4476 112.973 86.2191 112.973 87.0083C112.977 87.5365 112.875 88.0602 112.676 88.5491C112.476 89.0381 112.181 89.4827 111.809 89.8574C111.437 90.2321 110.994 90.5294 110.506 90.7323C110.018 90.9352 109.495 91.0397 108.967 91.0397V91.0015Z" fill="white" stroke="#2E353A" stroke-width="0.916642" stroke-linecap="round" stroke-linejoin="round"/>
<path d="M108.967 95.4024C107.78 95.4024 106.619 95.7547 105.631 96.4149C104.644 97.075 103.874 98.0132 103.421 99.1107C102.967 100.208 102.848 101.416 103.081 102.581C103.314 103.745 103.887 104.815 104.727 105.654C105.568 106.493 106.639 107.063 107.804 107.294C108.969 107.524 110.177 107.403 111.273 106.947C112.37 106.49 113.306 105.719 113.964 104.73C114.622 103.742 114.972 102.58 114.97 101.392C114.97 100.604 114.814 99.8245 114.513 99.097C114.211 98.3695 113.768 97.7086 113.211 97.1522C112.653 96.5959 111.992 96.1549 111.263 95.8546C110.535 95.5544 109.755 95.4007 108.967 95.4024ZM108.967 105.398C108.175 105.398 107.401 105.163 106.742 104.723C106.083 104.283 105.57 103.657 105.266 102.925C104.963 102.193 104.884 101.388 105.038 100.611C105.193 99.8335 105.574 99.1198 106.135 98.5595C106.695 97.9993 107.409 97.6178 108.186 97.4632C108.963 97.3086 109.768 97.388 110.5 97.6912C111.232 97.9944 111.858 98.5078 112.298 99.1666C112.738 99.8253 112.973 100.6 112.973 101.392C112.973 102.455 112.551 103.473 111.8 104.225C111.049 104.976 110.03 105.398 108.967 105.398Z" fill="white" stroke="#2E353A" stroke-width="0.916642" stroke-linecap="round" stroke-linejoin="round"/>
<path d="M108.968 108.081C107.784 108.084 106.627 108.437 105.644 109.097C104.661 109.756 103.895 110.693 103.444 111.787C102.992 112.882 102.875 114.086 103.108 115.247C103.34 116.408 103.912 117.474 104.75 118.311C105.588 119.147 106.656 119.716 107.817 119.946C108.979 120.176 110.182 120.057 111.276 119.603C112.37 119.15 113.305 118.382 113.962 117.397C114.62 116.413 114.971 115.255 114.971 114.071C114.971 113.283 114.815 112.503 114.514 111.776C114.212 111.048 113.769 110.387 113.212 109.831C112.654 109.275 111.993 108.834 111.264 108.533C110.536 108.233 109.756 108.079 108.968 108.081ZM108.968 118.064C108.179 118.061 107.408 117.825 106.753 117.385C106.098 116.945 105.588 116.32 105.288 115.59C104.988 114.86 104.911 114.058 105.066 113.284C105.222 112.51 105.603 111.8 106.162 111.243C106.721 110.686 107.432 110.307 108.207 110.153C108.981 110 109.783 110.08 110.512 110.383C111.241 110.685 111.864 111.197 112.302 111.854C112.74 112.51 112.974 113.282 112.974 114.071C112.971 115.131 112.547 116.147 111.796 116.895C111.045 117.644 110.028 118.064 108.968 118.064Z" fill="white" stroke="#2E353A" stroke-width="0.916642" stroke-linecap="round" stroke-linejoin="round"/>
<path d="M108.968 100.743C108.688 100.743 108.419 100.632 108.221 100.434C108.023 100.236 107.912 99.9676 107.912 99.6877V89.8065C107.912 89.5266 108.023 89.2581 108.221 89.0601C108.419 88.8622 108.688 88.751 108.968 88.751C109.249 88.751 109.519 88.8617 109.719 89.0593C109.918 89.2569 110.033 89.5254 110.036 89.8065V99.6877C110.033 99.9688 109.918 100.237 109.719 100.435C109.519 100.632 109.249 100.743 108.968 100.743Z" fill="white" stroke="#2E353A" stroke-width="0.916642" stroke-linecap="round" stroke-linejoin="round"/>
<path d="M108.968 114.338C108.688 114.338 108.419 114.227 108.221 114.029C108.023 113.831 107.912 113.562 107.912 113.282V103.401C107.912 103.121 108.023 102.853 108.221 102.655C108.419 102.457 108.688 102.346 108.968 102.346C109.249 102.346 109.519 102.456 109.719 102.654C109.918 102.852 110.033 103.12 110.036 103.401V113.282C110.033 113.564 109.918 113.832 109.719 114.03C109.519 114.227 109.249 114.338 108.968 114.338Z" fill="white" stroke="#2E353A" stroke-width="0.916642" stroke-linecap="round" stroke-linejoin="round"/>
<path d="M108.968 127.958C108.688 127.958 108.419 127.847 108.221 127.649C108.023 127.451 107.912 127.182 107.912 126.903V117.021C107.912 116.883 107.939 116.745 107.992 116.617C108.045 116.489 108.123 116.373 108.221 116.275C108.319 116.177 108.436 116.099 108.564 116.046C108.692 115.993 108.829 115.966 108.968 115.966C109.249 115.966 109.519 116.077 109.719 116.274C109.918 116.472 110.033 116.74 110.036 117.021V126.903C110.033 127.184 109.918 127.452 109.719 127.65C109.519 127.847 109.249 127.958 108.968 127.958Z" fill="white" stroke="#2E353A" stroke-width="0.916642" stroke-linecap="round" stroke-linejoin="round"/>
<path d="M230.315 81.0186C229.131 81.0211 227.974 81.3745 226.991 82.0342C226.007 82.6939 225.242 83.6302 224.79 84.7249C224.339 85.8196 224.222 87.0236 224.455 88.1847C224.687 89.3457 225.259 90.4118 226.097 91.2482C226.935 92.0846 228.002 92.6538 229.164 92.8839C230.325 93.114 231.529 92.9946 232.623 92.5409C233.717 92.0872 234.651 91.3195 235.309 90.3347C235.966 89.35 236.317 88.1925 236.317 87.0083C236.317 86.2207 236.162 85.4407 235.86 84.7132C235.558 83.9857 235.116 83.3248 234.559 82.7684C234.001 82.2121 233.339 81.7711 232.611 81.4709C231.883 81.1706 231.103 81.0169 230.315 81.0186ZM230.315 91.0015C229.526 90.999 228.755 90.7627 228.1 90.3224C227.445 89.8821 226.935 89.2575 226.635 88.5277C226.335 87.7978 226.257 86.9953 226.413 86.2215C226.568 85.4478 226.95 84.7374 227.509 84.1803C228.068 83.6231 228.779 83.244 229.553 83.091C230.328 82.9379 231.13 83.0177 231.859 83.3203C232.588 83.6229 233.211 84.1348 233.649 84.7912C234.087 85.4476 234.321 86.2191 234.321 87.0083C234.324 87.5365 234.223 88.0602 234.023 88.5491C233.823 89.0381 233.529 89.4827 233.157 89.8574C232.784 90.2321 232.341 90.5294 231.854 90.7323C231.366 90.9352 230.843 91.0397 230.315 91.0397V91.0015Z" fill="white" stroke="#2E353A" stroke-width="0.916642" stroke-linecap="round" stroke-linejoin="round"/>
<path d="M230.315 95.4024C229.127 95.4024 227.966 95.7547 226.979 96.4149C225.991 97.075 225.222 98.0132 224.768 99.1107C224.314 100.208 224.196 101.416 224.429 102.581C224.661 103.745 225.234 104.815 226.075 105.654C226.916 106.493 227.987 107.063 229.152 107.294C230.317 107.524 231.524 107.403 232.621 106.947C233.717 106.49 234.654 105.719 235.312 104.73C235.97 103.742 236.32 102.58 236.317 101.392C236.317 100.604 236.162 99.8245 235.86 99.097C235.558 98.3695 235.116 97.7086 234.559 97.1522C234.001 96.5959 233.339 96.1549 232.611 95.8546C231.883 95.5544 231.103 95.4007 230.315 95.4024ZM230.315 105.398C229.523 105.398 228.748 105.163 228.089 104.723C227.431 104.283 226.917 103.657 226.614 102.925C226.311 102.193 226.231 101.388 226.386 100.611C226.541 99.8335 226.922 99.1198 227.482 98.5595C228.043 97.9993 228.756 97.6178 229.533 97.4632C230.311 97.3086 231.116 97.388 231.848 97.6912C232.58 97.9944 233.206 98.5078 233.646 99.1666C234.086 99.8253 234.321 100.6 234.321 101.392C234.321 101.918 234.217 102.439 234.016 102.925C233.815 103.411 233.52 103.853 233.148 104.225C232.776 104.597 232.334 104.892 231.848 105.093C231.362 105.294 230.841 105.398 230.315 105.398Z" fill="white" stroke="#2E353A" stroke-width="0.916642" stroke-linecap="round" stroke-linejoin="round"/>
<path d="M230.315 108.081C229.131 108.084 227.974 108.437 226.991 109.097C226.007 109.756 225.242 110.693 224.79 111.787C224.339 112.882 224.222 114.086 224.455 115.247C224.687 116.408 225.259 117.474 226.097 118.311C226.935 119.147 228.002 119.716 229.164 119.946C230.325 120.176 231.529 120.057 232.623 119.603C233.717 119.15 234.651 118.382 235.309 117.397C235.966 116.413 236.317 115.255 236.317 114.071C236.317 113.283 236.162 112.503 235.86 111.776C235.558 111.048 235.116 110.387 234.559 109.831C234.001 109.275 233.339 108.834 232.611 108.533C231.883 108.233 231.103 108.079 230.315 108.081ZM230.315 118.064C229.526 118.061 228.755 117.825 228.1 117.385C227.445 116.945 226.935 116.32 226.635 115.59C226.335 114.86 226.257 114.058 226.413 113.284C226.568 112.51 226.95 111.8 227.509 111.243C228.068 110.686 228.779 110.307 229.553 110.153C230.328 110 231.13 110.08 231.859 110.383C232.588 110.685 233.211 111.197 233.649 111.854C234.087 112.51 234.321 113.282 234.321 114.071C234.317 115.131 233.894 116.147 233.143 116.895C232.392 117.644 231.375 118.064 230.315 118.064Z" fill="white" stroke="#2E353A" stroke-width="0.916642" stroke-linecap="round" stroke-linejoin="round"/>
<path d="M230.314 100.743C230.034 100.743 229.766 100.632 229.568 100.434C229.37 100.236 229.259 99.9676 229.259 99.6877V89.8065C229.259 89.5266 229.37 89.2581 229.568 89.0601C229.766 88.8622 230.034 88.751 230.314 88.751C230.595 88.751 230.865 88.8617 231.065 89.0593C231.265 89.2569 231.379 89.5254 231.383 89.8065V99.6877C231.379 99.9688 231.265 100.237 231.065 100.435C230.865 100.632 230.595 100.743 230.314 100.743Z" fill="white" stroke="#2E353A" stroke-width="0.916642" stroke-linecap="round" stroke-linejoin="round"/>
<path d="M230.314 114.338C230.034 114.338 229.766 114.227 229.568 114.029C229.37 113.831 229.259 113.562 229.259 113.282V103.401C229.259 103.121 229.37 102.853 229.568 102.655C229.766 102.457 230.034 102.346 230.314 102.346C230.595 102.346 230.865 102.456 231.065 102.654C231.265 102.852 231.379 103.12 231.383 103.401V113.282C231.379 113.564 231.265 113.832 231.065 114.03C230.865 114.227 230.595 114.338 230.314 114.338Z" fill="white" stroke="#2E353A" stroke-width="0.916642" stroke-linecap="round" stroke-linejoin="round"/>
<path d="M230.314 127.958C230.034 127.958 229.766 127.847 229.568 127.649C229.37 127.451 229.259 127.182 229.259 126.903V117.021C229.259 116.883 229.286 116.745 229.339 116.617C229.392 116.489 229.47 116.373 229.568 116.275C229.666 116.177 229.782 116.099 229.91 116.046C230.038 115.993 230.176 115.966 230.314 115.966C230.595 115.966 230.865 116.077 231.065 116.274C231.265 116.472 231.379 116.74 231.383 117.021V126.903C231.379 127.184 231.265 127.452 231.065 127.65C230.865 127.847 230.595 127.958 230.314 127.958Z" fill="white" stroke="#2E353A" stroke-width="0.916642" stroke-linecap="round" stroke-linejoin="round"/>
<path d="M261.293 84.1851H28.2645L20.9395 63.9395H277.38L261.293 84.1851Z" fill="#2E353A" stroke="#2E353A" stroke-width="0.887535" stroke-linecap="round" stroke-linejoin="round"/>
<path d="M255.355 84.1851H22.327L15.002 63.9395H271.455L255.355 84.1851Z" fill="white" stroke="#2E353A" stroke-width="0.887535" stroke-linecap="round" stroke-linejoin="round"/>
<path d="M65.5776 405.776H46.5146L52.2755 7.84473H55.6583L65.5776 21.9226V405.776Z" fill="#2E353A" stroke="#2E353A" stroke-width="0.887535" stroke-linecap="round" stroke-linejoin="round"/>
<path d="M62.1821 405.776H43.1191V21.9226L52.2755 7.84473L62.1821 21.9226V405.776Z" fill="white" stroke="#2E353A" stroke-width="0.887535" stroke-linecap="round" stroke-linejoin="round"/>
<path d="M138.867 147.185V173H134.636V156.326C134.636 155.659 134.672 154.939 134.743 154.166L126.942 168.823C126.573 169.525 126.007 169.876 125.246 169.876H124.567C123.805 169.876 123.24 169.525 122.871 168.823L114.98 154.112C115.016 154.505 115.046 154.892 115.07 155.272C115.093 155.653 115.105 156.004 115.105 156.326V173H110.874V147.185H114.498C114.713 147.185 114.897 147.191 115.052 147.203C115.206 147.215 115.343 147.245 115.462 147.292C115.593 147.34 115.706 147.417 115.802 147.524C115.909 147.632 116.01 147.774 116.105 147.953L123.835 162.288C124.038 162.669 124.222 163.062 124.389 163.467C124.567 163.871 124.74 164.288 124.906 164.716C125.073 164.276 125.246 163.854 125.424 163.449C125.603 163.032 125.793 162.634 125.995 162.253L133.618 147.953C133.714 147.774 133.815 147.632 133.922 147.524C134.029 147.417 134.142 147.34 134.261 147.292C134.392 147.245 134.535 147.215 134.69 147.203C134.844 147.191 135.029 147.185 135.243 147.185H138.867ZM155.713 163.003V173H150.929V163.003L141.52 147.185H145.751C146.168 147.185 146.495 147.286 146.733 147.489C146.983 147.691 147.192 147.947 147.358 148.256L152.071 156.879C152.345 157.391 152.583 157.873 152.785 158.325C153 158.777 153.19 159.23 153.357 159.682C153.511 159.23 153.69 158.777 153.892 158.325C154.094 157.873 154.327 157.391 154.588 156.879L159.284 148.256C159.415 147.995 159.611 147.751 159.873 147.524C160.135 147.298 160.468 147.185 160.872 147.185H165.121L155.713 163.003Z" fill="white"/>
<path d="M116.219 187.914C116.705 187.914 117.128 187.855 117.49 187.737C117.851 187.612 118.15 187.438 118.387 187.215C118.63 186.985 118.81 186.709 118.929 186.387C119.047 186.058 119.106 185.694 119.106 185.293C119.106 184.912 119.047 184.567 118.929 184.258C118.81 183.949 118.633 183.686 118.396 183.47C118.16 183.253 117.861 183.089 117.5 182.977C117.138 182.859 116.711 182.8 116.219 182.8H114.238V187.914H116.219ZM116.219 180.75C117.171 180.75 117.996 180.861 118.692 181.085C119.389 181.308 119.963 181.62 120.417 182.021C120.87 182.422 121.205 182.901 121.422 183.46C121.645 184.018 121.757 184.629 121.757 185.293C121.757 185.983 121.642 186.617 121.412 187.195C121.182 187.766 120.837 188.259 120.377 188.673C119.917 189.087 119.339 189.409 118.643 189.639C117.953 189.869 117.145 189.984 116.219 189.984H114.238V195H111.587V180.75H116.219ZM128.097 187.53C128.596 187.53 129.029 187.467 129.397 187.343C129.772 187.218 130.077 187.047 130.314 186.83C130.557 186.607 130.738 186.344 130.856 186.042C130.974 185.74 131.033 185.408 131.033 185.046C131.033 184.324 130.794 183.769 130.314 183.381C129.841 182.993 129.115 182.8 128.136 182.8H126.441V187.53H128.097ZM134.916 195H132.521C132.068 195 131.74 194.823 131.536 194.468L128.54 189.905C128.428 189.734 128.304 189.613 128.166 189.54C128.034 189.468 127.837 189.432 127.574 189.432H126.441V195H123.79V180.75H128.136C129.102 180.75 129.93 180.852 130.619 181.055C131.316 181.252 131.884 181.531 132.324 181.893C132.771 182.254 133.1 182.688 133.31 183.194C133.52 183.693 133.625 184.245 133.625 184.849C133.625 185.329 133.553 185.782 133.408 186.209C133.27 186.636 133.067 187.024 132.797 187.372C132.535 187.72 132.206 188.026 131.812 188.289C131.424 188.552 130.981 188.758 130.481 188.91C130.652 189.008 130.81 189.126 130.955 189.264C131.099 189.396 131.23 189.553 131.349 189.737L134.916 195ZM149.853 187.875C149.853 188.919 149.679 189.889 149.33 190.782C148.989 191.669 148.503 192.438 147.872 193.088C147.241 193.739 146.482 194.248 145.595 194.616C144.708 194.977 143.723 195.158 142.639 195.158C141.561 195.158 140.579 194.977 139.692 194.616C138.805 194.248 138.043 193.739 137.406 193.088C136.775 192.438 136.286 191.669 135.937 190.782C135.589 189.889 135.415 188.919 135.415 187.875C135.415 186.83 135.589 185.864 135.937 184.977C136.286 184.084 136.775 183.312 137.406 182.662C138.043 182.011 138.805 181.505 139.692 181.144C140.579 180.776 141.561 180.592 142.639 180.592C143.362 180.592 144.042 180.677 144.679 180.848C145.316 181.012 145.901 181.249 146.433 181.558C146.965 181.86 147.442 182.231 147.862 182.671C148.289 183.105 148.65 183.591 148.946 184.13C149.242 184.669 149.465 185.253 149.616 185.884C149.774 186.515 149.853 187.178 149.853 187.875ZM147.143 187.875C147.143 187.093 147.037 186.393 146.827 185.776C146.617 185.152 146.318 184.623 145.93 184.189C145.543 183.755 145.07 183.424 144.511 183.194C143.959 182.964 143.335 182.849 142.639 182.849C141.942 182.849 141.315 182.964 140.757 183.194C140.205 183.424 139.732 183.755 139.337 184.189C138.95 184.623 138.651 185.152 138.441 185.776C138.23 186.393 138.125 187.093 138.125 187.875C138.125 188.657 138.23 189.36 138.441 189.984C138.651 190.601 138.95 191.127 139.337 191.561C139.732 191.988 140.205 192.316 140.757 192.546C141.315 192.776 141.942 192.891 142.639 192.891C143.335 192.891 143.959 192.776 144.511 192.546C145.07 192.316 145.543 191.988 145.93 191.561C146.318 191.127 146.617 190.601 146.827 189.984C147.037 189.36 147.143 188.657 147.143 187.875ZM156.813 187.914C157.299 187.914 157.723 187.855 158.084 187.737C158.445 187.612 158.744 187.438 158.981 187.215C159.224 186.985 159.404 186.709 159.523 186.387C159.641 186.058 159.7 185.694 159.7 185.293C159.7 184.912 159.641 184.567 159.523 184.258C159.404 183.949 159.227 183.686 158.991 183.47C158.754 183.253 158.455 183.089 158.094 182.977C157.732 182.859 157.305 182.8 156.813 182.8H154.832V187.914H156.813ZM156.813 180.75C157.765 180.75 158.59 180.861 159.286 181.085C159.983 181.308 160.558 181.62 161.011 182.021C161.464 182.422 161.799 182.901 162.016 183.46C162.239 184.018 162.351 184.629 162.351 185.293C162.351 185.983 162.236 186.617 162.006 187.195C161.776 187.766 161.431 188.259 160.971 188.673C160.512 189.087 159.933 189.409 159.237 189.639C158.547 189.869 157.739 189.984 156.813 189.984H154.832V195H152.181V180.75H156.813ZM167.045 182.859V186.81H172.032V188.85H167.045V192.881H173.372V195H164.384V180.75H173.372V182.859H167.045ZM180.028 187.53C180.527 187.53 180.961 187.467 181.329 187.343C181.703 187.218 182.009 187.047 182.245 186.83C182.488 186.607 182.669 186.344 182.787 186.042C182.905 185.74 182.965 185.408 182.965 185.046C182.965 184.324 182.725 183.769 182.245 183.381C181.772 182.993 181.046 182.8 180.067 182.8H178.372V187.53H180.028ZM186.847 195H184.453C183.999 195 183.671 194.823 183.467 194.468L180.471 189.905C180.36 189.734 180.235 189.613 180.097 189.54C179.965 189.468 179.768 189.432 179.505 189.432H178.372V195H175.721V180.75H180.067C181.033 180.75 181.861 180.852 182.551 181.055C183.247 181.252 183.815 181.531 184.256 181.893C184.702 182.254 185.031 182.688 185.241 183.194C185.451 183.693 185.556 184.245 185.556 184.849C185.556 185.329 185.484 185.782 185.34 186.209C185.202 186.636 184.998 187.024 184.729 187.372C184.466 187.72 184.137 188.026 183.743 188.289C183.355 188.552 182.912 188.758 182.413 188.91C182.584 189.008 182.741 189.126 182.886 189.264C183.03 189.396 183.162 189.553 183.28 189.737L186.847 195ZM197.974 182.928H193.677V195H191.026V182.928H186.73V180.75H197.974V182.928ZM202.5 195H199.839V180.75H202.5V195ZM208.351 182.859V186.81H213.338V188.85H208.351V192.881H214.678V195H205.69V180.75H214.678V182.859H208.351ZM224.616 183.342C224.537 183.48 224.452 183.581 224.36 183.647C224.274 183.706 224.166 183.736 224.034 183.736C223.896 183.736 223.745 183.686 223.581 183.588C223.423 183.483 223.233 183.368 223.009 183.243C222.786 183.118 222.523 183.006 222.221 182.908C221.925 182.803 221.574 182.75 221.167 182.75C220.799 182.75 220.477 182.796 220.201 182.888C219.925 182.974 219.692 183.095 219.501 183.253C219.317 183.411 219.179 183.601 219.087 183.824C218.995 184.041 218.949 184.281 218.949 184.544C218.949 184.879 219.041 185.158 219.225 185.382C219.416 185.605 219.665 185.795 219.974 185.953C220.283 186.111 220.634 186.252 221.029 186.377C221.423 186.502 221.827 186.636 222.241 186.781C222.655 186.919 223.059 187.083 223.453 187.274C223.847 187.458 224.199 187.694 224.507 187.983C224.816 188.266 225.063 188.614 225.247 189.028C225.437 189.442 225.532 189.944 225.532 190.536C225.532 191.18 225.421 191.784 225.197 192.349C224.98 192.907 224.659 193.397 224.231 193.817C223.811 194.231 223.295 194.56 222.684 194.803C222.073 195.039 221.374 195.158 220.585 195.158C220.132 195.158 219.685 195.112 219.245 195.02C218.805 194.934 218.381 194.809 217.974 194.645C217.573 194.481 217.195 194.284 216.84 194.054C216.485 193.824 216.17 193.568 215.894 193.285L216.673 192.014C216.738 191.922 216.824 191.846 216.929 191.787C217.034 191.722 217.146 191.689 217.264 191.689C217.428 191.689 217.606 191.758 217.796 191.896C217.987 192.027 218.213 192.175 218.476 192.339C218.739 192.503 219.044 192.655 219.393 192.792C219.747 192.924 220.171 192.99 220.664 192.99C221.419 192.99 222.004 192.812 222.418 192.457C222.832 192.096 223.039 191.58 223.039 190.91C223.039 190.536 222.944 190.23 222.753 189.994C222.569 189.757 222.323 189.56 222.014 189.402C221.705 189.238 221.354 189.1 220.96 188.988C220.565 188.877 220.165 188.755 219.757 188.624C219.35 188.492 218.949 188.335 218.555 188.151C218.161 187.967 217.809 187.727 217.5 187.431C217.192 187.136 216.942 186.768 216.752 186.328C216.568 185.881 216.476 185.332 216.476 184.682C216.476 184.163 216.577 183.657 216.781 183.164C216.991 182.671 217.294 182.234 217.688 181.853C218.082 181.472 218.568 181.167 219.146 180.937C219.724 180.707 220.388 180.592 221.137 180.592C221.978 180.592 222.753 180.723 223.463 180.986C224.172 181.249 224.777 181.617 225.276 182.09L224.616 183.342Z" fill="white"/>
<path d="M46.5137 405.775V381.295" stroke="#2E353A" stroke-width="0.887535" stroke-linecap="round" stroke-linejoin="round"/>
<path d="M49.8457 405.775V316.361" stroke="#2E353A" stroke-width="0.887535" stroke-linecap="round" stroke-linejoin="round"/>
<path d="M46.5137 377.582V368.68" stroke="#2E353A" stroke-width="0.887535" stroke-linecap="round" stroke-linejoin="round"/>
<path d="M56.0391 248.172V239.271" stroke="#2E353A" stroke-width="0.887535" stroke-linecap="round" stroke-linejoin="round"/>
<path d="M46.5137 25.7252V16.8232" stroke="#2E353A" stroke-width="0.887535" stroke-linecap="round" stroke-linejoin="round"/>
<path d="M46.5137 37.4498V28.5479" stroke="#2E353A" stroke-width="0.887535" stroke-linecap="round" stroke-linejoin="round"/>
<path d="M56.0391 304.611V258.168" stroke="#2E353A" stroke-width="0.887535" stroke-linecap="round" stroke-linejoin="round"/>
<path d="M16.8711 68.1621H23.5476" stroke="#2E353A" stroke-width="0.887535" stroke-linecap="round" stroke-linejoin="round"/>
<path d="M19.834 71.5068H35.794" stroke="#2E353A" stroke-width="0.887535" stroke-linecap="round" stroke-linejoin="round"/>
<path d="M79.1592 71.5068H95.1064" stroke="#2E353A" stroke-width="0.887535" stroke-linecap="round" stroke-linejoin="round"/>
<path d="M87.1328 75.2197H92.7411" stroke="#2E353A" stroke-width="0.887535" stroke-linecap="round" stroke-linejoin="round"/>
<path d="M115.453 75.2197H148.747" stroke="#2E353A" stroke-width="0.887535" stroke-linecap="round" stroke-linejoin="round"/>
<path d="M262.845 75.2197H257.275" stroke="#2E353A" stroke-width="0.887535" stroke-linecap="round" stroke-linejoin="round"/>
<path d="M260.238 77.8145H241.327" stroke="#2E353A" stroke-width="0.887535" stroke-linecap="round" stroke-linejoin="round"/>
<path d="M4.42059 411.663H16.8961C16.8961 411.663 -5.75309 391.469 4.42059 393.529C14.5943 395.589 23.4963 402.761 23.4963 402.761C23.4963 402.761 11.4659 391.443 19.7829 393.503C28.0999 395.564 27.7565 398.972 27.7565 398.972C27.7565 398.972 28.4051 374.517 35.7428 381.27C40.0026 384.994 42.6325 390.24 43.0679 395.881C43.0679 395.881 58.7481 376.488 62.1435 377.556C65.539 378.624 65.539 390.489 65.539 390.489C65.539 390.489 91.8761 369.023 87.0945 381.27C82.3129 393.516 79.1209 398.12 79.1209 398.12C79.1209 398.12 91.4819 387.196 89.905 393.503C89.2316 396.548 88.2911 399.526 87.0945 402.405C87.0945 402.405 105.687 408.23 102.94 408.217C100.193 408.204 95.0681 411.74 95.0681 411.74C95.0681 411.74 126.467 406.653 120.502 411.74C114.538 416.827 65.5136 415.975 65.5136 415.975C65.5136 415.975 89.4599 421.837 79.159 421.837C68.8582 421.837 52.6566 417.59 52.6566 417.59C52.6566 417.59 28.4941 422.676 19.8337 421.837C11.1734 420.998 35.7937 417.59 35.7937 417.59C35.7937 417.59 -11.0561 417.64 4.42059 411.663Z" fill="#2E353A" stroke="#2E353A" stroke-width="0.916642" stroke-linecap="round" stroke-linejoin="round"/>
</svg>
