<svg width="50" height="51" viewBox="0 0 50 51" fill="none" xmlns="http://www.w3.org/2000/svg">
<path d="M18.8 7.57949C21.105 5.23949 22.505 2.67949 22.505 0.291992H27.505C27.505 2.68199 28.905 5.24199 31.21 7.58199C33.485 9.88949 36.3025 11.6245 38.37 12.392C39.2125 12.7045 39.755 12.792 40 12.792H42.5V17.792H40V22.792H50V27.792H47.5V45.292H50V50.292H0V45.292H2.5V27.792H0V22.792H10.005V17.792H7.5V12.792H10C10.245 12.792 10.79 12.7045 11.635 12.392C13.7025 11.622 16.5225 9.88699 18.7975 7.57949M15.0025 17.792V22.792H35V17.792H15.0025ZM29.5 12.792C28.86 12.257 28.24 11.692 27.65 11.092C26.6674 10.103 25.7817 9.02221 25.005 7.86449C24.2281 9.02133 23.3424 10.1012 22.36 11.0895C21.77 11.6895 21.15 12.257 20.51 12.792H29.5ZM7.5 27.792V45.292H22.505V35.292H27.505V45.292H42.5V27.792H7.5Z" fill="#34C759"/>
</svg>
