<svg width="21" height="22" viewBox="0 0 21 22" fill="none" xmlns="http://www.w3.org/2000/svg">
<path fill-rule="evenodd" clip-rule="evenodd" d="M4.74664 11C4.74664 10.3296 4.85809 9.68686 5.05702 9.084L1.5751 6.42767C0.896494 7.80416 0.51416 9.35517 0.51416 11C0.51416 12.6434 0.896024 14.1935 1.57369 15.5691L5.05373 12.9076C4.85668 12.3075 4.74664 11.6671 4.74664 11Z" fill="#FBBC05"/>
<path fill-rule="evenodd" clip-rule="evenodd" d="M10.8603 4.90105C12.3182 4.90105 13.6349 5.41711 14.6695 6.26158L17.6793 3.25902C15.8452 1.66391 13.4939 0.678696 10.8603 0.678696C6.77174 0.678696 3.25784 3.01459 1.5752 6.42766L5.05711 9.08399C5.8594 6.65098 8.14635 4.90105 10.8603 4.90105Z" fill="#EB4335"/>
<path fill-rule="evenodd" clip-rule="evenodd" d="M10.8603 17.099C8.14635 17.099 5.8594 15.349 5.05711 12.916L1.5752 15.5719C3.25784 18.9854 6.77174 21.3213 10.8603 21.3213C13.3838 21.3213 15.793 20.4262 17.6012 18.749L14.2961 16.1963C13.3636 16.7832 12.1893 17.099 10.8603 17.099Z" fill="#34A853"/>
<path fill-rule="evenodd" clip-rule="evenodd" d="M20.7356 11C20.7356 10.3901 20.6416 9.73328 20.5005 9.12338H10.8599V13.1112H16.4091C16.1316 14.4708 15.3764 15.516 14.2957 16.1963L17.6008 18.7489C19.5002 16.9877 20.7356 14.3643 20.7356 11Z" fill="#4285F4"/>
</svg>
