<svg width="20" height="19" viewBox="0 0 20 19" fill="none" xmlns="http://www.w3.org/2000/svg">
<path d="M10 18.153C9.8717 18.1537 9.74452 18.1274 9.62574 18.0756C9.50697 18.0237 9.39893 17.9472 9.30784 17.8506L1.73311 9.73996C0.78296 8.71328 0.25 7.32716 0.25 5.8827C0.25 4.43824 0.78296 3.05212 1.73311 2.02544C2.69068 1.00433 3.98781 0.430908 5.34012 0.430908C6.69243 0.430908 7.98956 1.00433 8.94714 2.02544L10 3.15135L11.0529 2.02544C12.0104 1.00433 13.3076 0.430908 14.6599 0.430908C16.0122 0.430908 17.3093 1.00433 18.2669 2.02544C19.217 3.05212 19.75 4.43824 19.75 5.8827C19.75 7.32716 19.217 8.71328 18.2669 9.73996L10.6922 17.8506C10.6011 17.9472 10.493 18.0237 10.3743 18.0756C10.2555 18.1274 10.1283 18.1537 10 18.153ZM5.34012 2.51542C4.92744 2.51342 4.51848 2.59901 4.13695 2.76722C3.75541 2.93543 3.40888 3.18293 3.11742 3.49537C2.52866 4.1283 2.19815 4.98474 2.19815 5.87749C2.19815 6.77024 2.52866 7.62668 3.11742 8.25961L10 15.6301L16.8826 8.25961C17.4713 7.62668 17.8018 6.77024 17.8018 5.87749C17.8018 4.98474 17.4713 4.1283 16.8826 3.49537C16.2817 2.88833 15.4865 2.55013 14.6599 2.55013C13.8333 2.55013 13.038 2.88833 12.4372 3.49537L10.6922 5.37188C10.6015 5.46959 10.4937 5.54714 10.3749 5.60007C10.2561 5.653 10.1287 5.68025 10 5.68025C9.87131 5.68025 9.74389 5.653 9.62509 5.60007C9.50629 5.54714 9.39847 5.46959 9.30784 5.37188L7.56283 3.49537C7.27137 3.18293 6.92484 2.93543 6.5433 2.76722C6.16176 2.59901 5.75281 2.51342 5.34012 2.51542Z" fill="#34C759"/>
</svg>
