<svg width="20" height="18" viewBox="0 0 20 18" fill="none" xmlns="http://www.w3.org/2000/svg">
<path d="M10 17.861C9.8717 17.8618 9.74452 17.8355 9.62574 17.7836C9.50697 17.7317 9.39893 17.6553 9.30784 17.5586L1.73311 9.44797C0.78296 8.42129 0.25 7.03517 0.25 5.59071C0.25 4.14625 0.78296 2.76013 1.73311 1.73345C2.69068 0.712333 3.98781 0.138916 5.34012 0.138916C6.69243 0.138916 7.98956 0.712333 8.94714 1.73345L10 2.85935L11.0529 1.73345C12.0104 0.712333 13.3076 0.138916 14.6599 0.138916C16.0122 0.138916 17.3093 0.712333 18.2669 1.73345C19.217 2.76013 19.75 4.14625 19.75 5.59071C19.75 7.03517 19.217 8.42129 18.2669 9.44797L10.6922 17.5586C10.6011 17.6553 10.493 17.7317 10.3743 17.7836C10.2555 17.8355 10.1283 17.8618 10 17.861ZM5.34012 2.22343C4.92744 2.22143 4.51848 2.30702 4.13695 2.47523C3.75541 2.64344 3.40888 2.89094 3.11742 3.20338C2.52866 3.83631 2.19815 4.69275 2.19815 5.5855C2.19815 6.47825 2.52866 7.33469 3.11742 7.96761L10 15.3381L16.8826 7.96761C17.4713 7.33469 17.8018 6.47825 17.8018 5.5855C17.8018 4.69275 17.4713 3.83631 16.8826 3.20338C16.2817 2.59634 15.4865 2.25814 14.6599 2.25814C13.8333 2.25814 13.038 2.59634 12.4372 3.20338L10.6922 5.07988C10.6015 5.1776 10.4937 5.25515 10.3749 5.30808C10.2561 5.36101 10.1287 5.38825 10 5.38825C9.87131 5.38825 9.74389 5.36101 9.62509 5.30808C9.50629 5.25515 9.39847 5.1776 9.30784 5.07988L7.56283 3.20338C7.27137 2.89094 6.92484 2.64344 6.5433 2.47523C6.16176 2.30702 5.75281 2.22143 5.34012 2.22343Z" fill="#F2F2F7"/>
</svg>
