<svg width="60" height="61" viewBox="0 0 60 61" fill="none" xmlns="http://www.w3.org/2000/svg">
<path d="M52.5 56.8627C52.5 57.8977 51.66 58.7377 50.625 58.7377H35.625V44.6752C35.625 44.1568 35.2059 43.7377 34.6875 43.7377H25.3125C24.7941 43.7377 24.375 44.1568 24.375 44.6752V58.7377H9.375C8.34 58.7377 7.5 57.8977 7.5 56.8627V30.0605L30.0084 7.55304L52.5 30.0446V56.8627Z" fill="#BBECC8"/>
<path d="M13.125 6.23773H16.875V12.4262L13.125 16.1687V6.23773Z" fill="#BBECC8"/>
<path d="M33.75 45.6127H26.25V58.7377H33.75V45.6127Z" fill="#BBECC8"/>
<path d="M57.1875 31.5502C56.9287 31.5502 56.6231 31.5165 56.4544 31.3468L30.6712 5.56367C30.4884 5.38086 30.2484 5.28898 30.0084 5.28898C29.7684 5.28898 29.5284 5.38086 29.3456 5.56367L3.55406 31.3562C3.38437 31.5259 3.07125 31.5502 2.8125 31.5502C2.29406 31.5502 1.875 31.1312 1.875 30.6127C1.875 30.354 1.89 30.0296 2.05969 29.8599L29.0953 2.87211C29.0953 2.87211 29.445 2.48773 30.0084 2.48773C30.5719 2.48773 30.9291 2.86086 30.9291 2.86086L57.9347 29.8655C58.1044 30.0352 58.125 30.354 58.125 30.6127C58.125 31.1302 57.7059 31.5502 57.1875 31.5502Z" fill="#BBECC8"/>
<path d="M59.2603 28.5399L32.2856 1.56429C32.2856 1.56429 31.4072 0.612732 30.0075 0.612732C28.6078 0.612732 27.78 1.54179 27.78 1.54179L18.75 10.554V5.30023C18.75 4.78179 18.3309 4.36273 17.8125 4.36273H12.1875C11.6691 4.36273 11.25 4.78179 11.25 5.30023V18.0399L0.734062 28.5343C0.225 29.0434 0 29.8365 0 30.6127C0 32.1652 1.25906 33.4252 2.8125 33.4252C3.58875 33.4252 4.37063 33.1899 4.87969 32.6809L5.625 31.9355V56.8627C5.625 58.9355 7.30219 60.6127 9.375 60.6127H50.625C52.6978 60.6127 54.375 58.9355 54.375 56.8627V31.9196L55.1287 32.6734C55.6378 33.1805 56.4113 33.4252 57.1875 33.4252C58.7409 33.4252 60 32.1662 60 30.6127C60 29.8355 59.7694 29.049 59.2603 28.5399ZM13.125 6.23773H16.875V12.4262L13.125 16.1687V6.23773ZM33.75 58.7377H26.25V45.6127H33.75V58.7377ZM52.5 56.8627C52.5 57.8977 51.66 58.7377 50.625 58.7377H35.625V44.6752C35.625 44.1568 35.2059 43.7377 34.6875 43.7377H25.3125C24.7941 43.7377 24.375 44.1568 24.375 44.6752V58.7377H9.375C8.34 58.7377 7.5 57.8977 7.5 56.8627V30.0605L30.0084 7.55304L52.5 30.0446V56.8627ZM57.1875 31.5502C56.9287 31.5502 56.6231 31.5165 56.4544 31.3468L30.6712 5.56367C30.4884 5.38086 30.2484 5.28898 30.0084 5.28898C29.7684 5.28898 29.5284 5.38086 29.3456 5.56367L3.55406 31.3562C3.38437 31.5259 3.07125 31.5502 2.8125 31.5502C2.29406 31.5502 1.875 31.1312 1.875 30.6127C1.875 30.354 1.89 30.0296 2.05969 29.8599L29.0953 2.87211C29.0953 2.87211 29.445 2.48773 30.0084 2.48773C30.5719 2.48773 30.9291 2.86086 30.9291 2.86086L57.9347 29.8655C58.1044 30.0352 58.125 30.354 58.125 30.6127C58.125 31.1302 57.7059 31.5502 57.1875 31.5502Z" fill="#0A2812" fill-opacity="0.7"/>
<path d="M21.5625 30.6127H14.0625C13.5441 30.6127 13.125 31.0318 13.125 31.5502V39.0502C13.125 39.5687 13.5441 39.9877 14.0625 39.9877H21.5625C22.0809 39.9877 22.5 39.5687 22.5 39.0502V31.5502C22.5 31.0318 22.0809 30.6127 21.5625 30.6127ZM20.625 38.1127H15V32.4877H20.625V38.1127Z" fill="#0A2812" fill-opacity="0.7"/>
<path d="M38.4375 39.9877H45.9375C46.4559 39.9877 46.875 39.5687 46.875 39.0502V31.5502C46.875 31.0318 46.4559 30.6127 45.9375 30.6127H38.4375C37.9191 30.6127 37.5 31.0318 37.5 31.5502V39.0502C37.5 39.5687 37.9191 39.9877 38.4375 39.9877ZM39.375 32.4877H45V38.1127H39.375V32.4877Z" fill="#0A2812" fill-opacity="0.7"/>
<path d="M33.75 45.6127H26.25V58.7377H33.75V45.6127Z" fill="#34C759"/>
<path d="M20.625 32.4877H15V38.1127H20.625V32.4877Z" fill="#56D075"/>
<path d="M45 32.4877H39.375V38.1127H45V32.4877Z" fill="#56D075"/>
</svg>
