<svg width="78" height="77" viewBox="0 0 78 77" fill="none" xmlns="http://www.w3.org/2000/svg">
<mask id="mask0_205_2570" style="mask-type:luminance" maskUnits="userSpaceOnUse" x="-1" y="-2" width="80" height="80">
<path d="M77.1761 0.0507812H0.823853V76.4031H77.1761V0.0507812Z" fill="white" stroke="white" stroke-width="2.38601"/>
</mask>
<g mask="url(#mask0_205_2570)">
<path d="M74.7902 19.1389V74.0172H50.9301V16.7529H72.4042C74.7902 16.7529 74.7902 19.1389 74.7902 19.1389Z" fill="#34C759" stroke="#0A2812" stroke-width="2.38601"/>
<path d="M50.9301 74.017H3.20987V4.82278C3.20987 3.51047 4.28357 2.43677 5.59588 2.43677H48.544C49.8563 2.43677 50.9301 3.51047 50.9301 4.82278V74.017Z" fill="#BBECC8" stroke="#0A2812" stroke-width="2.38601"/>
<path d="M19.912 74.017H34.228V59.7009H19.912V74.017Z" fill="#34C759" stroke="#0A2812" stroke-width="2.38601"/>
<path d="M50.9301 66.859V4.82278C50.9301 3.50331 49.8635 2.43677 48.544 2.43677H5.59588C4.27642 2.43677 3.20987 3.50331 3.20987 4.82278V74.017H19.9119V59.701H34.228V74.017H74.7901V19.1388C74.7901 19.1388 74.7901 16.7528 72.4041 16.7528H58.0881M39 14.3668V19.1388M62.8601 28.6829V33.4549M62.8601 42.9989V47.7709M27.07 14.3668V19.1388M15.1399 14.3668V19.1388M39 28.6829V33.4549M27.07 28.6829V33.4549M15.1399 28.6829V33.4549M39 42.9989V47.7709M27.07 42.9989V47.7709M15.1399 42.9989V47.7709" stroke="#0A2812" stroke-width="4.77202" stroke-linecap="round" stroke-linejoin="round"/>
</g>
</svg>
