<svg width="60" height="61" viewBox="0 0 60 61" fill="none" xmlns="http://www.w3.org/2000/svg">
<g clip-path="url(#clip0_157_2426)">
<path d="M42.091 10.9676C41.2815 11.8783 40.8769 12.9913 40.8769 14.3066C40.8769 17.1396 43.1028 19.3656 45.9359 19.3656C48.7689 19.3656 50.995 17.1397 50.995 14.3066C50.995 11.4735 48.7691 9.24753 45.9359 9.24753C44.4181 9.24753 43.1028 9.95575 42.091 10.9676ZM29.241 6.71794L31.7705 4.18847C33.7942 2.16482 35.8177 1.15306 38.8531 1.15306H55.0419C57.2678 1.15306 59.0891 2.97431 59.0891 5.20024V21.3891C59.0891 23.4127 58.6844 24.9304 57.7738 26.3469C57.2678 27.0551 56.762 27.7634 56.0537 28.4716L28.735 55.7903L26.0031 58.5222C24.3843 60.1411 21.8547 60.1411 20.2358 58.5222L1.6188 39.9052C-4.85182e-05 38.2863 -4.85182e-05 35.7567 1.6188 34.239L29.241 6.71794Z" fill="#D6F4DE"/>
<path d="M42.091 10.9838C43.0016 9.972 44.4182 9.26366 45.9359 9.26366C48.7689 9.26366 50.9949 11.4896 50.9949 14.3227C50.9949 17.1558 48.769 19.3818 45.9359 19.3818C43.1029 19.3818 40.8768 17.1558 40.8768 14.3227C40.8768 13.0074 41.3826 11.8944 42.091 10.9838ZM57.8751 26.3632L39.9662 57.8302C38.8532 59.7526 36.3237 60.461 34.4013 59.3479L28.8363 55.9078L56.155 28.5891C56.7621 27.7797 57.3692 27.0714 57.8751 26.3632Z" fill="#56D075"/>
<path d="M36.4249 60.3598C35.6155 60.3598 34.9072 60.1574 34.199 59.7527L31.8718 58.235C31.6694 58.0326 31.5683 57.7291 31.7707 57.5268C31.9731 57.3244 32.2766 57.2233 32.4789 57.4257L34.7048 58.8422C36.4249 59.854 38.5497 59.2469 39.5615 57.5269L51.1972 37.7968C51.2983 37.5944 51.6019 37.4932 51.9054 37.5944C52.1078 37.6955 52.209 37.999 52.1078 38.3026L40.4721 58.0328C39.4603 59.5503 37.9426 60.3598 36.4249 60.3598ZM23.1703 60.2586C21.9561 60.2586 20.8431 59.8539 19.9325 58.9433L1.31531 40.3261C0.404682 39.5166 0 38.3025 0 37.0883C0 35.8741 0.505941 34.7611 1.31531 33.8505L28.2293 6.93647C24.7892 6.12699 21.6526 5.62116 19.0219 5.31762C14.57 4.91294 14.1653 5.7223 14.1653 5.7223C14.0642 5.9247 15.0759 7.34115 20.8432 9.66834C21.1467 9.76948 21.2479 10.073 21.1467 10.2754C21.0456 10.579 20.7421 10.6801 20.5397 10.579C15.3795 8.55531 12.9511 6.83533 13.2547 5.5199C13.4571 4.81168 14.2664 3.90106 19.2243 4.40688C22.5633 4.71042 26.8129 5.5199 31.2649 6.73407C37.1332 8.35303 48.1619 11.9955 47.4536 14.7274C47.2512 15.4356 46.4418 15.8404 45.0252 15.9416C44.7217 15.9416 44.5193 15.7392 44.5193 15.4356C44.5193 15.1321 44.7217 14.9297 45.0252 14.9297C46.2394 14.8285 46.5429 14.525 46.5429 14.4237C46.6441 14.0191 45.2276 12.906 42.3945 11.5907C41.7874 12.4002 41.4839 13.3108 41.4839 14.3226C41.4839 16.8521 43.5075 18.8757 46.037 18.8757C48.5665 18.8757 50.5901 16.8521 50.5901 14.3226C50.5901 11.7931 48.5665 9.76948 46.037 9.76948C45.7334 9.76948 45.531 9.56708 45.531 9.26354C45.531 8.96 45.7334 8.7576 46.037 8.7576C49.0724 8.7576 51.6019 11.2871 51.6019 14.3225C51.6019 17.3579 49.0724 19.8874 46.037 19.8874C43.0016 19.8874 40.4721 17.3579 40.4721 14.3225C40.4721 13.2095 40.7757 12.0965 41.4839 11.1859C38.9544 10.0729 35.5142 8.85874 31.0623 7.64457C30.5564 7.54343 30.0506 7.34103 29.5446 7.23989L2.22593 34.5586C1.51771 35.2668 1.21416 36.0763 1.21416 37.0881C1.21416 37.9987 1.61885 38.9093 2.22593 39.6175L20.8431 58.2347C22.2596 59.6512 24.4856 59.6512 25.9021 58.2347L55.9527 28.1841C57.9764 26.1605 58.887 24.1369 58.887 21.5062V5.31762C58.887 3.39523 57.2681 1.77627 55.3456 1.77627H39.1568C36.4249 1.77627 34.5025 2.58575 32.4789 4.71054C32.2765 4.91294 31.973 4.91294 31.7707 4.71054C31.5683 4.50814 31.5683 4.2046 31.7707 4.00232C33.9966 1.77627 36.2225 0.865646 39.2579 0.865646H55.4468C57.9762 0.865646 59.9999 2.88929 59.9999 5.41876V21.6076C59.9999 24.643 59.0893 26.7678 56.8633 29.095L26.8128 59.1455C25.4975 59.8539 24.2833 60.2586 23.1703 60.2586ZM21.7538 42.1474C20.6408 42.1474 19.7302 41.7427 18.9208 41.1356L18.1113 41.9451C17.9089 42.1475 17.6054 42.1475 17.4031 41.9451C17.2007 41.7427 17.2007 41.4391 17.4031 41.2369L18.2126 40.4274C17.6055 39.6179 17.2008 38.7073 17.2008 37.5944C17.2008 36.6837 17.5044 35.7731 18.0103 35.0649C18.2127 34.8625 18.5162 34.7613 18.7185 34.9637C18.9209 35.1661 19.0221 35.4697 18.8197 35.672C18.415 36.2791 18.2126 36.9873 18.2126 37.6956C18.2126 39.618 19.8314 41.237 21.7539 41.237C23.6764 41.237 25.2953 39.6181 25.2953 37.6956C25.2953 37.0885 24.8906 35.8744 24.3847 34.9637C23.8787 34.0531 23.2716 33.0414 23.2716 31.6248C23.2716 29.0953 25.2953 27.0717 27.8248 27.0717C28.9378 27.0717 29.8484 27.4764 30.6578 28.0834L31.4673 27.274C31.6697 27.0716 31.9732 27.0716 32.1755 27.274C32.3778 27.4764 32.3779 27.7799 32.1755 27.9822L31.366 28.7917C31.9731 29.6011 32.3778 30.5118 32.3778 31.6247C32.3778 32.8388 31.8718 33.9519 31.0625 34.8625C30.8601 35.0649 30.5565 35.0649 30.3542 34.8625C30.1518 34.6601 30.1518 34.3565 30.3542 34.1543C31.0625 33.446 31.366 32.6366 31.366 31.6248C31.366 30.7142 30.9613 29.8035 30.4554 29.1965C30.4554 29.1965 30.3542 29.1965 30.3542 29.0953L30.2531 28.9942C29.646 28.3871 28.7354 28.0836 27.8248 28.0836C25.9024 28.0836 24.2834 29.7024 24.2834 31.6249C24.2834 32.5355 24.5869 33.345 25.194 34.3568C25.8011 35.3685 26.3071 36.7851 26.3071 37.6957C26.3069 40.1237 24.2833 42.1474 21.7538 42.1474Z" fill="#51565F"/>
</g>
<defs>
<clipPath id="clip0_157_2426">
<rect width="60" height="60" fill="white" transform="translate(0 0.612732)"/>
</clipPath>
</defs>
</svg>
