<svg width="54" height="50" viewBox="0 0 54 50" fill="none" xmlns="http://www.w3.org/2000/svg">
<path d="M29.5932 0.861817C30.9508 0.861387 32.2584 1.37412 33.2539 2.29722C34.2493 3.22033 34.8591 4.48559 34.9609 5.83936L34.9744 6.24295V17.0052H43.0461C44.4037 17.0048 45.7112 17.5175 46.7067 18.4406C47.7022 19.3637 48.3119 20.629 48.4137 21.9828L48.4272 22.3863V43.9109H51.1178C51.8035 43.9116 52.4631 44.1742 52.9618 44.645C53.4604 45.1157 53.7605 45.7592 53.8007 46.4437C53.8409 47.1283 53.6182 47.8024 53.178 48.3283C52.7379 48.8542 52.1135 49.1922 51.4326 49.2732L51.1178 49.292H2.68758C2.00181 49.2912 1.34222 49.0286 0.843556 48.5579C0.344898 48.0871 0.0448172 47.4437 0.00462787 46.7591C-0.0355614 46.0745 0.187174 45.4004 0.627324 44.8745C1.06747 44.3487 1.69182 44.0107 2.37279 43.9297L2.68758 43.9109H5.37815V6.24295C5.37772 4.88535 5.89045 3.57776 6.81356 2.5823C7.73667 1.58684 9.00192 0.977089 10.3557 0.87527L10.7593 0.861817H29.5932ZM43.0461 22.3863H34.9744V43.9109H43.0461V22.3863ZM29.5932 6.24295H10.7593V43.9109H29.5932V6.24295ZM24.2121 33.1486V38.5297H16.1404V33.1486H24.2121ZM24.2121 22.3863V27.7675H16.1404V22.3863H24.2121ZM24.2121 11.6241V17.0052H16.1404V11.6241H24.2121Z" fill="#34C759"/>
</svg>
