<svg width="54" height="61" viewBox="0 0 54 61" fill="none" xmlns="http://www.w3.org/2000/svg">
<path d="M5.11873 43.0536H3.04533C1.90017 43.0536 0.971926 42.1253 0.971926 40.9802V32.6864H5.11873V43.0536Z" fill="#34C759"/>
<path d="M48.6609 32.6863H52.8079V40.9801C52.8079 42.1252 51.8796 43.0535 50.7345 43.0535H48.6609V32.6863Z" fill="#34C759"/>
<path d="M9.26571 46.1636H7.19231C6.04715 46.1636 5.11891 45.2354 5.11891 44.0902V31.6496C5.11891 30.5044 6.04715 29.5762 7.19231 29.5762H9.26571C10.4109 29.5762 11.3391 30.5044 11.3391 31.6496V44.0902C11.3391 45.2354 10.4109 46.1636 9.26571 46.1636Z" fill="#959CB3"/>
<path d="M11.3391 44.0902V31.6496C11.3391 30.5044 10.4109 29.5762 9.26571 29.5762L8.22902 29.5759V46.1635L9.26571 46.1636C10.4109 46.1636 11.3391 45.2354 11.3391 44.0902Z" fill="#707487"/>
<path d="M44.5142 29.5759H46.5876C47.7327 29.5759 48.661 30.5042 48.661 31.6493V44.09C48.661 45.2351 47.7327 46.1634 46.5876 46.1634H44.5142C43.369 46.1634 42.4408 45.2351 42.4408 44.09V31.6493C42.4408 30.5042 43.369 29.5759 44.5142 29.5759Z" fill="#959CB3"/>
<path d="M42.4408 31.6493V44.09C42.4408 45.2351 43.369 46.1634 44.5142 46.1634L45.5509 46.1635V29.5759H44.5142C43.369 29.5759 42.4408 30.5042 42.4408 31.6493Z" fill="#707487"/>
<path d="M35.1837 28.5393H18.5963C16.8785 28.5393 15.4861 29.9317 15.4861 31.6495V44.0901C15.4861 45.8078 16.8785 47.2003 18.5963 47.2003H28.9635V50.615C28.9635 51.2661 29.7507 51.5921 30.211 51.1317L34.1424 47.2003H35.184C36.9017 47.2003 38.2941 45.8078 38.2941 44.0901V31.6495C38.2939 29.9317 36.9015 28.5393 35.1837 28.5393Z" fill="#BBECC8"/>
<path d="M34.147 59.6409H31.0368C30.4642 59.6409 30.0001 59.1767 30.0001 58.6041V56.5307C30.0001 55.9581 30.4642 55.4939 31.0368 55.4939H34.147C35.2921 55.4939 36.2204 56.4222 36.2204 57.5673C36.2204 58.7126 35.2921 59.6409 34.147 59.6409Z" fill="#707487"/>
<path d="M26.8899 0.612732C12.0627 0.612732 0 12.6755 0 27.5026V40.9799C0 42.6591 1.36617 44.0253 3.04536 44.0253H4.14692V44.0901C4.14692 45.7693 5.5131 47.1354 7.19228 47.1354H9.26568C10.9449 47.1354 12.311 45.7693 12.311 44.0901V31.6494C12.311 29.9703 10.9449 28.6041 9.26568 28.6041H7.19228C5.5131 28.6041 4.14692 29.9703 4.14692 31.6494V31.7142H1.94379V27.5025C1.94379 13.7473 13.1345 2.55641 26.8899 2.55641C40.6453 2.55641 51.836 13.7471 51.836 27.5025V31.7142H49.633V31.6494C49.633 29.9703 48.2668 28.6041 46.5876 28.6041H44.5142C42.835 28.6041 41.4689 29.9703 41.4689 31.6494V44.0901C41.4689 45.7693 42.835 47.1354 44.5142 47.1354H46.5876C48.2668 47.1354 49.633 45.7693 49.633 44.0901V44.0253H49.7273C49.2463 50.7754 43.7962 56.1726 37.0241 56.571C36.6104 55.3798 35.4773 54.5221 34.147 54.5221H31.0368C29.9292 54.5221 29.0282 55.4232 29.0282 56.5307V58.6041C29.0282 59.7118 29.9293 60.6127 31.0368 60.6127H34.147C35.4944 60.6127 36.6396 59.7328 37.0396 58.5176C44.9279 58.1044 51.2715 51.761 51.6846 43.8727C52.8998 43.4724 53.7798 42.3273 53.7798 40.9799V27.5026C53.7798 12.6755 41.7171 0.612732 26.8899 0.612732ZM6.09071 31.6495C6.09071 31.0422 6.5849 30.548 7.19228 30.548H9.26568C9.87307 30.548 10.3672 31.0422 10.3672 31.6495V44.0902C10.3672 44.6976 9.87307 45.1918 9.26568 45.1918H7.19228C6.5849 45.1918 6.09071 44.6976 6.09071 44.0902V31.6495ZM4.14692 33.6581V42.0815H3.04536C2.43797 42.0815 1.94379 41.5873 1.94379 40.9799V33.6581H4.14692ZM34.147 58.6691H31.0368C31.0011 58.6691 30.972 58.64 30.972 58.6042V56.5308C30.972 56.4951 31.0011 56.466 31.0368 56.466H34.147C34.7544 56.466 35.2485 56.9602 35.2485 57.5676C35.2485 58.175 34.7544 58.6691 34.147 58.6691ZM47.6891 44.0901C47.6891 44.6975 47.1949 45.1916 46.5875 45.1916H44.5141C43.9067 45.1916 43.4125 44.6975 43.4125 44.0901V31.6494C43.4125 31.042 43.9067 30.5479 44.5141 30.5479H46.5875C47.1949 30.5479 47.6891 31.042 47.6891 31.6494V44.0901ZM50.7344 42.0815H49.6329V33.6581H51.8359V40.9799C51.836 41.5874 51.3418 42.0815 50.7344 42.0815Z" fill="#1A642D"/>
<path d="M33.1102 39.8785C34.2179 39.8785 35.1188 38.9774 35.1188 37.8699C35.1188 36.7625 34.2178 35.8613 33.1102 35.8613C32.0027 35.8613 31.1016 36.7624 31.1016 37.8699C31.1016 38.9775 32.0026 39.8785 33.1102 39.8785Z" fill="#1A642D"/>
<path d="M26.89 35.8611C25.7823 35.8611 24.8814 36.7621 24.8814 37.8697C24.8814 38.9772 25.7824 39.8783 26.89 39.8783C27.9975 39.8783 28.8986 38.9771 28.8986 37.8697C28.8986 36.7623 27.9976 35.8611 26.89 35.8611Z" fill="#1A642D"/>
<path d="M29.6959 52.3185C30.138 52.3185 30.5716 52.1455 30.8981 51.8189L34.5449 48.1723H35.1838C37.4346 48.1723 39.2659 46.3411 39.2659 44.0901V31.6495C39.2659 29.3987 37.4346 27.5674 35.1838 27.5674H18.5963C16.3455 27.5674 14.5142 29.3986 14.5142 31.6495V44.0901C14.5142 46.341 16.3455 48.1723 18.5963 48.1723H27.9916V50.615C27.9916 51.3061 28.4042 51.9237 29.0427 52.1882C29.2545 52.2758 29.4764 52.3185 29.6959 52.3185ZM18.5963 46.2285C17.4173 46.2285 16.4581 45.2693 16.4581 44.0903V31.6496C16.4581 30.4706 17.4173 29.5114 18.5963 29.5114H35.1838C36.3628 29.5114 37.322 30.4706 37.322 31.6496V44.0903C37.322 45.2693 36.3628 46.2285 35.1838 46.2285H34.1422C33.8844 46.2285 33.6372 46.3309 33.455 46.5132L29.9354 50.0328V47.2004C29.9354 46.6637 29.5003 46.2285 28.9634 46.2285H18.5963Z" fill="#1A642D"/>
<path d="M20.6695 35.8611C19.5619 35.8611 18.6609 36.7621 18.6609 37.8697C18.6609 38.9772 19.562 39.8783 20.6695 39.8783C21.7771 39.8783 22.6781 38.9772 22.6781 37.8697C22.6781 36.7621 21.7772 35.8611 20.6695 35.8611Z" fill="#1A642D"/>
</svg>
