<svg width="78" height="79" viewBox="0 0 78 79" fill="none" xmlns="http://www.w3.org/2000/svg">
<path d="M13.9722 59.6784C19.877 66.9912 28.9105 71.6838 38.9996 71.6838C49.0886 71.6838 58.1221 66.9912 64.0269 59.6981C56.7338 55.8657 47.974 53.7539 38.9996 53.7539C30.0054 53.7539 21.2653 55.846 13.9722 59.6784Z" fill="#34C759"/>
<path d="M39 7.31616C21.2657 7.31616 6.81616 21.7657 6.81616 39.5C6.81616 44.7597 8.1261 49.7457 10.3749 54.1256C18.7239 49.609 28.7546 47.1452 39 47.1452C49.2454 47.1452 59.2957 49.6283 67.6251 54.1256C69.8932 49.7263 71.1838 44.7597 71.1838 39.5C71.1838 21.7654 56.7342 7.31616 39 7.31616ZM39 41.8658C31.4331 41.8658 25.2545 35.6872 25.2545 28.1203C25.2545 20.5535 31.4331 14.3749 39 14.3749C46.5668 14.3749 52.7454 20.5535 52.7454 28.1203C52.7454 35.6872 46.5668 41.8658 39 41.8658Z" fill="white"/>
<path d="M38.9996 20.9832C35.0498 20.9832 31.8432 24.1898 31.8432 28.1396C31.8432 32.0894 35.0498 35.296 38.9996 35.296C42.9298 35.296 46.1561 32.0894 46.1561 28.1396C46.1558 24.1898 42.9298 20.9832 38.9996 20.9832Z" fill="#34C759"/>
<path d="M39 0.726807C17.6094 0.726807 0.226868 18.1093 0.226868 39.4999C0.226868 60.8906 17.6094 78.2731 39 78.2731C60.3906 78.2731 77.7731 60.8906 77.7731 39.4999C77.7731 18.1093 60.3906 0.726807 39 0.726807ZM39 71.6837C28.8716 71.6837 19.8578 66.9911 13.9726 59.6783C21.2658 55.8459 30.0058 53.7735 39 53.7735C47.9748 53.7735 56.7342 55.8852 64.0274 59.7177C58.1225 66.9911 49.089 71.6837 39 71.6837ZM39 47.1448C28.7349 47.1448 18.7042 49.628 10.3749 54.1252C8.12643 49.726 6.81619 44.779 6.81619 39.4996C6.81619 21.7654 21.2658 7.31583 39 7.31583C56.7342 7.31583 71.1838 21.7654 71.1838 39.4996C71.1838 44.779 69.8739 49.7454 67.6251 54.1252C59.2957 49.6477 49.2651 47.1448 39 47.1448Z" fill="#0A2812"/>
<path d="M38.9997 14.3945C31.4329 14.3945 25.2543 20.5731 25.2543 28.14C25.2543 35.7068 31.4329 41.8854 38.9997 41.8854C46.5666 41.8854 52.7452 35.7068 52.7452 28.14C52.7452 20.5535 46.5666 14.3945 38.9997 14.3945ZM38.9997 35.2767C35.0499 35.2767 31.8433 32.0701 31.8433 28.1203C31.8433 24.1705 35.0499 20.9639 38.9997 20.9639C42.9298 20.9639 46.1561 24.1705 46.1561 28.1203C46.1561 32.0701 42.9298 35.2767 38.9997 35.2767Z" fill="#0A2812"/>
</svg>
