<svg width="66" height="64" viewBox="0 0 66 64" fill="none" xmlns="http://www.w3.org/2000/svg">
<path d="M19.6223 49.9799C19.1301 49.9514 18.7337 49.9095 18.2281 49.7853C17.7225 49.6611 17.3261 49.6192 16.9162 49.4815C16.0008 49.2196 15.1676 48.8486 14.321 48.3818C12.6412 47.544 11.1948 46.2828 9.99518 44.6941C8.80907 43.2011 7.96554 41.3671 7.61416 39.5615C7.38387 38.6176 7.35851 37.7425 7.3197 36.7717C7.34816 36.2795 7.39008 35.8831 7.41854 35.391C7.44701 34.8988 7.58466 34.489 7.61312 33.9968L7.89723 35.3237C7.96451 35.8024 8.11407 36.1719 8.27708 36.6371C8.49391 37.4853 8.80648 38.32 9.1056 39.059C9.71728 40.6328 10.507 42.0838 11.5705 43.3988C12.6339 44.7138 13.7797 45.9195 15.1992 46.9892C15.8543 47.4829 16.6052 47.9632 17.3561 48.4434C17.6837 48.6902 18.107 48.9236 18.5303 49.157L19.6223 49.9799ZM19.8194 53.4668C19.5591 53.6986 19.1896 53.8482 18.8201 53.9977C18.4506 54.1473 18.1769 54.2834 17.7939 54.3372C17.1372 54.5271 16.3848 54.7305 15.6054 54.7424C14.1559 54.8485 12.5703 54.6808 11.2315 54.1856C9.79698 53.7038 8.50013 52.8121 7.55931 51.6752C7.09563 51.1546 6.61849 50.5382 6.23709 49.9084C6.10099 49.6347 5.95143 49.2652 5.80187 48.8957C5.76151 48.6085 5.62541 48.3347 5.57159 47.9518C5.89916 48.1986 6.13101 48.4589 6.34939 48.6235C6.67697 48.8703 6.90881 49.1306 7.12719 49.2952C7.67316 49.7066 8.12338 50.1315 8.65589 50.4472C9.73437 51.1743 10.7994 51.8056 12.029 52.2186C13.1628 52.645 14.4747 52.9488 15.6773 53.1703C16.2787 53.281 16.9623 53.2825 17.6594 53.3798C17.96 53.4352 18.343 53.3814 18.6437 53.4368C19.1358 53.4652 19.423 53.4249 19.8194 53.4668ZM34.917 3.89742C35.4091 3.92588 35.819 4.06354 36.3246 4.18774C36.8302 4.31194 37.24 4.44959 37.6499 4.58725C38.5788 4.94484 39.412 5.31589 40.2586 5.78268C41.9519 6.71625 43.4118 8.07313 44.5156 9.67532C45.6194 11.2775 46.3672 13.125 46.6229 14.944C46.7574 15.9014 46.7828 16.7765 46.7258 17.7608C46.6974 18.2529 46.6555 18.6493 46.5313 19.1549C46.4071 19.6605 46.3651 20.0569 46.2275 20.4668L45.9434 19.1399C45.8761 18.6612 45.8223 18.2783 45.6593 17.813L45.0088 15.2685C44.4928 13.6813 43.6897 12.1345 42.7085 10.7103C41.7273 9.28616 40.5816 8.08038 39.2578 6.99725C38.5892 6.40782 37.8383 5.92758 37.1697 5.33814C36.8421 5.0913 36.4188 4.8579 35.9955 4.62451L34.917 3.89742ZM43.1923 2.34388C43.5887 2.3858 43.8894 2.44117 44.2035 2.59228C44.5042 2.64765 44.9141 2.78531 45.2282 2.93642C45.8564 3.23864 46.4847 3.54086 47.1264 3.93882C48.3141 4.74819 49.3372 5.77594 50.0042 7.049C50.767 8.30859 51.1603 9.71775 51.1707 11.1807C51.1691 11.8643 51.0718 12.5614 50.9745 13.2585C50.9192 13.5592 50.7815 13.969 50.7261 14.2697C50.575 14.5838 50.5196 14.8845 50.2728 15.2121L50.1382 14.2547L50.0037 13.2973C49.9095 12.6271 49.733 12.0662 49.6523 11.4917C49.2859 10.2741 48.933 9.15212 48.3063 8.16628C47.6661 7.08471 46.9572 6.20806 46.139 5.24913C45.6888 4.82426 45.2251 4.30366 44.7749 3.87879C44.543 3.61848 44.3246 3.45392 43.9971 3.20707C43.7383 2.75529 43.4107 2.50845 43.1923 2.34388Z" fill="#34C759"/>
<path d="M9.67878 21.601C7.88512 22.7318 7.53788 25.1237 8.66862 26.9173L24.2702 50.401L30.5279 46.2998L14.9128 22.7204C13.782 20.9267 11.459 20.3746 9.67878 21.601ZM44.1801 37.1566L50.7937 32.8101L32.971 6.02633C31.7445 4.24613 29.3257 3.70741 27.4498 4.94734C25.6696 6.17382 25.1308 8.59262 26.3708 10.4686L44.1801 37.1566Z" fill="#FFDD67"/>
<path d="M27.5317 4.83772C27.3537 4.96037 27.1757 5.08302 27.0111 5.3014C28.7629 4.56707 30.7987 5.15961 31.9026 6.76179L49.7253 33.5456L50.8892 32.7962L33.0664 6.01245C31.8265 4.13651 29.4077 3.59779 27.5317 4.83772Z" fill="#EBA352"/>
<path d="M30.5143 46.2041L37.3883 41.6257L19.1976 14.3079C17.9577 12.432 15.3339 11.8244 13.458 13.0643C11.5821 14.3043 11.0703 16.9146 12.3102 18.7905L30.5143 46.2041Z" fill="#FFDD67"/>
<path d="M13.4712 13.1599C13.2931 13.2826 13.1151 13.4052 12.9505 13.6236C14.7023 12.8893 16.9296 13.4549 18.0469 15.1528L29.3289 32.2143L31.6101 33.1629L19.2108 14.4035C17.9574 12.4318 15.4428 11.9065 13.4712 13.1599Z" fill="#EBA352"/>
<path d="M35.9164 39.4896L42.7904 34.9113L24.5997 7.59343C23.3597 5.71749 20.736 5.10994 18.8735 6.44561C16.9976 7.68555 16.4858 10.2958 17.7257 12.1718L35.9164 39.4896Z" fill="#FFDD67"/>
<path d="M18.8597 6.35012C18.6817 6.47276 18.5171 6.69115 18.3391 6.8138C20.0908 6.07946 22.3181 6.64509 23.4354 8.34301L36.2027 27.6365L38.4838 28.5851L24.5993 7.59367C23.3459 5.62199 20.7356 5.11018 18.8597 6.35012ZM9.67818 21.6014C9.50016 21.724 9.32214 21.8467 9.15758 22.0651C10.8136 21.3442 12.7537 21.9502 13.7618 23.5658L23.0546 37.5875L25.3357 38.5361L14.9256 22.8165C13.7814 20.9271 11.4584 20.3749 9.67818 21.6014Z" fill="#EBA352"/>
<path d="M57.9097 11.8948C55.0422 10.2476 51.1392 13.0416 50.0017 20.2307C49.2384 25.2194 49.2488 26.6824 46.387 28.549L44.1659 25.2489C44.1659 25.2489 18.8197 42.1862 20.1689 44.1444C20.1689 44.1444 24.8502 53.8351 31.0623 57.7459C40.2914 63.6733 58.4717 53.4056 56.7634 34.9986C55.7486 24.3045 60.9955 13.7065 57.9097 11.8948Z" fill="#FFDD67"/>
<path d="M57.9097 11.8935C57.3772 11.5778 56.7759 11.4671 56.188 11.4521C56.2972 11.5344 56.4887 11.5075 56.5979 11.5897C59.7795 13.3881 57.5247 18.8793 56.543 23.7034C55.714 27.5298 55.0899 31.425 55.7926 35.0362C58.7921 50.821 43.8668 60.6313 33.8894 59.1046C43.8234 61.7113 60.1981 51.7949 57.1045 35.3399C56.4017 31.7288 56.957 28.0385 57.8549 24.0072C58.7408 19.1965 60.9956 13.7053 57.9097 11.8935Z" fill="#EBA352"/>
<path d="M47.1946 28.0438C41.353 29.5482 33.8384 39.2932 41.2707 47.7187C35.4525 38.9688 41.9362 31.614 46.3179 28.7528C46.7428 28.3026 47.1946 28.0438 47.1946 28.0438Z" fill="#EBA352"/>
</svg>
