<svg width="184" height="33" viewBox="0 0 184 33" fill="none" xmlns="http://www.w3.org/2000/svg">
<path d="M9.328 18.008L9.768 29.8L14.036 30.68L13.816 32.44L7.568 32L1.54 32.44L1.628 30.68L5.28 29.8L5.588 18.536L5.368 3.4L1.76 2.52L1.98 0.759998L7.348 1.2L13.244 0.715999L16.852 0.979998L20.416 2.124L23.892 4.764L24.992 9.296L24.2 14.18L21.516 16.116L18.612 16.952L24.904 30.284H28.336L28.6 31.736L23.452 32.792L20.592 30.46L15.136 17.92L13.772 18.272L9.328 18.008ZM9.636 3.18L9.372 16.072L13.244 16.292L19.184 14.048L20.46 10.22L19.536 6.172L16.06 2.784L9.636 3.18ZM34.0887 20.164L34.0447 20.56L35.2327 26.764L38.7087 30.196L42.7567 30.636L46.8927 28.436L47.6847 29.58L44.2087 32.352L40.0727 32.88L35.7607 31.868L32.0207 28.744L29.7767 22.144L30.5247 16.248L32.8127 12.112L37.4327 9.56L41.3047 9.076L44.3847 10.044L46.7607 12.2L48.1247 16.116L48.1687 19.768L47.5527 20.252L41.7007 20.648L34.0887 20.164ZM36.2887 13.036L34.5727 16.38L34.3087 18.36L40.9967 18.448L44.0327 17.788L43.7687 13.696L42.4487 11.452L39.6327 11.056L36.2887 13.036ZM54.4658 30.284L58.1178 30.856L62.2098 30.284L63.1778 27.292L61.9898 25.004L53.8058 20.032L52.0458 17.26L51.9578 12.596L55.0818 9.956L59.7018 9.12L66.1698 10.44L65.2458 16.908L63.3978 16.292L62.5618 11.716L59.5258 11.144L56.2258 11.892L55.3898 14.312L56.4458 16.908L64.8938 21.748L66.9618 24.344L67.1378 28.48L64.1458 32L58.8658 32.88L55.2138 32.704L51.1218 31.12L52.2218 24.784L54.1138 25.4L54.4658 30.284ZM80.234 32.44L77.242 32.88L74.118 31.824L72.71 28.304L72.93 20.12L72.71 12.728L69.674 12.288L69.41 10.748L72.886 9.824L74.47 5.38H76.714L76.582 10.308L81.906 10.484L81.642 12.42L77.022 12.728L76.846 14.752L77.022 28.084L77.902 30.724L82.038 29.624L82.698 30.944L80.234 32.44ZM112.057 29.8L115.445 30.68L115.225 32.22L109.857 32L103.829 32.22L103.917 30.68L107.437 29.8L107.877 17.04L100.309 16.82L92.2567 17.04L92.5647 29.844L96.0847 30.68L95.6447 32.308L90.4967 32L84.5127 32.308L84.7767 30.68L88.2527 29.844L88.5167 15.896L88.0767 3.4L84.6887 2.52L84.9087 0.759998L90.2767 1.2L96.3047 0.759998L96.2167 2.52L92.6967 3.4L92.2567 14.62L100.309 14.752L107.877 14.62L107.437 3.4L104.049 2.52L104.269 0.759998L109.637 1.2L115.665 0.759998L115.577 2.52L112.057 3.4L111.617 15.896L112.057 29.8ZM124.798 16.82V26.412L125.986 29.316L129.682 29.8L134.478 26.94V22.276L134.434 16.776L134.214 12.2L131.09 12.332L130.87 10.792L136.942 9.604L139.142 10.088L138.834 16.072L138.79 19.592L138.878 22.276V30.196L141.958 31.076L141.738 32.616H135.71L134.698 28.92L129.726 32.572L125.238 32.88L121.19 30.108L120.53 26.588L120.574 17.172L120.134 12.156L117.01 12.288L116.79 10.748L122.862 9.56L125.062 10.044L124.798 16.82ZM165.799 29.844L168.923 30.68L168.703 32.22L163.511 32L158.143 32.22L158.231 30.68L161.135 29.8L161.443 25.18L161.267 15.588L160.079 12.684L156.339 12.024L151.543 14.488L151.455 16.028L151.191 20.428L151.279 24.696L151.499 29.8L154.711 30.68L154.491 32.22L149.299 32L143.931 32.22L144.019 30.68L146.923 29.8L147.231 25.18L146.835 12.156L143.711 12.288L143.491 10.748L149.563 9.56L151.763 10.044L151.631 12.288L156.339 9.428L160.827 9.12L164.875 11.892L165.535 15.412L165.447 24.696L165.799 29.844ZM180.695 32.44L177.703 32.88L174.579 31.824L173.171 28.304L173.391 20.12L173.171 12.728L170.135 12.288L169.871 10.748L173.347 9.824L174.931 5.38H177.175L177.043 10.308L182.367 10.484L182.103 12.42L177.483 12.728L177.307 14.752L177.483 28.084L178.363 30.724L182.499 29.624L183.159 30.944L180.695 32.44Z" fill="#1F1F1F"/>
</svg>
